<svg width="94" height="90" viewBox="0 0 94 90" fill="none" xmlns="http://www.w3.org/2000/svg">
<path fill-rule="evenodd" clip-rule="evenodd" d="M80.1493 13.8212C79.5239 13.2207 78.878 12.6397 78.2152 12.0781C77.5558 11.5133 76.8759 10.968 76.1825 10.4421C75.4891 9.9163 74.7786 9.40992 74.0546 8.92302C73.3272 8.43287 72.5896 7.96544 71.8349 7.52074C71.0837 7.07279 70.3189 6.64756 69.5405 6.24181C68.7621 5.83606 67.9701 5.45303 67.1713 5.08948C66.3691 4.72917 65.5566 4.38834 64.734 4.07023C63.9114 3.75537 63.082 3.45998 62.2424 3.18732C61.4028 2.91465 60.5564 2.66471 59.7033 2.44073C58.8467 2.21351 57.9867 2.01226 57.1199 1.83373C56.2531 1.6552 55.3829 1.49939 54.5059 1.36955C53.6289 1.23647 52.7519 1.12935 51.8681 1.0482C50.9878 0.963801 50.104 0.905372 49.2168 0.872912C48.3296 0.837206 47.4458 0.827468 46.5586 0.840452C45.6714 0.853436 44.7876 0.892388 43.9039 0.954062C43.0201 1.01574 42.1363 1.10338 41.2593 1.21374C40.3789 1.32411 39.5053 1.46044 38.6317 1.61625C37.7615 1.7753 36.8981 1.95708 36.0382 2.16482C35.1782 2.36932 34.325 2.59979 33.4786 2.84973C32.6322 3.10292 31.7926 3.37883 30.9632 3.67746C30.1338 3.9761 29.3146 4.29421 28.5022 4.63828C27.6932 4.98236 26.8943 5.34591 26.1057 5.73219C25.3171 6.12171 24.5387 6.52746 23.7739 6.95918C23.0125 7.38765 22.2613 7.8356 21.5236 8.30627C20.786 8.77695 20.062 9.26709 19.355 9.77672C18.6479 10.2863 17.9579 10.8154 17.2815 11.364C16.605 11.9126 15.9456 12.4774 15.3031 13.0617C14.6607 13.646 14.0386 14.2465 13.4302 14.8632C12.8251 15.4832 12.2371 16.1162 11.6694 16.7654C11.1017 17.4146 10.5545 18.08 10.0242 18.7617C9.49734 19.4401 8.99086 20.1347 8.50477 20.8424C8.01869 21.55 7.553 22.2706 7.10771 23.0042C6.66582 23.7378 6.24432 24.4811 5.84661 25.2375C5.44891 25.9938 5.0716 26.7598 4.71809 27.5389C4.36797 28.3147 4.03825 29.1002 3.73232 29.8955C3.4264 30.6908 3.14426 31.4925 2.88933 32.304C2.63099 33.1123 2.39644 33.9303 2.18909 34.7515C1.98174 35.576 1.79819 36.4037 1.63843 37.2347C1.48207 38.0689 1.3461 38.9064 1.23732 39.7471C1.12855 40.5878 1.04697 41.4286 0.989183 42.2725C0.931397 43.1197 0.897405 43.9637 0.890607 44.8109C0.883809 45.6581 0.900805 46.5021 0.944994 47.3493C0.989183 48.1932 1.05717 49.0372 1.15234 49.8812C1.24412 50.7219 1.36649 51.5594 1.50926 52.3968C1.65542 53.231 1.82198 54.062 2.01914 54.8865C2.21289 55.7142 2.43044 56.5355 2.67518 57.347C2.91652 58.1617 3.18506 58.97 3.47738 59.7685C3.76971 60.567 4.08584 61.3591 4.42236 62.1413C4.76228 62.9236 5.12599 63.6962 5.5101 64.459C5.8976 65.2186 6.3055 65.9716 6.7372 66.7117C7.1655 67.4518 7.61759 68.1789 8.09347 68.893C8.56596 69.6104 9.06224 70.3116 9.57892 70.9997C10.0956 71.6879 10.6327 72.3598 11.1901 73.0187C11.7476 73.6777 12.3221 74.3204 12.9169 74.9501C13.5118 75.5766 14.127 76.1868 14.7593 76.7809C15.3915 77.3749 16.0408 77.9494 16.707 78.5077C17.3732 79.066 18.0565 79.6049 18.7533 80.1275C19.4535 80.6468 20.1674 81.15 20.8982 81.6304C21.6256 82.114 22.37 82.575 23.1247 83.0164C23.8827 83.4579 24.6509 83.8766 25.4327 84.2759C26.2145 84.6751 27.0065 85.0517 27.8121 85.4087C28.6177 85.7626 29.4301 86.0969 30.2561 86.4085C31.0821 86.7201 31.9149 87.0058 32.7545 87.272C33.5975 87.5381 34.4473 87.7816 35.3039 87.9991C36.1605 88.2198 37.0205 88.4145 37.8907 88.5866C38.7575 88.7586 39.6311 88.9079 40.5081 89.0313C41.3851 89.1546 42.2655 89.2553 43.1458 89.3299C44.0296 89.4078 44.9134 89.4598 45.8006 89.4857C46.6878 89.5149 47.5716 89.5182 48.4588 89.4987C49.346 89.476 50.2297 89.4306 51.1135 89.3624C51.9973 89.2942 52.8777 89.2001 53.7581 89.0832C54.6351 88.9664 55.5087 88.8235 56.3789 88.658C57.249 88.4925 58.1124 88.3042 58.969 88.0932C59.829 87.879 60.6788 87.6452 61.5218 87.3856C62.3682 87.1259 63.201 86.8435 64.0304 86.5384C64.8564 86.2332 65.6756 85.9086 66.4812 85.5581C67.2902 85.2075 68.0856 84.8374 68.8708 84.4447C69.6561 84.0519 70.4277 83.6364 71.1891 83.2015C71.9505 82.7665 72.6983 82.312 73.4292 81.8349C74.1634 81.3577 74.8806 80.8643 75.5842 80.3482C76.2879 79.8321 76.9745 79.2998 77.6475 78.7447C78.3172 78.1929 78.9732 77.6216 79.6089 77.034C80.2479 76.4433 80.8666 75.8395 81.4648 75.2163C82.0665 74.593 82.6477 73.9536 83.212 73.3011C83.7729 72.6454 84.3167 71.9768 84.8368 71.2918C85.3603 70.6069 85.86 69.909 86.3426 69.1982C86.8219 68.4873 87.2808 67.7634 87.7193 67.0266C88.1544 66.2897 88.5691 65.5432 88.96 64.7836C89.3543 64.024 89.7214 63.2547 90.0682 62.4757C90.4149 61.6934 90.7378 60.9079 91.0369 60.1093C91.3326 59.3108 91.608 58.5091 91.8595 57.6943C92.1111 56.8828 92.3354 56.0648 92.536 55.2403C92.7365 54.4158 92.9133 53.5881 93.0662 52.7539C93.2192 51.9197 93.345 51.0822 93.4469 50.2382C93.5455 49.3975 93.6237 48.5568 93.6747 47.7096C93.7257 46.8656 93.7495 46.0184 93.7495 45.1712C93.7529 42.2595 93.4605 39.3771 92.8657 36.5206C92.2742 33.6641 91.3938 30.8888 90.2245 28.2011C89.0586 25.5101 87.6275 22.9555 85.9313 20.534C84.2352 18.1157 82.3078 15.876 80.1493 13.8212ZM77.6747 74.1581C75.3735 76.3556 72.8445 78.2805 70.0878 79.9327L69.3875 53.481C69.3705 53.0201 69.4181 52.5656 69.5337 52.1177C69.6493 51.6697 69.826 51.2445 70.0674 50.8452C70.3053 50.4427 70.5976 50.0824 70.9444 49.7578C71.2911 49.4365 71.6786 49.167 72.1035 48.9463C73.5379 48.1867 74.5033 46.9955 74.3741 45.3725L72.7527 23.7053C72.7221 23.3191 71.9063 23.3418 71.9063 23.7281L71.8553 43.282C71.8553 44.1163 70.2713 44.1227 70.2543 43.2918L69.5507 23.7248C69.5371 23.3288 68.7043 23.3288 68.6907 23.7248L68.429 43.2918C68.4188 43.704 68.0245 43.9118 67.6301 43.9118C67.4296 43.9345 67.2494 43.8858 67.0931 43.7624C66.9367 43.6423 66.8483 43.4865 66.8313 43.2918L66.5662 23.7248C66.5526 23.3288 65.7198 23.3288 65.7062 23.7248L65.006 43.2918C64.9856 44.1227 63.405 44.1163 63.4016 43.282L63.3506 23.7281C63.3506 23.3385 62.5382 23.3191 62.5042 23.7053L60.8862 45.3725C60.7536 46.9955 61.719 48.1867 63.1534 48.9463C63.5783 49.167 63.9658 49.4365 64.3125 49.7578C64.6593 50.0824 64.9516 50.4427 65.1929 50.842C65.4309 51.2445 65.611 51.6697 65.7266 52.1177C65.8388 52.5656 65.8898 53.0201 65.8694 53.481L65.1046 82.4938C60.3525 84.5583 55.3761 85.7561 50.1651 86.0774L50.1991 58.0157C50.1957 57.8274 50.121 57.6651 49.9782 57.5353C49.8354 57.4022 49.6655 57.3373 49.4683 57.3405H48.1902C48.0373 57.3373 47.8911 57.308 47.7517 57.2496C47.6124 57.1944 47.4866 57.1133 47.3812 57.0094C47.2758 56.9055 47.1909 56.7854 47.1331 56.6523C47.0753 56.516 47.0481 56.3764 47.0481 56.2304C47.0481 56.0843 47.0753 55.9447 47.1331 55.8116C47.1909 55.6753 47.2758 55.5552 47.3812 55.4546C47.4866 55.3507 47.6124 55.2695 47.7517 55.2111C47.8911 55.1527 48.0373 55.1235 48.1902 55.1235H48.7273C48.989 55.1235 49.2236 55.0521 49.4343 54.9027C49.6417 54.7534 49.7844 54.5587 49.8558 54.3185C52.8607 44.561 52.2149 19.1025 47.7313 14.5256C46.1575 12.9156 44.3322 14.1426 44.3322 16.2298V86.0677C39.1722 85.7333 34.2366 84.5421 29.5321 82.4938L28.7571 53.1012C28.7401 52.6695 28.7809 52.241 28.8795 51.819C28.9814 51.3971 29.1378 50.9945 29.3486 50.6115C29.5593 50.2285 29.821 49.8779 30.1304 49.5598C30.4363 49.245 30.783 48.969 31.1671 48.7386C31.7042 48.4075 32.2005 48.0277 32.656 47.5992C34.8382 45.5737 36.2421 42.4024 36.2421 38.8285C36.2421 32.6968 32.1087 23.0951 27.0065 23.0951C21.9078 23.0951 17.7709 32.6968 17.7709 38.8285C17.7709 42.3699 19.151 45.5185 21.2993 47.5473C21.7718 47.9952 22.2851 48.3945 22.8459 48.7386C23.23 48.969 23.5767 49.245 23.8861 49.5598C24.192 49.8779 24.4537 50.2285 24.6645 50.6115C24.8786 50.9945 25.035 51.3971 25.1336 51.819C25.2355 52.241 25.2763 52.6695 25.2593 53.1012L24.5489 79.9327C23.298 79.1861 22.0947 78.3811 20.9322 77.5177C19.7697 76.651 18.6547 75.7324 17.5908 74.7586C16.5268 73.7815 15.5207 72.759 14.5655 71.6846C13.6137 70.6134 12.7198 69.4936 11.887 68.3347C11.0542 67.1727 10.2893 65.9749 9.58571 64.7349C8.88208 63.4982 8.24644 62.2322 7.67877 60.9338C7.11451 59.6322 6.61823 58.3111 6.19333 56.9607C5.77183 55.6136 5.42172 54.2471 5.14298 52.8675C4.86765 51.4847 4.6671 50.0922 4.53793 48.6899C4.41216 47.2876 4.36117 45.8821 4.38837 44.4766C4.41216 43.0678 4.51414 41.6655 4.68749 40.2697C4.86425 38.8707 5.11579 37.4879 5.44211 36.1148C5.76843 34.7418 6.16614 33.3882 6.63862 32.0541C7.10771 30.72 7.65158 29.4151 8.26343 28.1361C8.87529 26.854 9.55512 25.6075 10.3029 24.3935C11.0508 23.1827 11.8598 22.0077 12.7334 20.8748C13.6069 19.742 14.5383 18.6546 15.5309 17.6126C16.52 16.5706 17.5636 15.5773 18.6615 14.6392C19.7595 13.7011 20.905 12.8182 22.0981 11.9905C23.2912 11.1628 24.5251 10.4 25.7998 9.69232C27.0745 8.98794 28.3866 8.34847 29.7293 7.77068C31.0753 7.19289 32.4452 6.68652 33.8457 6.24506C35.2461 5.8036 36.6636 5.43031 38.1049 5.12843C39.5427 4.82655 40.9942 4.59609 42.4592 4.43703C43.9243 4.27798 45.3927 4.19033 46.8679 4.17735C48.3398 4.16112 49.8116 4.21955 51.2801 4.34939C52.7451 4.47923 54.2034 4.68048 55.648 4.95315C57.0927 5.22906 58.5203 5.56989 59.931 5.98538C61.3383 6.39762 62.7217 6.88128 64.078 7.42985C65.4343 7.97843 66.76 8.59517 68.0482 9.27359C69.3399 9.952 70.5908 10.6953 71.8009 11.4971C73.0111 12.2989 74.177 13.1591 75.2919 14.0777C76.4102 14.9931 77.4776 15.9636 78.4905 16.9861C79.5035 18.0086 80.4587 19.0765 81.356 20.1932C82.2534 21.3098 83.0896 22.4654 83.8646 23.6631C84.6363 24.8609 85.3433 26.0944 85.9823 27.3636C86.6248 28.6295 87.1958 29.9247 87.6955 31.2491C88.1952 32.5734 88.6235 33.9173 88.977 35.2839C89.3339 36.6504 89.6161 38.03 89.8234 39.4225C90.0274 40.8151 90.1599 42.2173 90.2143 43.6229C90.2721 45.0284 90.2517 46.4339 90.1565 47.8394C90.058 49.2417 89.888 50.6375 89.6432 52.0268C89.3951 53.4128 89.0756 54.7859 88.6813 56.1427C88.287 57.4996 87.8213 58.8304 87.2808 60.1418C86.7438 61.4532 86.1387 62.7321 85.4623 63.9818C84.7858 65.2315 84.0414 66.4456 83.2358 67.6239C82.4302 68.8022 81.56 69.9383 80.632 71.0289C79.7006 72.1228 78.7149 73.1648 77.6747 74.1613V74.1581ZM27.0065 31.2004C25.7318 31.2004 24.5047 32.291 23.7705 33.109C22.4006 34.6282 21.3775 36.6212 20.684 38.4617C20.4631 39.0492 20.2591 39.666 20.0824 40.2957C19.994 39.7341 19.9532 39.1693 19.9532 38.6013C20.0042 36.4979 20.3951 34.4529 21.1191 32.4663C21.7616 30.6291 22.7168 28.636 23.9914 27.1137C24.6781 26.2989 25.8202 25.205 27.0065 25.205C28.1962 25.205 29.335 26.2989 30.0216 27.1137C31.2963 28.636 32.2515 30.6291 32.8939 32.4663C33.6179 34.4529 34.0088 36.4979 34.0632 38.6013C34.0632 39.1693 34.019 39.7341 33.9307 40.2957C33.7539 39.666 33.5499 39.0492 33.329 38.4617C32.639 36.6212 31.6124 34.6282 30.2425 33.109C29.5083 32.291 28.2812 31.2004 27.0065 31.2004Z" fill="#F4C87A"/>
</svg>
