<svg width="204" height="15" viewBox="0 0 204 15" fill="none" xmlns="http://www.w3.org/2000/svg">
<path d="M0.753292 13.2818C0.753292 13.2818 2.59617 8.99652 6.29537 0.418979C6.30882 0.349074 6.44334 0.307129 6.69892 0.307129C6.94777 0.307129 7.08902 0.349074 7.12937 0.418979L12.806 13.2818C13.0346 13.8271 13.2499 14.1416 13.4516 14.2325C13.5391 14.2745 13.5862 14.3444 13.5862 14.4562C13.5862 14.5681 13.5391 14.624 13.4516 14.624H10.4116C10.3376 14.624 10.304 14.582 10.304 14.4842C10.304 14.3723 10.3107 14.3094 10.3309 14.2884C10.3645 14.2745 10.3981 14.2535 10.4385 14.2325C10.4923 14.2185 10.5326 14.1906 10.573 14.1486C10.7882 13.9249 10.8958 13.7222 10.8958 13.5335C10.8958 13.3517 10.8689 13.1909 10.8151 13.0581L9.60448 10.0661H3.55123L2.34059 13.0581C2.30023 13.1909 2.28678 13.2818 2.28678 13.3377V13.4496C2.28678 13.6942 2.39439 13.9249 2.60962 14.1486C2.62307 14.1696 2.67015 14.1976 2.74414 14.2325C2.81139 14.2745 2.85175 14.3444 2.85175 14.4562C2.85175 14.5681 2.81139 14.624 2.74414 14.624H0.107613C0.0336287 14.624 0 14.582 0 14.4842C0 14.3723 0.00672539 14.3094 0.0269033 14.2884C0.060532 14.2745 0.0941624 14.2535 0.134516 14.2325C0.309389 14.1416 0.517888 13.8271 0.753292 13.2818ZM4.14311 8.66795C4.12293 8.68893 4.1162 8.71689 4.1162 8.75184C4.12966 8.77281 4.14983 8.7798 4.17001 8.7798H8.9588C8.97225 8.7798 8.9857 8.77281 8.9857 8.75184C8.99915 8.71689 8.99915 8.68893 8.9857 8.66795L6.5644 3.18728H6.5106L4.14311 8.66795Z" fill="#F4C87A"/>
<path d="M17.976 13.086V1.84507C17.976 1.41864 17.8415 1.06212 17.5725 0.782494C17.5523 0.768511 17.5052 0.74055 17.4379 0.698606C17.364 0.663653 17.3303 0.586755 17.3303 0.474905C17.3303 0.363054 17.364 0.307129 17.4379 0.307129H20.1552C20.2224 0.307129 20.2628 0.363054 20.2628 0.474905C20.2628 0.572775 20.2493 0.6287 20.2359 0.64268C20.2157 0.663653 20.1821 0.684625 20.1283 0.698606C20.0879 0.719578 20.0341 0.768511 19.9668 0.838419C19.8929 0.915316 19.8121 1.05513 19.7247 1.25786C19.6507 1.44661 19.6171 1.64234 19.6171 1.84507V13.1979H25.1861C25.8318 13.1979 26.242 13.128 26.4236 12.9742C26.5312 12.9043 26.612 12.8274 26.6658 12.7505C26.7196 12.6596 26.7599 12.6107 26.8003 12.6107C26.8339 12.6107 26.8877 12.6317 26.9617 12.6666C27.0491 12.6876 27.0962 12.7086 27.0962 12.7225C27.0962 12.7435 27.0491 12.8554 26.9617 13.0581L26.6927 13.7851C26.5985 14.0508 26.538 14.2465 26.5043 14.3723C26.464 14.5052 26.4102 14.589 26.3429 14.624H17.4379C17.364 14.624 17.3303 14.582 17.3303 14.4842C17.3303 14.3723 17.337 14.3094 17.3572 14.2884C17.3909 14.2745 17.4245 14.2535 17.4648 14.2325C17.5186 14.2185 17.5792 14.1696 17.6532 14.0927C17.7204 14.0228 17.7944 13.89 17.8684 13.7012C17.9356 13.4985 17.976 13.2958 17.976 13.086Z" fill="#F4C87A"/>
<path d="M31.4889 13.086V1.84507C31.4889 1.41864 31.3544 1.06212 31.0854 0.782494C31.0652 0.768511 31.0181 0.74055 30.9509 0.698606C30.8769 0.663653 30.8433 0.586755 30.8433 0.474905C30.8433 0.363054 30.8769 0.307129 30.9509 0.307129H33.6681C33.7354 0.307129 33.7757 0.363054 33.7757 0.474905C33.7757 0.572775 33.7623 0.6287 33.7488 0.64268C33.7286 0.663653 33.695 0.684625 33.6412 0.698606C33.6008 0.719578 33.547 0.768511 33.4798 0.838419C33.4058 0.915316 33.3251 1.05513 33.2377 1.25786C33.1637 1.44661 33.13 1.64234 33.13 1.84507V13.1979H38.699C39.3447 13.1979 39.755 13.128 39.9366 12.9742C40.0442 12.9043 40.1249 12.8274 40.1787 12.7505C40.2325 12.6596 40.2729 12.6107 40.3132 12.6107C40.3468 12.6107 40.4007 12.6317 40.4746 12.6666C40.5621 12.6876 40.6092 12.7086 40.6092 12.7225C40.6092 12.7435 40.5621 12.8554 40.4746 13.0581L40.2056 13.7851C40.1114 14.0508 40.0509 14.2465 40.0173 14.3723C39.9769 14.5052 39.9231 14.589 39.8559 14.624H30.9509C30.8769 14.624 30.8433 14.582 30.8433 14.4842C30.8433 14.3723 30.85 14.3094 30.8702 14.2884C30.9038 14.2745 30.9374 14.2535 30.9778 14.2325C31.0316 14.2185 31.0921 14.1696 31.1661 14.0927C31.2334 14.0228 31.3073 13.89 31.3813 13.7012C31.4486 13.4985 31.4889 13.2958 31.4889 13.086Z" fill="#F4C87A"/>
<path d="M51.2545 13.2818C51.2545 13.2818 53.0974 8.99652 56.7966 0.418979C56.81 0.349074 56.9446 0.307129 57.2001 0.307129C57.449 0.307129 57.5902 0.349074 57.6306 0.418979L63.3072 13.2818C63.5359 13.8271 63.7511 14.1416 63.9529 14.2325C64.0403 14.2745 64.0874 14.3444 64.0874 14.4562C64.0874 14.5681 64.0403 14.624 63.9529 14.624H60.9128C60.8388 14.624 60.8052 14.582 60.8052 14.4842C60.8052 14.3723 60.8119 14.3094 60.8321 14.2884C60.8657 14.2745 60.8993 14.2535 60.9397 14.2325C60.9935 14.2185 61.0339 14.1906 61.0742 14.1486C61.2894 13.9249 61.3971 13.7222 61.3971 13.5335C61.3971 13.3517 61.3701 13.1909 61.3163 13.0581L60.1057 10.0661H54.0525L52.8418 13.0581C52.8015 13.1909 52.788 13.2818 52.788 13.3377V13.4496C52.788 13.6942 52.8956 13.9249 53.1108 14.1486C53.1243 14.1696 53.1714 14.1976 53.2454 14.2325C53.3126 14.2745 53.353 14.3444 53.353 14.4562C53.353 14.5681 53.3126 14.624 53.2454 14.624H50.6088C50.5348 14.624 50.5012 14.582 50.5012 14.4842C50.5012 14.3723 50.5079 14.3094 50.5281 14.2884C50.5618 14.2745 50.5954 14.2535 50.6357 14.2325C50.8106 14.1416 51.0191 13.8271 51.2545 13.2818ZM54.6443 8.66795C54.6241 8.68893 54.6174 8.71689 54.6174 8.75184C54.6309 8.77281 54.6511 8.7798 54.6712 8.7798H59.46C59.4735 8.7798 59.4869 8.77281 59.4869 8.75184C59.5004 8.71689 59.5004 8.68893 59.4869 8.66795L57.0656 3.18728H57.0118L54.6443 8.66795Z" fill="#F4C87A"/>
<path d="M72.8316 13.1979C73.2419 13.1979 73.6118 13.1 73.9346 12.8903C74.2709 12.6876 74.5332 12.4918 74.7148 12.3031C75.1251 11.8417 75.3336 11.2825 75.3336 10.6253C75.3336 9.61868 75.0108 8.8567 74.3651 8.3324C73.7329 7.79412 72.8854 7.52149 71.8093 7.52149H70.6793C70.6054 7.52149 70.5717 7.4376 70.5717 7.26982V6.29113C70.5717 6.12335 70.6054 6.03947 70.6793 6.03947H71.8093C72.6836 6.03947 73.3293 5.80178 73.7463 5.31244C74.1566 4.83008 74.3651 4.30578 74.3651 3.74653C74.3651 3.397 74.2978 3.08941 74.1768 2.82377C74.049 2.56511 73.8539 2.33442 73.5849 2.1247C73.3159 1.92197 73.0468 1.80313 72.7778 1.76119L72.5895 1.73322H70.6255C70.4977 1.73322 70.3834 1.78216 70.2758 1.87304C70.1816 1.94993 70.1413 2.05479 70.1413 2.18062V12.7505C70.1413 12.8833 70.1816 12.9952 70.2758 13.086C70.3834 13.1629 70.4977 13.1979 70.6255 13.1979H72.8316ZM72.5088 14.624H67.9621C67.8881 14.624 67.8545 14.582 67.8545 14.4842C67.8545 14.3723 67.8612 14.3094 67.8814 14.2884C67.915 14.2745 67.9487 14.2535 67.989 14.2325C68.0428 14.2185 68.1033 14.1696 68.1773 14.0927C68.2446 14.0228 68.3186 13.89 68.3926 13.7012C68.4598 13.4985 68.5002 13.2958 68.5002 13.086V1.84507C68.5002 1.41864 68.3657 1.06212 68.0966 0.782494C68.0764 0.768511 68.0294 0.74055 67.9621 0.698606C67.8881 0.663653 67.8545 0.586755 67.8545 0.474905C67.8545 0.363054 67.8881 0.307129 67.9621 0.307129H72.4819C72.9459 0.307129 73.3966 0.411989 73.827 0.614718C74.2709 0.803466 74.6476 1.05513 74.957 1.36971C75.6161 2.06178 75.9524 2.80978 75.9524 3.60672C75.9524 4.20792 75.7977 4.71823 75.495 5.14466C75.2058 5.57808 74.7283 6.05345 74.0691 6.57076V6.73853C76.0196 7.57741 77.0016 8.87767 77.0016 10.6253C77.0016 11.5621 76.6048 12.4429 75.8179 13.2818C75.4412 13.6733 74.957 14.0018 74.3651 14.2605C73.7867 14.5052 73.1679 14.624 72.5088 14.624Z" fill="#F4C87A"/>
<path d="M86.3937 13.1424C86.9452 13.3661 87.4833 13.478 88.0079 13.478C89.7969 13.478 91.2228 12.9397 92.2855 11.8561C93.3616 10.7586 93.8997 9.28359 93.8997 7.43806C93.8997 6.8089 93.7383 6.14479 93.4154 5.45271C93.106 4.74665 92.6958 4.10351 92.1779 3.52329C91.6533 2.95006 91.021 2.47469 90.2678 2.0972C89.5145 1.70572 88.6603 1.50998 87.7119 1.50998C86.7569 1.50998 85.8556 1.76164 84.9947 2.26497C84.1473 2.7683 83.4949 3.46736 83.0308 4.36217C82.5801 5.24299 82.3582 6.26363 82.3582 7.43806C82.3582 8.5985 82.7617 9.724 83.5688 10.8215C84.3894 11.9261 85.331 12.695 86.3937 13.1424ZM82.8694 12.723C82.2371 12.0519 81.7394 11.255 81.3628 10.3182C80.9996 9.36748 80.8247 8.40277 80.8247 7.41009C80.8247 6.40344 81.013 5.45271 81.3897 4.55791C81.7798 3.64912 82.3044 2.86617 82.9501 2.20905C83.5957 1.53794 84.349 1.00665 85.2099 0.615178C86.0843 0.209719 86.9587 0 87.8196 0C88.6805 0 89.4741 0.125833 90.2139 0.363514C91.7004 0.831888 92.9312 1.69174 93.8997 2.93607C94.8817 4.1874 95.3794 5.66243 95.3794 7.35417C95.3794 8.36082 95.2045 9.32553 94.8682 10.2343C94.5252 11.1291 94.0409 11.933 93.4154 12.6391C92.7832 13.3521 91.9963 13.9184 91.0479 14.3448C90.0929 14.7503 89.0907 14.96 88.0348 14.96C86.9721 14.96 86.0036 14.7503 85.1292 14.3448C84.2481 13.9394 83.4949 13.3941 82.8694 12.723Z" fill="#F4C87A"/>
<path d="M100.273 1.84507C100.273 1.43961 100.125 1.08309 99.8427 0.782494C99.8225 0.768512 99.7755 0.740551 99.7082 0.698606C99.6342 0.663653 99.6006 0.586755 99.6006 0.474905C99.6006 0.363054 99.6342 0.307129 99.7082 0.307129H102.533C102.6 0.307129 102.641 0.363054 102.641 0.474905C102.641 0.572775 102.62 0.6287 102.587 0.642681C102.567 0.663653 102.533 0.684625 102.479 0.698606C102.439 0.719578 102.385 0.768512 102.318 0.838419C102.244 0.915317 102.17 1.05513 102.103 1.25786C102.029 1.44661 101.995 1.64235 101.995 1.84507V9.0874C101.995 10.4296 102.385 11.4782 103.179 12.2192C103.986 12.9672 104.961 13.3377 106.111 13.3377C106.79 13.3377 107.429 13.163 108.021 12.8064C108.627 12.4359 109.104 11.9606 109.447 11.3803C109.804 10.7861 109.985 10.15 109.985 9.47887V1.84507C109.985 1.41864 109.851 1.06212 109.582 0.782494C109.541 0.768512 109.488 0.740551 109.42 0.698606C109.346 0.663653 109.313 0.586755 109.313 0.474905C109.313 0.363054 109.346 0.307129 109.42 0.307129H112.057C112.124 0.307129 112.164 0.363054 112.164 0.474905C112.164 0.572775 112.144 0.6287 112.111 0.642681C112.09 0.663653 112.057 0.684625 112.003 0.698606C111.963 0.719578 111.909 0.768512 111.842 0.838419C111.768 0.915317 111.687 1.05513 111.599 1.25786C111.525 1.44661 111.492 1.64235 111.492 1.84507V9.47887C111.492 10.4855 111.236 11.4083 110.739 12.2472C110.254 13.0861 109.588 13.7502 108.748 14.2325C107.92 14.6939 107.006 14.9316 106.004 14.9316C104.995 14.9316 104.053 14.6869 103.179 14.2046C102.298 13.7222 101.591 13.0301 101.053 12.1353C100.529 11.2265 100.273 10.2059 100.273 9.0874V1.84507Z" fill="#F4C87A"/>
<path d="M130.157 0.307129C130.225 0.307129 130.278 0.384027 130.319 0.53083C130.352 0.684625 130.426 0.887354 130.534 1.14601C130.534 1.14601 130.622 1.39068 130.803 1.87304C130.87 2.08276 130.911 2.19461 130.911 2.20859C130.911 2.22956 130.864 2.25752 130.776 2.29248C130.702 2.31345 130.655 2.32044 130.642 2.32044C130.588 2.32044 130.534 2.28548 130.48 2.20859C130.426 2.11771 130.326 2.01285 130.184 1.901C130.036 1.78915 129.653 1.73322 129.027 1.73322H124.293V13.086C124.293 13.5195 124.427 13.869 124.696 14.1486C124.71 14.1696 124.757 14.1976 124.831 14.2325C124.898 14.2745 124.938 14.3444 124.938 14.4562C124.938 14.5681 124.898 14.624 124.831 14.624H122.113C122.039 14.624 122.006 14.582 122.006 14.4842C122.006 14.3723 122.012 14.3094 122.033 14.2884C122.066 14.2745 122.1 14.2535 122.14 14.2325C122.194 14.2185 122.248 14.1696 122.302 14.0927C122.369 14.0228 122.443 13.89 122.517 13.7012C122.604 13.4985 122.651 13.2958 122.651 13.086V1.73322H117.916C117.123 1.73322 116.652 1.87304 116.491 2.15266C116.417 2.26451 116.363 2.32044 116.329 2.32044C116.289 2.32044 116.228 2.31345 116.141 2.29248C116.067 2.25752 116.033 2.22956 116.033 2.20859C116.033 2.19461 116.067 2.08276 116.141 1.87304L116.41 1.14601C116.517 0.887354 116.585 0.691615 116.625 0.558793C116.659 0.43296 116.706 0.349074 116.76 0.307129H130.157Z" fill="#F4C87A"/>
<path d="M141.686 14.624C141.612 14.624 141.578 14.582 141.578 14.4842C141.578 14.3723 141.585 14.3094 141.605 14.2884C141.639 14.2745 141.672 14.2535 141.713 14.2325C141.766 14.2185 141.827 14.1696 141.901 14.0927C141.968 14.0228 142.042 13.89 142.116 13.7012C142.183 13.4985 142.224 13.2958 142.224 13.086V1.84507C142.224 1.41864 142.089 1.06212 141.82 0.782494C141.8 0.768511 141.753 0.74055 141.686 0.698606C141.612 0.663653 141.578 0.586755 141.578 0.474905C141.578 0.363054 141.612 0.307129 141.686 0.307129H150.591C150.645 0.307129 150.685 0.384027 150.725 0.53083C150.779 0.684625 150.846 0.887354 150.94 1.14601L151.209 1.87304C151.297 2.08276 151.344 2.19461 151.344 2.20859C151.344 2.22956 151.297 2.25752 151.209 2.29248C151.136 2.31345 151.082 2.32044 151.048 2.32044C151.008 2.32044 150.967 2.28548 150.914 2.20859C150.86 2.11771 150.759 2.01285 150.618 1.901C150.47 1.78915 150.08 1.73322 149.434 1.73322H143.865V6.06743H149.165C149.575 6.06743 149.918 5.92762 150.187 5.64799C150.201 5.61304 150.228 5.55711 150.268 5.48021C150.302 5.41031 150.375 5.36836 150.483 5.36836C150.591 5.36836 150.645 5.41031 150.645 5.48021V8.02481C150.645 8.10171 150.591 8.13666 150.483 8.13666C150.389 8.13666 150.335 8.12967 150.322 8.1087C150.302 8.07375 150.281 8.03879 150.268 7.99685C150.248 7.94093 150.201 7.87801 150.133 7.80111C150.059 7.73121 149.925 7.65431 149.73 7.57741C149.548 7.50751 149.36 7.46556 149.165 7.46556H143.865V13.086C143.865 13.5195 143.999 13.869 144.268 14.1486C144.282 14.1696 144.329 14.1976 144.403 14.2325C144.47 14.2745 144.511 14.3444 144.511 14.4562C144.511 14.5681 144.47 14.624 144.403 14.624H141.686Z" fill="#F4C87A"/>
<path d="M160.718 13.1424C161.27 13.3661 161.808 13.478 162.332 13.478C164.121 13.478 165.547 12.9397 166.61 11.8561C167.686 10.7586 168.224 9.28359 168.224 7.43806C168.224 6.8089 168.063 6.14479 167.74 5.45271C167.431 4.74665 167.02 4.10351 166.502 3.52329C165.978 2.95006 165.346 2.47469 164.592 2.0972C163.839 1.70572 162.985 1.50998 162.036 1.50998C161.081 1.50998 160.18 1.76164 159.319 2.26497C158.472 2.7683 157.819 3.46736 157.355 4.36217C156.905 5.24299 156.683 6.26363 156.683 7.43806C156.683 8.5985 157.086 9.724 157.893 10.8215C158.714 11.9261 159.655 12.695 160.718 13.1424ZM157.194 12.723C156.562 12.0519 156.064 11.255 155.687 10.3182C155.324 9.36748 155.149 8.40277 155.149 7.41009C155.149 6.40344 155.337 5.45271 155.714 4.55791C156.104 3.64912 156.629 2.86617 157.275 2.20905C157.92 1.53794 158.673 1.00665 159.534 0.615178C160.409 0.209719 161.283 0 162.144 0C163.005 0 163.799 0.125833 164.538 0.363514C166.025 0.831888 167.256 1.69174 168.224 2.93607C169.206 4.1874 169.704 5.66243 169.704 7.35417C169.704 8.36082 169.529 9.32553 169.193 10.2343C168.85 11.1291 168.365 11.933 167.74 12.6391C167.108 13.3521 166.321 13.9184 165.372 14.3448C164.417 14.7503 163.415 14.96 162.359 14.96C161.297 14.96 160.328 14.7503 159.454 14.3448C158.573 13.9394 157.819 13.3941 157.194 12.723Z" fill="#F4C87A"/>
<path d="M179.22 13.1424C179.772 13.3661 180.31 13.478 180.835 13.478C182.624 13.478 184.049 12.9397 185.112 11.8561C186.188 10.7586 186.726 9.28359 186.726 7.43806C186.726 6.8089 186.565 6.14479 186.242 5.45271C185.933 4.74665 185.522 4.10351 185.005 3.52329C184.48 2.95006 183.848 2.47469 183.094 2.0972C182.341 1.70572 181.487 1.50998 180.539 1.50998C179.584 1.50998 178.682 1.76164 177.821 2.26497C176.974 2.7683 176.322 3.46736 175.857 4.36217C175.407 5.24299 175.185 6.26363 175.185 7.43806C175.185 8.5985 175.588 9.724 176.396 10.8215C177.216 11.9261 178.158 12.695 179.22 13.1424ZM175.696 12.723C175.064 12.0519 174.566 11.255 174.189 10.3182C173.826 9.36748 173.651 8.40277 173.651 7.41009C173.651 6.40344 173.84 5.45271 174.216 4.55791C174.606 3.64912 175.131 2.86617 175.777 2.20905C176.422 1.53794 177.176 1.00665 178.037 0.615178C178.911 0.209719 179.785 0 180.646 0C181.507 0 182.301 0.125833 183.041 0.363514C184.527 0.831888 185.758 1.69174 186.726 2.93607C187.708 4.1874 188.206 5.66243 188.206 7.35417C188.206 8.36082 188.031 9.32553 187.695 10.2343C187.352 11.1291 186.868 11.933 186.242 12.6391C185.61 13.3521 184.823 13.9184 183.875 14.3448C182.92 14.7503 181.917 14.96 180.861 14.96C179.799 14.96 178.83 14.7503 177.956 14.3448C177.075 13.9394 176.322 13.3941 175.696 12.723Z" fill="#F4C87A"/>
<path d="M196.759 14.624H192.535C192.461 14.624 192.427 14.582 192.427 14.4842C192.427 14.3723 192.434 14.3094 192.454 14.2884C192.488 14.2745 192.521 14.2535 192.562 14.2325C192.616 14.2185 192.676 14.1696 192.75 14.0927C192.817 14.0228 192.891 13.89 192.965 13.7012C193.033 13.4985 193.073 13.2958 193.073 13.086V1.84507C193.073 1.41864 192.938 1.06212 192.669 0.782494C192.649 0.768511 192.602 0.74055 192.535 0.698606C192.461 0.663653 192.427 0.586755 192.427 0.474905C192.427 0.363054 192.461 0.307129 192.535 0.307129H196.355C197.714 0.307129 199.025 0.691615 200.283 1.4536C201.157 2.01285 201.884 2.7958 202.462 3.80246C203.054 4.79513 203.35 5.99752 203.35 7.40964C203.35 8.32541 203.189 9.22022 202.866 10.094C202.543 10.9539 202.092 11.7159 201.521 12.387C200.962 13.0581 200.263 13.6034 199.422 14.0088C198.595 14.4213 197.707 14.624 196.759 14.624ZM194.714 12.9183C194.714 13.142 194.882 13.2538 195.225 13.2538H196.167C198.44 13.2538 200.021 12.4429 200.902 10.8211C201.42 9.89132 201.682 8.75184 201.682 7.40964C201.682 5.7878 201.252 4.4456 200.391 3.38302C199.96 2.86571 199.382 2.45326 198.669 2.15266C197.949 1.85906 197.122 1.70526 196.194 1.70526H194.902C194.849 1.70526 194.801 1.72623 194.768 1.76119C194.727 1.80313 194.714 1.83808 194.714 1.87304V12.9183Z" fill="#F4C87A"/>
</svg>
