<svg width="70" height="63" viewBox="0 0 70 63" fill="none" xmlns="http://www.w3.org/2000/svg">
<path fill-rule="evenodd" clip-rule="evenodd" d="M58.9417 9.37807C58.4758 8.95527 57.9991 8.54873 57.5117 8.15195C57.0208 7.75517 56.519 7.3714 56.0065 7.00063C55.4905 6.63312 54.9672 6.27537 54.4297 5.93388C53.8957 5.58914 53.3474 5.26065 52.7919 4.94843C52.2328 4.63296 51.6665 4.33375 51.0931 4.04754C50.5161 3.76459 49.932 3.49465 49.3371 3.24097C48.7457 2.98404 48.1437 2.74662 47.538 2.52222C46.9287 2.30106 46.3159 2.09291 45.6923 1.90103C45.0723 1.70914 44.4452 1.53352 43.8144 1.37741C43.1801 1.21804 42.5457 1.07494 41.9042 0.948101C41.2627 0.824514 40.6176 0.713936 39.969 0.622871C39.3203 0.531807 38.6716 0.457004 38.0194 0.398463C37.3671 0.339921 36.7113 0.297641 36.0554 0.274875C35.3996 0.248857 34.7473 0.242353 34.0915 0.252109C33.4357 0.261866 32.7798 0.287884 32.124 0.333417C31.4717 0.375696 30.8195 0.43749 30.1672 0.515545C29.5186 0.590348 28.8699 0.687918 28.2248 0.798496C27.5833 0.909074 26.9418 1.03591 26.3074 1.18227C25.6695 1.32537 25.0388 1.48798 24.4116 1.66361C23.7844 1.84248 23.168 2.03437 22.5516 2.24577C21.9388 2.45392 21.3331 2.68158 20.731 2.92225C20.1325 3.16292 19.5412 3.41985 18.957 3.69304C18.3729 3.96299 17.7995 4.24919 17.2332 4.55165C16.6706 4.85412 16.1151 5.16959 15.5703 5.50132C15.022 5.83306 14.488 6.1778 13.9648 6.53556C13.4415 6.89331 12.9291 7.26407 12.4309 7.65109C11.9292 8.03487 11.4418 8.43165 10.9651 8.84469C10.4921 9.25448 10.0298 9.67728 9.58177 10.1098C9.1338 10.5456 8.70016 10.9912 8.27727 11.4465C7.85796 11.9051 7.45299 12.3734 7.06235 12.8515C6.67172 13.3296 6.29541 13.8175 5.93703 14.3151C5.57507 14.8127 5.23102 15.32 4.90489 15.8339C4.57518 16.351 4.26697 16.8746 3.96952 17.4047C3.67564 17.9349 3.39611 18.4748 3.13807 19.0211C2.87645 19.5675 2.63275 20.1204 2.40697 20.6798C2.18119 21.236 1.97333 21.8019 1.78339 22.371C1.59345 22.9402 1.41784 23.5158 1.26373 24.0947C1.10963 24.6736 0.97703 25.2526 0.858764 25.8412C0.740498 26.4266 0.640151 27.012 0.561307 27.604C0.482463 28.1959 0.417953 28.7878 0.378532 29.3797C0.335526 29.9749 0.31044 30.5701 0.303272 31.1652C0.299688 31.7604 0.314023 32.3556 0.346278 32.9507C0.378532 33.5427 0.428705 34.1378 0.496798 34.7298C0.568474 35.3217 0.654486 35.9103 0.762001 36.499C0.869516 37.0844 0.994949 37.6698 1.1383 38.2487C1.28165 38.8309 1.44293 39.4066 1.62212 39.979C1.80489 40.5514 2.002 41.1205 2.21703 41.6799C2.43206 42.2426 2.66859 42.7987 2.91946 43.3484C3.17033 43.898 3.43911 44.4411 3.72223 44.9778C4.00894 45.5144 4.30998 46.0413 4.62894 46.5616C4.9479 47.082 5.28119 47.5926 5.63241 48.0967C5.98362 48.6008 6.34917 49.0919 6.73264 49.5765C7.11611 50.0611 7.51033 50.5327 7.92247 50.9978C8.33461 51.4596 8.76108 51.9117 9.20189 52.354C9.6427 52.7963 10.0978 53.2223 10.5637 53.6419C11.0332 54.0582 11.5135 54.4647 12.0044 54.855C12.499 55.2485 13.0043 55.629 13.5204 55.9933C14.0365 56.3608 14.5669 56.7121 15.1044 57.0503C15.6456 57.3918 16.1939 57.7138 16.753 58.026C17.3121 58.335 17.8819 58.6309 18.4625 58.9106C19.0395 59.1903 19.6272 59.457 20.2221 59.7074C20.817 59.9579 21.4191 60.192 22.0284 60.4099C22.6376 60.6278 23.254 60.8327 23.8776 61.0181C24.5012 61.2035 25.1284 61.3759 25.7627 61.5287C26.397 61.6848 27.035 61.8214 27.6765 61.9418C28.318 62.0621 28.9631 62.1662 29.6117 62.254C30.2604 62.3418 30.9127 62.4133 31.5649 62.4654C32.2208 62.5174 32.873 62.5564 33.5288 62.576C34.1847 62.5955 34.8405 62.5955 35.4964 62.5825C36.1522 62.5662 36.808 62.5369 37.4603 62.4881C38.1125 62.4394 38.7648 62.3743 39.4135 62.2898C40.0657 62.2085 40.7108 62.1076 41.3559 61.9938C41.9974 61.8767 42.6353 61.7434 43.2732 61.5938C43.9076 61.4442 44.5347 61.2783 45.1619 61.0962C45.7855 60.914 46.4019 60.7156 47.0147 60.5042C47.6276 60.2896 48.2332 60.0587 48.8282 59.8115C49.4267 59.5676 50.0144 59.3074 50.5986 59.031C51.1791 58.7545 51.749 58.4618 52.3116 58.1561C52.8743 57.8504 53.4262 57.5316 53.9709 57.1967C54.5121 56.8617 55.0425 56.5137 55.5622 56.1494C56.0854 55.7884 56.5943 55.4111 57.0889 55.0241C57.587 54.6338 58.0708 54.2338 58.5403 53.8175C59.0134 53.4045 59.4721 52.9784 59.9165 52.5426C60.3609 52.1035 60.7909 51.6547 61.2067 51.1962C61.6224 50.7343 62.0238 50.2627 62.4108 49.7814C62.7943 49.3033 63.167 48.8122 63.5218 48.3114C63.8766 47.8105 64.2171 47.3032 64.5396 46.7828C64.8622 46.2657 65.1704 45.7388 65.4607 45.2054C65.7509 44.672 66.0233 44.1322 66.2778 43.5825C66.5358 43.0361 66.7723 42.48 66.9945 41.9206C67.2167 41.3612 67.4174 40.7953 67.6038 40.2229C67.7901 39.6537 67.955 39.0781 68.1055 38.4992C68.2524 37.917 68.385 37.3349 68.4961 36.7494C68.6072 36.1608 68.704 35.5721 68.7757 34.9802C68.8509 34.3915 68.9083 33.7963 68.9477 33.2044C68.9836 32.6093 69.0015 32.0141 69.0015 31.4189C69.0051 29.3732 68.7864 27.3438 68.3492 25.3371C67.9084 23.3272 67.2597 21.3791 66.396 19.4862C65.5323 17.5966 64.4751 15.7981 63.2172 14.0972C61.9628 12.3962 60.5365 10.8221 58.9417 9.37807ZM57.1104 51.7978C55.408 53.3427 53.5373 54.6956 51.4945 55.8567L50.9785 37.26C50.9534 36.5998 51.1182 35.9819 51.4802 35.4062C51.8422 34.8306 52.3475 34.3883 52.989 34.0728C54.0498 33.5394 54.763 32.7003 54.6662 31.5588L53.4692 16.3282C53.4477 16.055 52.842 16.0713 52.842 16.3412L52.8062 30.092C52.8026 30.6774 51.6343 30.6806 51.62 30.0985L51.1003 16.3412C51.0895 16.0615 50.4731 16.0615 50.466 16.3412L50.2689 30.0985C50.2653 30.3879 49.9714 30.5343 49.6775 30.5343C49.5306 30.5506 49.398 30.5148 49.2833 30.4302C49.165 30.3424 49.1005 30.2318 49.0862 30.0985L48.8927 16.3412C48.8819 16.0615 48.2655 16.0615 48.2583 16.3412L47.7351 30.0985C47.7243 30.6806 46.5524 30.6774 46.5524 30.092L46.513 16.3412C46.513 16.0681 45.9109 16.055 45.8894 16.3282L44.6889 31.5588C44.5921 32.7003 45.3053 33.5394 46.3661 34.0728C47.0112 34.3883 47.5129 34.8306 47.8749 35.4062C48.2368 35.9819 48.4053 36.5998 48.3766 37.26L47.8104 57.6585C44.2946 59.1123 40.6105 59.9514 36.7579 60.179L36.7829 40.4473C36.7794 40.314 36.7256 40.2034 36.6217 40.1091C36.5142 40.018 36.3887 39.9725 36.2418 39.9725H35.2957C35.0627 39.9692 34.862 39.8912 34.6972 39.7416C34.5323 39.5887 34.4535 39.4066 34.4535 39.1952C34.4535 38.9805 34.5323 38.7984 34.6972 38.6488C34.862 38.4959 35.0627 38.4179 35.2957 38.4146H35.6935C35.887 38.4179 36.0626 38.3658 36.2167 38.2585C36.3708 38.1544 36.4747 38.0178 36.5285 37.8487C38.7505 30.9896 38.2738 13.0922 34.9588 9.87242C33.7905 8.74061 32.4429 9.60248 32.4429 11.0725V60.1693C28.6226 59.9351 24.9743 59.0993 21.4944 57.6585L20.921 36.9934C20.8923 36.3754 21.0392 35.79 21.3582 35.2436C21.6772 34.694 22.1251 34.2582 22.7057 33.9264C23.0999 33.6923 23.4691 33.4256 23.8059 33.1264C25.4187 31.7019 26.458 29.4708 26.458 26.96C26.458 22.6475 23.3974 15.8957 19.6272 15.8957C15.8535 15.8957 12.7929 22.6475 12.7929 26.96C12.7929 29.448 13.8143 31.6628 15.4019 33.0906C15.7531 33.4028 16.133 33.6825 16.5451 33.9264C17.1257 34.2582 17.5737 34.694 17.8926 35.2436C18.2116 35.79 18.3585 36.3754 18.3335 36.9934L17.8066 55.8567C16.882 55.3331 15.9896 54.7672 15.1295 54.159C14.2694 53.5508 13.4451 52.9036 12.6603 52.2206C11.8718 51.5344 11.1264 50.8156 10.4204 50.0611C9.71796 49.3066 9.05495 48.5195 8.44212 47.7032C7.8257 46.8869 7.25588 46.0445 6.73622 45.1729C6.21657 44.3045 5.74709 43.4134 5.32778 42.4995C4.90848 41.5856 4.54293 40.6554 4.22755 39.709C3.91576 38.7594 3.65414 37.7999 3.44986 36.8275C3.24559 35.8551 3.09865 34.8794 3.00189 33.8907C2.90871 32.9052 2.87287 31.9198 2.89079 30.9278C2.90871 29.9391 2.98397 28.9537 3.11298 27.9715C3.24559 26.9893 3.43194 26.0168 3.67206 25.0509C3.91218 24.085 4.20605 23.1353 4.55726 22.1986C4.90489 21.2587 5.30628 20.3416 5.75784 19.4407C6.21299 18.5398 6.71472 17.6649 7.26663 16.8128C7.81854 15.9575 8.42062 15.1346 9.06571 14.3378C9.71079 13.541 10.4025 12.7735 11.1336 12.0417C11.8682 11.3099 12.6388 10.6139 13.4523 9.95372C14.2622 9.29351 15.1116 8.67232 15.9932 8.09016C16.8748 7.51124 17.7887 6.97136 18.7313 6.47701C19.6774 5.97941 20.645 5.53059 21.6413 5.12406C22.634 4.71752 23.6483 4.35977 24.684 4.0508C25.7197 3.73858 26.7698 3.47839 27.8342 3.26699C28.8986 3.05559 29.9737 2.89298 31.056 2.77915C32.1419 2.66857 33.2278 2.60678 34.3173 2.59702C35.4068 2.58726 36.4962 2.62629 37.5821 2.71735C38.668 2.80842 39.7468 2.95152 40.8147 3.1434C41.8827 3.33529 42.9399 3.57596 43.9828 3.86867C45.0257 4.15812 46.0471 4.49636 47.0506 4.88339C48.0541 5.27041 49.0324 5.70297 49.9893 6.18105C50.9426 6.65914 51.8672 7.17951 52.7632 7.74216C53.6591 8.30806 54.5228 8.91299 55.3471 9.55694C56.175 10.2009 56.9634 10.8839 57.7124 11.6026C58.4615 12.3214 59.1711 13.0727 59.8341 13.8565C60.4971 14.6403 61.1171 15.4566 61.6869 16.299C62.2603 17.1413 62.7835 18.0064 63.2566 18.8976C63.7297 19.7887 64.1526 20.6993 64.5217 21.6295C64.8944 22.5629 65.2098 23.5061 65.4714 24.4655C65.7366 25.4282 65.9445 26.3974 66.095 27.3763C66.2491 28.3552 66.3459 29.3407 66.3889 30.3294C66.4283 31.3181 66.4139 32.3068 66.3423 33.2922C66.2706 34.2809 66.1452 35.2631 65.9624 36.2388C65.7796 37.2145 65.5431 38.1772 65.2528 39.1301C64.9625 40.0863 64.6149 41.023 64.2171 41.9434C63.8193 42.8638 63.3713 43.7646 62.8696 44.6428C62.3714 45.5241 61.8231 46.3762 61.2246 47.2056C60.6261 48.0317 59.9846 48.8317 59.2965 49.5993C58.6084 50.3668 57.8809 51.0986 57.1104 51.8011V51.7978ZM19.6272 21.5937C18.6811 21.5937 17.7744 22.3613 17.2296 22.9369C16.219 24.0069 15.4592 25.4054 14.9467 26.6998C14.7819 27.1129 14.6314 27.5487 14.5024 27.991C14.4378 27.5942 14.4056 27.1974 14.4056 26.7974C14.445 25.3208 14.7317 23.8833 15.2693 22.4881C15.7459 21.1937 16.452 19.7919 17.3945 18.7252C17.9034 18.1495 18.7456 17.382 19.6272 17.382C20.5053 17.382 21.3474 18.1495 21.8563 18.7252C22.7989 19.7919 23.5049 21.1937 23.9816 22.4881C24.5191 23.8833 24.8058 25.3208 24.8453 26.7974C24.8453 27.1974 24.813 27.5942 24.7485 27.991C24.6159 27.5487 24.4654 27.1129 24.3041 26.6998C23.7916 25.4054 23.0318 24.0069 22.0176 22.9369C21.4765 22.3613 20.5698 21.5937 19.6272 21.5937Z" fill="#F4C87A"/>
</svg>
