<svg width="605" height="397" viewBox="0 0 605 397" fill="none" xmlns="http://www.w3.org/2000/svg">
<path d="M465.015 257.551C462.901 257.551 460.701 257.551 458.587 257.551C439.042 257.551 419.412 257.551 399.866 257.551C377.53 257.551 355.191 257.551 332.77 257.551C309.587 257.551 286.402 257.551 263.134 257.551C241.053 257.551 218.884 257.551 196.799 257.551C177.594 257.551 158.47 257.551 139.265 257.551C137.487 257.551 137.487 254.883 139.265 254.883C141.379 254.883 143.578 254.883 145.696 254.883C165.241 254.883 184.871 254.883 204.413 254.883C226.753 254.883 249.089 254.883 271.51 254.883C294.696 254.883 317.878 254.883 341.145 254.883C363.23 254.883 385.399 254.883 407.48 254.883C426.689 254.883 445.81 254.883 465.015 254.883C466.793 254.883 466.793 257.551 465.015 257.551ZM430.663 284.782C410.36 284.782 390.053 284.782 369.828 284.782C354.684 284.782 339.623 284.782 324.479 284.782C311.195 284.782 297.996 284.782 284.712 284.782C269.987 284.782 255.265 284.782 240.628 284.782C221.168 284.782 201.623 284.782 182.162 284.782C179.287 284.782 176.492 284.782 173.617 284.782C171.839 284.782 171.839 287.45 173.617 287.45C193.923 287.45 214.23 287.45 234.452 287.45C249.599 287.45 264.657 287.45 279.804 287.45C293.088 287.45 306.287 287.45 319.571 287.45C334.293 287.45 349.015 287.45 363.651 287.45C383.112 287.45 402.657 287.45 422.117 287.45C424.996 287.45 427.787 287.45 430.663 287.45C432.441 287.45 432.441 284.782 430.663 284.782ZM302.14 331.246C264.742 331.246 229.207 315.489 204.923 288.661H201.283C226.076 317.187 263.134 333.914 302.14 333.914C341.145 333.914 378.207 317.187 402.997 288.661H399.36C375.076 315.489 339.538 331.246 302.14 331.246ZM271.258 316.622C274.219 317.508 277.18 318.317 280.225 318.885C280.31 318.885 280.395 318.804 280.48 318.804C284.117 318.158 287.503 316.944 290.719 315.246C291.48 314.844 292.326 314.438 293.258 315.006C294.019 315.489 294.611 316.217 295.287 316.781C296.64 317.995 297.996 319.206 299.349 320.42C300.532 320.823 300.365 322.923 298.758 323.004C293.173 323.329 287.673 322.923 282.173 321.956C272.526 320.258 263.219 316.944 254.504 312.743C245.958 308.702 237.922 303.69 230.475 298.036C229.207 297.065 230.815 295.367 232.168 295.936H300.447C301.127 295.936 301.548 296.338 301.718 296.822C301.97 297.309 301.97 297.873 301.548 298.357C293.088 306.683 283.104 314.035 271.258 316.622ZM286.826 319.933C289.617 320.258 292.411 320.42 295.287 320.42C295.032 320.177 294.781 320.014 294.526 319.771C294.019 319.287 293.424 318.804 292.918 318.317C292.663 318.077 292.411 317.752 292.071 317.508C291.816 317.671 291.48 317.914 291.31 317.995C290.888 318.236 290.379 318.479 289.957 318.723C289.026 319.125 288.094 319.531 287.163 319.852C286.996 319.852 286.911 319.933 286.826 319.933ZM240.037 298.682H235.805C237.161 299.652 238.599 300.62 240.037 301.59V298.682ZM247.821 298.682H242.742V303.369C243.589 303.934 244.435 304.417 245.367 304.985C246.213 305.469 246.974 305.953 247.821 306.44V298.682ZM257.128 298.682H250.612V307.41C250.612 307.569 250.612 307.65 250.527 307.813C252.644 308.946 254.844 310.075 257.128 311.127V298.682ZM265.843 298.682H259.919V312.419C261.866 313.308 263.811 314.035 265.843 314.844V298.682ZM275.065 312.825C274.98 312.662 274.98 312.5 274.98 312.338V298.682H268.719V314.438C270.833 314.035 272.951 313.552 275.065 312.825ZM283.696 308.864C283.696 308.702 283.611 308.621 283.611 308.459V298.6H277.689V311.773C279.804 310.965 281.748 309.994 283.696 308.864ZM292.918 302.479C292.918 302.398 292.918 302.398 292.918 302.479V298.682H286.402V307.248C288.686 305.794 290.888 304.177 292.918 302.479ZM297.235 298.682H295.709V300.055C296.218 299.571 296.725 299.165 297.235 298.682ZM324.054 318.885C327.1 318.317 330.061 317.508 333.025 316.622C321.179 314.035 311.195 306.683 302.816 298.438C302.31 297.955 302.31 297.39 302.65 296.903C302.816 296.419 303.241 296.013 303.918 296.013H372.197C373.553 295.449 375.161 297.065 373.89 298.117C366.446 303.853 358.406 308.783 349.861 312.825C341.145 316.944 331.838 320.339 322.195 322.033C316.695 323.004 311.195 323.41 305.61 323.085C304.003 323.004 303.833 320.904 305.019 320.498C306.372 319.287 307.725 318.077 309.078 316.863C309.754 316.298 310.349 315.571 311.11 315.087C311.957 314.6 312.803 314.925 313.646 315.327C316.777 317.106 320.247 318.317 323.884 318.885C323.884 318.885 323.969 318.885 324.054 318.885ZM317.538 319.933C317.456 319.933 317.372 319.852 317.202 319.852C316.27 319.531 315.339 319.125 314.411 318.723C313.986 318.479 313.479 318.236 313.055 317.995C312.885 317.914 312.548 317.671 312.293 317.508C312.042 317.752 311.702 318.077 311.447 318.317C310.94 318.804 310.349 319.287 309.839 319.771C309.587 320.014 309.332 320.177 309.078 320.42C311.872 320.42 314.747 320.258 317.538 319.933ZM364.331 301.509C365.769 300.542 367.122 299.652 368.56 298.6H364.331V301.509ZM356.462 306.358C357.309 305.875 358.152 305.388 358.913 304.904C359.759 304.417 360.606 303.853 361.537 303.288V298.6H356.462V306.358ZM347.155 311.127C349.354 310.075 351.554 308.946 353.753 307.813C353.753 307.732 353.668 307.569 353.668 307.41V298.682H347.155V311.127ZM338.44 314.762C340.469 314.035 342.417 313.227 344.361 312.338V298.6H338.44V314.762ZM308.571 298.682H307.048C307.555 299.165 308.065 299.652 308.571 300.055V298.682ZM317.878 298.682H311.362V302.398C311.362 302.398 311.362 302.398 311.362 302.479C313.479 304.177 315.594 305.794 317.878 307.329V298.682ZM326.594 298.682H320.669V308.54C320.669 308.702 320.669 308.864 320.587 308.946C322.531 310.075 324.479 311.046 326.594 311.854V298.682ZM335.646 314.438V298.682H329.384V312.338C329.384 312.5 329.384 312.662 329.299 312.825C331.332 313.552 333.531 314.035 335.646 314.438ZM257.128 131.165C257.128 107.407 277.35 88.0967 302.225 88.0967C327.1 88.0967 347.322 107.407 347.322 131.165C347.322 154.922 327.1 174.236 302.225 174.236C277.35 174.236 257.128 154.922 257.128 131.165ZM258.059 131.165C258.059 154.439 277.856 173.347 302.225 173.347C326.594 173.347 346.394 154.439 346.394 131.165C346.394 107.894 326.594 88.9829 302.225 88.9829C277.856 88.9829 258.059 107.894 258.059 131.165ZM476.861 186.279V188.944H127.503V186.279H141.379C144.934 180.946 148.742 175.771 152.804 170.763C152.804 170.682 152.889 170.682 152.889 170.601C153.055 170.357 153.31 170.198 153.565 170.117C153.732 170.036 153.986 170.036 154.241 170.036H193.753C188.845 164.459 185.208 157.915 183.264 150.884C183.009 150.076 183.515 149.511 184.11 149.349C184.277 149.268 184.531 149.187 184.701 149.187H186.731C186.394 148.943 186.054 148.703 185.799 148.46C184.362 147.005 183.855 144.983 183.94 143.045C184.192 139.569 186.224 136.339 189.27 134.479C191.894 132.862 195.025 132.46 197.985 133.025C197.731 131.489 197.646 129.873 197.815 128.256C198.407 123.894 200.861 119.934 204.838 117.671C208.645 115.571 213.469 115.006 217.531 116.782C222.014 118.723 223.877 124.218 222.521 128.581C221.929 130.6 220.491 132.46 218.544 133.431C216.599 134.398 213.89 134.479 212.201 132.944C210.76 131.571 210.508 129.146 212.031 127.773C213.384 126.64 215.668 126.64 216.854 128.016C217.697 128.983 217.616 130.36 216.854 131.246C217.531 130.925 218.122 130.519 218.544 130.035C220.998 127.448 220.491 122.44 217.782 120.096C215.498 118.155 211.861 118.077 209.07 118.804C206.106 119.612 203.57 121.388 202.129 123.975C198.832 129.47 200.776 136.258 204.923 140.864C207.122 143.289 209.832 145.47 212.962 146.6C216.174 147.814 219.73 147.814 223.116 147.168C230.053 145.71 235.635 141.185 240.968 136.985C240.122 128.419 240.713 119.369 244.014 111.367C242.827 110.478 242.066 109.105 242.066 107.57C242.066 104.905 244.35 102.723 247.144 102.723C249.935 102.723 252.219 104.905 252.219 107.57C252.219 110.238 249.935 112.419 247.144 112.419C246.974 112.419 246.805 112.419 246.55 112.419C246.043 113.63 245.622 114.844 245.282 116.055C242.151 126.802 243.082 138.52 245.958 149.187H253.657C251.373 143.529 250.105 137.469 250.105 131.006C250.105 103.609 273.457 81.3061 302.14 81.3061C330.822 81.3061 354.178 103.609 354.178 131.006C354.178 137.387 352.907 143.529 350.622 149.187H358.321C361.201 138.52 362.129 126.721 358.998 116.055C358.661 114.844 358.152 113.63 357.73 112.419C357.56 112.419 357.39 112.419 357.139 112.419C354.344 112.419 352.06 110.238 352.06 107.57C352.06 104.905 354.344 102.723 357.139 102.723C359.929 102.723 362.214 104.905 362.214 107.57C362.214 109.105 361.452 110.478 360.269 111.367C363.566 119.369 364.161 128.419 363.315 136.985C368.645 141.266 374.23 145.71 381.167 147.168C384.468 147.895 388.105 147.895 391.321 146.6C394.451 145.389 397.157 143.207 399.36 140.864C403.503 136.339 405.366 129.47 402.151 123.975C400.628 121.469 398.088 119.612 395.213 118.804C392.422 118.077 388.782 118.155 386.497 120.096C383.792 122.358 383.282 127.367 385.736 130.035C386.161 130.438 386.752 130.925 387.429 131.246C386.752 130.36 386.667 128.983 387.429 128.016C388.612 126.64 390.896 126.64 392.252 127.773C393.775 129.146 393.52 131.571 392.082 132.944C390.389 134.56 387.765 134.479 385.736 133.431C383.792 132.46 382.35 130.6 381.759 128.581C380.491 124.218 382.35 118.804 386.752 116.782C390.814 115.006 395.634 115.571 399.445 117.671C403.418 119.934 405.873 123.894 406.467 128.256C406.634 129.873 406.634 131.408 406.298 133.025C409.258 132.46 412.389 132.862 415.013 134.479C418.059 136.339 420.088 139.569 420.343 143.045C420.509 144.983 419.918 147.005 418.48 148.46C418.225 148.781 417.889 149.024 417.549 149.187H419.582C419.833 149.187 420.003 149.268 420.173 149.349C420.764 149.589 421.274 150.157 421.019 150.884C419.072 157.915 415.519 164.459 410.526 170.036H450.042C450.293 170.036 450.463 170.036 450.718 170.117C451.055 170.198 451.225 170.357 451.394 170.601C451.394 170.682 451.479 170.682 451.479 170.763C455.456 175.771 459.264 180.946 462.901 186.279H476.861ZM417.804 151.933H410.526C408.497 158.642 405.026 164.784 400.373 170.117H406.889C411.964 164.943 415.689 158.723 417.804 151.933ZM350.201 170.117H354.854C359.929 164.943 363.651 158.723 365.854 151.933H360.439C358.406 158.642 354.939 164.865 350.201 170.117ZM358.576 170.117H363.23C368.305 164.943 372.03 158.723 374.23 151.933H368.815C366.697 158.642 363.23 164.865 358.576 170.117ZM366.952 170.117H371.605C376.684 164.943 380.406 158.723 382.605 151.933H377.105C375.076 158.642 371.605 164.865 366.952 170.117ZM375.328 170.117H379.981C385.059 164.943 388.782 158.723 390.981 151.933H385.566C383.452 158.642 379.981 164.865 375.328 170.117ZM383.622 170.117H388.275C393.35 164.943 397.076 158.723 399.275 151.933H393.86C391.827 158.642 388.36 164.865 383.622 170.117ZM391.997 170.117H396.651C401.729 164.943 405.451 158.723 407.65 151.933H402.235C400.206 158.642 396.736 164.865 391.997 170.117ZM392.167 149.349H409.765C409.173 148.943 408.667 148.378 408.327 147.651C407.395 146.035 407.059 143.853 408.582 142.399C410.105 140.945 412.98 141.429 413.487 143.61C413.912 145.227 412.219 146.6 410.696 146.441C410.696 146.518 410.781 146.518 410.781 146.6C411.372 147.57 412.219 147.732 413.32 147.732C414.418 147.732 415.435 147.651 416.281 146.924C417.974 145.389 417.634 142.802 416.872 140.945C416.111 139.085 414.588 137.469 412.725 136.579C410.526 135.45 407.735 135.368 405.451 136.258C403.418 141.993 398.173 147.086 392.167 149.349ZM361.201 149.349H378.292C372.707 147.489 367.543 143.853 362.975 140.299C362.89 140.62 362.89 140.945 362.805 141.348C362.468 144.016 361.877 146.681 361.201 149.349ZM349.439 151.933C345.969 159.045 340.809 165.267 334.463 170.117H346.56C351.639 164.943 355.361 158.723 357.56 151.933H349.776C349.606 151.933 349.521 151.933 349.439 151.933ZM302.14 178.196C329.299 178.196 351.384 157.107 351.384 131.165C351.384 105.226 329.299 84.1366 302.14 84.1366C274.98 84.1366 252.896 105.226 252.896 131.165C252.896 157.107 274.98 178.196 302.14 178.196ZM246.889 151.933C249.004 158.723 252.811 164.943 257.889 170.117H269.987C263.559 165.267 258.396 159.045 255.014 151.933C254.929 151.933 254.844 151.933 254.759 151.933H246.889ZM216.093 170.117H220.746C216.093 164.865 212.622 158.642 210.593 151.933H205.178C207.207 158.723 211.015 164.943 216.093 170.117ZM202.129 151.933H196.714C198.832 158.723 202.639 164.943 207.714 170.117H212.367C207.629 164.865 204.162 158.642 202.129 151.933ZM224.384 170.117H229.037C224.384 164.865 220.913 158.642 218.884 151.933H213.469C215.583 158.723 219.305 164.943 224.384 170.117ZM232.759 170.117H237.413C232.759 164.865 229.292 158.642 227.259 151.933H221.844C223.959 158.723 227.684 164.943 232.759 170.117ZM241.135 170.117H245.788C241.135 164.865 237.668 158.642 235.635 151.933H230.22C232.338 158.723 236.06 164.943 241.135 170.117ZM249.514 170.117H254.167C249.514 164.865 246.043 158.642 244.014 151.933H238.599C240.713 158.723 244.435 164.943 249.514 170.117ZM225.991 149.349H243.082C242.406 146.681 241.815 144.016 241.475 141.266C241.39 140.945 241.39 140.62 241.305 140.218C236.821 143.772 231.661 147.489 225.991 149.349ZM196.038 147.651C195.616 148.378 195.106 148.862 194.6 149.349H212.201C206.191 147.086 200.946 142.075 198.832 136.095C196.548 135.206 193.753 135.368 191.554 136.42C189.691 137.387 188.169 138.923 187.407 140.783C186.646 142.639 186.309 145.308 188.002 146.762C188.845 147.489 189.861 147.57 190.963 147.57C192.061 147.57 192.907 147.408 193.499 146.441C193.499 146.441 193.584 146.359 193.584 146.278C192.061 146.441 190.453 145.145 190.793 143.448C191.299 141.266 194.178 140.783 195.701 142.237C197.309 143.853 196.969 145.954 196.038 147.651ZM197.476 170.117H203.992C199.338 164.865 195.868 158.642 193.838 151.933H186.561C188.678 158.723 192.401 164.943 197.476 170.117ZM459.6 186.279C458.247 184.257 456.809 182.319 455.372 180.296C455.202 180.378 454.947 180.459 454.695 180.459H341.315C341.06 182.883 338.861 184.743 336.24 184.743C333.446 184.743 331.162 182.559 331.162 179.894C331.162 177.226 333.446 175.044 336.24 175.044C338.27 175.044 340.047 176.177 340.809 177.794H453.509C452.241 176.096 450.97 174.398 449.617 172.701H330.741C330.656 172.701 330.656 172.701 330.571 172.701C322.362 177.794 312.633 180.783 302.14 180.783C291.65 180.783 281.918 177.794 273.712 172.701C273.627 172.701 273.627 172.701 273.542 172.701H154.663C153.395 174.398 152.042 176.096 150.771 177.794H263.474C264.32 176.177 266.013 175.044 268.043 175.044C270.833 175.044 273.118 177.226 273.118 179.894C273.118 182.559 270.833 184.743 268.043 184.743C265.418 184.743 263.219 182.883 262.964 180.459H149.588C149.333 180.459 149.078 180.378 148.911 180.296C147.47 182.238 146.032 184.257 144.679 186.279H459.6ZM302.14 65.0663C364.923 65.0663 417.634 107.488 428.379 166.238H431.173C426.094 137.793 410.611 111.773 387.599 92.784C363.991 73.1456 333.616 62.3981 302.14 62.3981C270.918 62.3981 240.713 73.0645 217.021 92.4594C193.753 111.449 178.185 137.631 173.025 166.238H175.816C186.646 107.57 239.527 65.0663 302.14 65.0663Z" fill="#F4C87A"/>
<path d="M302.317 81.926C273.879 81.926 250.748 104.018 250.748 131.171C250.748 158.327 273.879 180.42 302.317 180.42C330.754 180.42 353.886 158.327 353.886 131.171C353.886 104.018 330.754 81.926 302.317 81.926ZM302.317 178.995C274.705 178.995 252.24 157.542 252.24 131.171C252.24 104.804 274.705 83.351 302.317 83.351C329.928 83.351 352.393 104.804 352.393 131.171C352.393 157.542 329.928 178.995 302.317 178.995Z" fill="#F4C87A"/>
<path fill-rule="evenodd" clip-rule="evenodd" d="M335.149 99.8212C334.524 99.2207 333.878 98.6397 333.215 98.0781C332.556 97.5133 331.876 96.968 331.182 96.4421C330.489 95.9163 329.779 95.4099 329.055 94.923C328.327 94.4329 327.59 93.9654 326.835 93.5207C326.084 93.0728 325.319 92.6476 324.54 92.2418C323.762 91.8361 322.97 91.453 322.171 91.0895C321.369 90.7292 320.557 90.3883 319.734 90.0702C318.911 89.7554 318.082 89.46 317.242 89.1873C316.403 88.9147 315.556 88.6647 314.703 88.4407C313.847 88.2135 312.987 88.0123 312.12 87.8337C311.253 87.6552 310.383 87.4994 309.506 87.3696C308.629 87.2365 307.752 87.1293 306.868 87.0482C305.988 86.9638 305.104 86.9054 304.217 86.8729C303.33 86.8372 302.446 86.8275 301.559 86.8405C300.671 86.8534 299.788 86.8924 298.904 86.9541C298.02 87.0157 297.136 87.1034 296.259 87.2137C295.379 87.3241 294.505 87.4604 293.632 87.6162C292.762 87.7753 291.898 87.9571 291.038 88.1648C290.178 88.3693 289.325 88.5998 288.479 88.8497C287.632 89.1029 286.793 89.3788 285.963 89.6775C285.134 89.9761 284.315 90.2942 283.502 90.6383C282.693 90.9824 281.894 91.3459 281.106 91.7322C280.317 92.1217 279.539 92.5275 278.774 92.9592C278.012 93.3877 277.261 93.8356 276.524 94.3063C275.786 94.7769 275.062 95.2671 274.355 95.7767C273.648 96.2863 272.958 96.8154 272.281 97.364C271.605 97.9126 270.946 98.4774 270.303 99.0617C269.661 99.646 269.039 100.246 268.43 100.863C267.825 101.483 267.237 102.116 266.669 102.765C266.102 103.415 265.554 104.08 265.024 104.762C264.497 105.44 263.991 106.135 263.505 106.842C263.019 107.55 262.553 108.271 262.108 109.004C261.666 109.738 261.244 110.481 260.847 111.237C260.449 111.994 260.072 112.76 259.718 113.539C259.368 114.315 259.038 115.1 258.732 115.895C258.426 116.691 258.144 117.493 257.889 118.304C257.631 119.112 257.396 119.93 257.189 120.752C256.982 121.576 256.798 122.404 256.638 123.235C256.482 124.069 256.346 124.906 256.237 125.747C256.129 126.588 256.047 127.429 255.989 128.273C255.931 129.12 255.897 129.964 255.891 130.811C255.884 131.658 255.901 132.502 255.945 133.349C255.989 134.193 256.057 135.037 256.152 135.881C256.244 136.722 256.366 137.559 256.509 138.397C256.655 139.231 256.822 140.062 257.019 140.887C257.213 141.714 257.43 142.535 257.675 143.347C257.917 144.162 258.185 144.97 258.477 145.769C258.77 146.567 259.086 147.359 259.422 148.141C259.762 148.924 260.126 149.696 260.51 150.459C260.898 151.219 261.306 151.972 261.737 152.712C262.165 153.452 262.618 154.179 263.093 154.893C263.566 155.61 264.062 156.312 264.579 157C265.096 157.688 265.633 158.36 266.19 159.019C266.748 159.678 267.322 160.32 267.917 160.95C268.512 161.577 269.127 162.187 269.759 162.781C270.392 163.375 271.041 163.949 271.707 164.508C272.373 165.066 273.056 165.605 273.753 166.127C274.454 166.647 275.167 167.15 275.898 167.63C276.626 168.114 277.37 168.575 278.125 169.016C278.883 169.458 279.651 169.877 280.433 170.276C281.215 170.675 282.007 171.052 282.812 171.409C283.618 171.763 284.43 172.097 285.256 172.409C286.082 172.72 286.915 173.006 287.755 173.272C288.598 173.538 289.447 173.782 290.304 173.999C291.161 174.22 292.021 174.415 292.891 174.587C293.757 174.759 294.631 174.908 295.508 175.031C296.385 175.155 297.265 175.255 298.146 175.33C299.03 175.408 299.913 175.46 300.801 175.486C301.688 175.515 302.572 175.518 303.459 175.499C304.346 175.476 305.23 175.431 306.114 175.362C306.997 175.294 307.878 175.2 308.758 175.083C309.635 174.966 310.509 174.824 311.379 174.658C312.249 174.492 313.112 174.304 313.969 174.093C314.829 173.879 315.679 173.645 316.522 173.386C317.368 173.126 318.201 172.843 319.03 172.538C319.856 172.233 320.676 171.909 321.481 171.558C322.29 171.207 323.086 170.837 323.871 170.445C324.656 170.052 325.428 169.636 326.189 169.201C326.951 168.766 327.698 168.312 328.429 167.835C329.163 167.358 329.881 166.864 330.584 166.348C331.288 165.832 331.974 165.3 332.648 164.745C333.317 164.193 333.973 163.622 334.609 163.034C335.248 162.443 335.867 161.84 336.465 161.216C337.066 160.593 337.648 159.954 338.212 159.301C338.773 158.645 339.317 157.977 339.837 157.292C340.36 156.607 340.86 155.909 341.343 155.198C341.822 154.487 342.281 153.763 342.719 153.027C343.154 152.29 343.569 151.543 343.96 150.784C344.354 150.024 344.721 149.255 345.068 148.476C345.415 147.693 345.738 146.908 346.037 146.109C346.333 145.311 346.608 144.509 346.86 143.694C347.111 142.883 347.335 142.065 347.536 141.24C347.737 140.416 347.913 139.588 348.066 138.754C348.219 137.92 348.345 137.082 348.447 136.238C348.546 135.398 348.624 134.557 348.675 133.71C348.726 132.866 348.749 132.018 348.749 131.171C348.753 128.26 348.461 125.377 347.866 122.521C347.274 119.664 346.394 116.889 345.225 114.201C344.059 111.51 342.628 108.956 340.931 106.534C339.235 104.116 337.308 101.876 335.149 99.8212ZM332.675 160.158C330.373 162.356 327.844 164.281 325.088 165.933L324.388 139.481C324.371 139.02 324.418 138.566 324.534 138.118C324.649 137.67 324.826 137.244 325.067 136.845C325.305 136.443 325.598 136.082 325.944 135.758C326.291 135.436 326.679 135.167 327.103 134.946C328.538 134.187 329.503 132.995 329.374 131.372L327.753 109.705C327.722 109.319 326.906 109.342 326.906 109.728L326.855 129.282C326.855 130.116 325.271 130.123 325.254 129.292L324.551 109.725C324.537 109.329 323.704 109.329 323.691 109.725L323.429 129.292C323.419 129.704 323.024 129.912 322.63 129.912C322.43 129.934 322.249 129.886 322.093 129.762C321.937 129.642 321.848 129.487 321.831 129.292L321.566 109.725C321.553 109.329 320.72 109.329 320.706 109.725L320.006 129.292C319.986 130.123 318.405 130.116 318.402 129.282L318.351 109.728C318.351 109.339 317.538 109.319 317.504 109.705L315.886 131.372C315.754 132.995 316.719 134.187 318.153 134.946C318.578 135.167 318.966 135.436 319.313 135.758C319.659 136.082 319.952 136.443 320.193 136.842C320.431 137.244 320.611 137.67 320.727 138.118C320.839 138.566 320.89 139.02 320.869 139.481L320.105 168.494C315.352 170.558 310.376 171.756 305.165 172.077L305.199 144.016C305.196 143.827 305.121 143.665 304.978 143.535C304.835 143.402 304.665 143.337 304.468 143.34H303.19C303.037 143.337 302.891 143.308 302.752 143.25C302.612 143.194 302.487 143.113 302.381 143.009C302.276 142.906 302.191 142.785 302.133 142.652C302.075 142.516 302.048 142.376 302.048 142.23C302.048 142.084 302.075 141.945 302.133 141.812C302.191 141.675 302.276 141.555 302.381 141.455C302.487 141.351 302.612 141.27 302.752 141.211C302.891 141.153 303.037 141.123 303.19 141.123H303.727C303.989 141.123 304.224 141.052 304.434 140.903C304.642 140.753 304.784 140.559 304.856 140.318C307.861 130.561 307.215 105.103 302.731 100.526C301.158 98.9156 299.332 100.143 299.332 102.23V172.068C294.172 171.733 289.237 170.542 284.532 168.494L283.757 139.101C283.74 138.669 283.781 138.241 283.879 137.819C283.981 137.397 284.138 136.995 284.349 136.612C284.559 136.228 284.821 135.878 285.13 135.56C285.436 135.245 285.783 134.969 286.167 134.739C286.704 134.407 287.2 134.028 287.656 133.599C289.838 131.574 291.242 128.402 291.242 124.829C291.242 118.697 287.109 109.095 282.007 109.095C276.908 109.095 272.771 118.697 272.771 124.829C272.771 128.37 274.151 131.519 276.299 133.547C276.772 133.995 277.285 134.394 277.846 134.739C278.23 134.969 278.577 135.245 278.886 135.56C279.192 135.878 279.454 136.228 279.664 136.612C279.879 136.995 280.035 137.397 280.134 137.819C280.236 138.241 280.276 138.669 280.259 139.101L279.549 165.933C278.298 165.186 277.095 164.381 275.932 163.518C274.77 162.651 273.655 161.732 272.591 160.759C271.527 159.782 270.521 158.759 269.566 157.685C268.614 156.613 267.72 155.494 266.887 154.335C266.054 153.173 265.289 151.975 264.586 150.735C263.882 149.498 263.246 148.232 262.679 146.934C262.115 145.632 261.618 144.311 261.193 142.961C260.772 141.614 260.422 140.247 260.143 138.867C259.868 137.485 259.667 136.092 259.538 134.69C259.412 133.288 259.361 131.882 259.388 130.477C259.412 129.068 259.514 127.666 259.687 126.27C259.864 124.871 260.116 123.488 260.442 122.115C260.768 120.742 261.166 119.388 261.639 118.054C262.108 116.72 262.652 115.415 263.263 114.136C263.875 112.854 264.555 111.608 265.303 110.393C266.051 109.183 266.86 108.008 267.733 106.875C268.607 105.742 269.538 104.655 270.531 103.613C271.52 102.571 272.564 101.577 273.662 100.639C274.759 99.7011 275.905 98.8182 277.098 97.9905C278.291 97.1628 279.525 96.4 280.8 95.6923C282.075 94.9879 283.387 94.3485 284.729 93.7707C286.075 93.1929 287.445 92.6865 288.846 92.2451C290.246 91.8036 291.664 91.4303 293.105 91.1284C294.543 90.8266 295.994 90.5961 297.459 90.437C298.924 90.278 300.393 90.1903 301.868 90.1774C303.34 90.1611 304.812 90.2195 306.28 90.3494C307.745 90.4792 309.203 90.6805 310.648 90.9531C312.093 91.2291 313.52 91.5699 314.931 91.9854C316.338 92.3976 317.722 92.8813 319.078 93.4299C320.434 93.9784 321.76 94.5952 323.048 95.2736C324.34 95.952 325.591 96.6953 326.801 97.4971C328.011 98.2989 329.177 99.1591 330.292 100.078C331.41 100.993 332.478 101.964 333.491 102.986C334.503 104.009 335.459 105.077 336.356 106.193C337.253 107.31 338.09 108.465 338.865 109.663C339.636 110.861 340.343 112.094 340.982 113.364C341.625 114.63 342.196 115.925 342.696 117.249C343.195 118.573 343.623 119.917 343.977 121.284C344.334 122.65 344.616 124.03 344.823 125.423C345.027 126.815 345.16 128.217 345.214 129.623C345.272 131.028 345.252 132.434 345.157 133.839C345.058 135.242 344.888 136.637 344.643 138.027C344.395 139.413 344.076 140.786 343.681 142.143C343.287 143.5 342.821 144.83 342.281 146.142C341.744 147.453 341.139 148.732 340.462 149.982C339.786 151.232 339.041 152.446 338.236 153.624C337.43 154.802 336.56 155.938 335.632 157.029C334.701 158.123 333.715 159.165 332.675 160.161V160.158ZM282.007 117.2C280.732 117.2 279.505 118.291 278.771 119.109C277.401 120.628 276.377 122.621 275.684 124.462C275.463 125.049 275.259 125.666 275.082 126.296C274.994 125.734 274.953 125.169 274.953 124.601C275.004 122.498 275.395 120.453 276.119 118.466C276.762 116.629 277.717 114.636 278.991 113.114C279.678 112.299 280.82 111.205 282.007 111.205C283.196 111.205 284.335 112.299 285.022 113.114C286.296 114.636 287.251 116.629 287.894 118.466C288.618 120.453 289.009 122.498 289.063 124.601C289.063 125.169 289.019 125.734 288.931 126.296C288.754 125.666 288.55 125.049 288.329 124.462C287.639 122.621 286.612 120.628 285.243 119.109C284.508 118.291 283.281 117.2 282.007 117.2Z" fill="#F4C87A"/>
<path d="M126.552 234.524C126.688 234.524 126.756 234.609 126.756 234.771C126.756 234.927 126.688 235.005 126.552 235.005C125.988 235.005 125.114 234.979 123.928 234.927C122.684 234.875 121.796 234.849 121.263 234.849C120.563 234.849 119.706 234.875 118.693 234.927C117.731 234.979 116.97 235.005 116.409 235.005C116.3 235.005 116.246 234.927 116.246 234.771C116.246 234.609 116.3 234.524 116.409 234.524C117.143 234.524 117.666 234.453 117.986 234.303C118.312 234.157 118.475 233.894 118.475 233.511C118.475 233.054 118.193 232.288 117.632 231.213L114.764 225.76H104.376L102.717 229.279C102.353 230.058 102.173 230.785 102.173 231.46C102.173 232.421 102.53 233.174 103.247 233.719C103.961 234.258 104.926 234.524 106.143 234.524C106.286 234.524 106.361 234.609 106.361 234.771C106.361 234.927 106.286 235.005 106.143 235.005C105.633 235.005 104.899 234.979 103.941 234.927C102.87 234.875 101.942 234.849 101.153 234.849C100.399 234.849 99.4842 234.875 98.4067 234.927C97.4549 234.979 96.6833 235.005 96.0952 235.005C95.9796 235.005 95.9185 234.927 95.9185 234.771C95.9185 234.609 95.9796 234.524 96.0952 234.524C96.8838 234.524 97.5433 234.368 98.0803 234.057C98.614 233.745 99.1477 233.197 99.6848 232.408C100.218 231.612 100.847 230.434 101.575 228.876L110.752 209.634C110.807 209.549 110.933 209.504 111.133 209.504C111.358 209.504 111.487 209.549 111.514 209.634L122.065 229.473C123.051 231.389 123.867 232.706 124.512 233.433C125.165 234.161 125.845 234.524 126.552 234.524ZM104.919 224.643H114.124L109.27 215.438L104.919 224.643Z" fill="#F4C87A"/>
<path d="M139.724 231.577C139.724 232.278 139.778 232.784 139.887 233.096C140.002 233.401 140.22 233.609 140.539 233.719C140.866 233.823 141.396 233.875 142.13 233.875H143.572C145.764 233.875 147.664 233.317 149.269 232.2C150.873 231.083 151.94 229.574 152.477 227.669C152.477 227.61 152.535 227.578 152.654 227.578C152.709 227.578 152.766 227.6 152.831 227.643C152.902 227.688 152.94 227.721 152.94 227.746C152.685 230.405 152.559 232.622 152.559 234.394C152.559 234.612 152.508 234.768 152.409 234.862C152.318 234.959 152.158 235.005 151.933 235.005H131.987C131.933 235.005 131.906 234.927 131.906 234.771C131.906 234.609 131.933 234.524 131.987 234.524C132.891 234.524 133.551 234.459 133.959 234.329C134.367 234.193 134.645 233.927 134.802 233.537C134.955 233.148 135.033 232.547 135.033 231.733V213.062C135.033 212.257 134.955 211.669 134.802 211.296C134.645 210.916 134.356 210.653 133.931 210.504C133.513 210.348 132.864 210.27 131.987 210.27C131.933 210.27 131.906 210.192 131.906 210.036C131.906 209.874 131.933 209.79 131.987 209.79L134.149 209.829C135.444 209.88 136.515 209.906 137.358 209.906C138.201 209.906 139.268 209.88 140.567 209.829L142.715 209.79C142.803 209.79 142.851 209.874 142.851 210.036C142.851 210.192 142.803 210.27 142.715 210.27C141.845 210.27 141.195 210.348 140.771 210.504C140.352 210.653 140.07 210.919 139.928 211.309C139.792 211.698 139.724 212.295 139.724 213.1V231.577Z" fill="#F4C87A"/>
<path d="M166.966 231.577C166.966 232.278 167.02 232.784 167.129 233.096C167.244 233.401 167.462 233.609 167.781 233.719C168.108 233.823 168.638 233.875 169.372 233.875H170.813C173.006 233.875 174.906 233.317 176.51 232.2C178.115 231.083 179.182 229.574 179.719 227.669C179.719 227.61 179.777 227.578 179.896 227.578C179.95 227.578 180.008 227.6 180.073 227.643C180.144 227.688 180.182 227.721 180.182 227.746C179.927 230.405 179.801 232.622 179.801 234.394C179.801 234.612 179.75 234.768 179.651 234.862C179.56 234.959 179.4 235.005 179.175 235.005H159.229C159.175 235.005 159.147 234.927 159.147 234.771C159.147 234.609 159.175 234.524 159.229 234.524C160.133 234.524 160.793 234.459 161.201 234.329C161.608 234.193 161.887 233.927 162.044 233.537C162.197 233.148 162.275 232.547 162.275 231.733V213.062C162.275 212.257 162.197 211.669 162.044 211.296C161.887 210.916 161.598 210.653 161.173 210.504C160.755 210.348 160.106 210.27 159.229 210.27C159.175 210.27 159.147 210.192 159.147 210.036C159.147 209.874 159.175 209.79 159.229 209.79L161.391 209.829C162.686 209.88 163.757 209.906 164.6 209.906C165.443 209.906 166.51 209.88 167.809 209.829L169.957 209.79C170.045 209.79 170.093 209.874 170.093 210.036C170.093 210.192 170.045 210.27 169.957 210.27C169.087 210.27 168.437 210.348 168.013 210.504C167.594 210.653 167.312 210.919 167.17 211.309C167.034 211.698 166.966 212.295 166.966 213.1V231.577Z" fill="#F4C87A"/>
<path d="M229.608 234.524C229.744 234.524 229.812 234.609 229.812 234.771C229.812 234.927 229.744 235.005 229.608 235.005C229.044 235.005 228.17 234.979 226.984 234.927C225.74 234.875 224.853 234.849 224.319 234.849C223.619 234.849 222.762 234.875 221.749 234.927C220.787 234.979 220.026 235.005 219.465 235.005C219.356 235.005 219.302 234.927 219.302 234.771C219.302 234.609 219.356 234.524 219.465 234.524C220.199 234.524 220.723 234.453 221.042 234.303C221.368 234.157 221.532 233.894 221.532 233.511C221.532 233.054 221.249 232.288 220.689 231.213L217.82 225.76H207.432L205.773 229.279C205.409 230.058 205.229 230.785 205.229 231.46C205.229 232.421 205.586 233.174 206.303 233.719C207.017 234.258 207.982 234.524 209.199 234.524C209.342 234.524 209.417 234.609 209.417 234.771C209.417 234.927 209.342 235.005 209.199 235.005C208.689 235.005 207.955 234.979 206.997 234.927C205.926 234.875 204.998 234.849 204.209 234.849C203.455 234.849 202.54 234.875 201.463 234.927C200.511 234.979 199.739 235.005 199.151 235.005C199.036 235.005 198.975 234.927 198.975 234.771C198.975 234.609 199.036 234.524 199.151 234.524C199.94 234.524 200.599 234.368 201.136 234.057C201.67 233.745 202.204 233.197 202.741 232.408C203.275 231.612 203.903 230.434 204.631 228.876L213.809 209.634C213.863 209.549 213.989 209.504 214.189 209.504C214.414 209.504 214.543 209.549 214.57 209.634L225.121 229.473C226.107 231.389 226.923 232.706 227.569 233.433C228.221 234.161 228.901 234.524 229.608 234.524ZM207.976 224.643H217.181L212.327 215.438L207.976 224.643Z" fill="#F4C87A"/>
<path d="M248.993 220.839C251.359 221.118 253.235 221.874 254.622 223.111C256.016 224.341 256.716 225.874 256.716 227.708C256.716 229.103 256.295 230.366 255.452 231.499C254.609 232.625 253.439 233.518 251.944 234.174C250.448 234.833 248.782 235.16 246.954 235.16C246.165 235.16 245.268 235.121 244.261 235.044C243.86 235.018 243.371 234.992 242.793 234.966C242.222 234.94 241.583 234.927 240.876 234.927L237.789 234.966C237.225 234.992 236.464 235.005 235.505 235.005C235.424 235.005 235.383 234.927 235.383 234.771C235.383 234.609 235.424 234.524 235.505 234.524C236.321 234.524 236.94 234.453 237.368 234.303C237.793 234.157 238.095 233.888 238.279 233.498C238.459 233.102 238.551 232.512 238.551 231.733V213.062C238.551 211.929 238.35 211.179 237.953 210.815C237.562 210.452 236.759 210.27 235.546 210.27C235.492 210.27 235.464 210.192 235.464 210.036C235.464 209.874 235.492 209.79 235.546 209.79L237.789 209.829C239.085 209.88 240.114 209.906 240.876 209.906C241.665 209.906 242.48 209.867 243.323 209.79C243.602 209.764 244.024 209.738 244.588 209.712C245.159 209.686 245.652 209.673 246.07 209.673C248.633 209.673 250.618 210.121 252.025 211.01C253.439 211.893 254.146 213.185 254.146 214.879C254.146 216.171 253.701 217.34 252.814 218.385C251.923 219.433 250.652 220.251 248.993 220.839ZM245.444 210.556C244.618 210.556 244.051 210.737 243.745 211.101C243.435 211.465 243.283 212.146 243.283 213.139V220.8L244.969 220.839C246.437 220.839 247.565 220.316 248.354 219.268C249.143 218.223 249.537 216.879 249.537 215.243C249.537 213.704 249.183 212.539 248.476 211.75C247.776 210.955 246.767 210.556 245.444 210.556ZM246.247 234.161C249.935 234.161 251.78 232.33 251.78 228.668C251.78 226.601 251.257 224.961 250.217 223.747C249.173 222.537 247.596 221.93 245.485 221.93C244.669 221.93 243.935 221.962 243.283 222.021V231.733C243.283 232.625 243.463 233.252 243.826 233.615C244.197 233.979 245.002 234.161 246.247 234.161Z" fill="#F4C87A"/>
<path d="M278.592 235.485C275.971 235.485 273.643 234.901 271.603 233.732C269.564 232.564 267.987 230.98 266.872 228.98C265.757 226.974 265.199 224.786 265.199 222.423C265.199 219.654 265.927 217.281 267.388 215.308C268.857 213.328 270.736 211.838 273.031 210.841C275.332 209.848 277.681 209.348 280.074 209.348C282.746 209.348 285.095 209.945 287.117 211.14C289.146 212.334 290.707 213.915 291.794 215.879C292.882 217.846 293.426 219.93 293.426 222.137C293.426 224.588 292.746 226.834 291.387 228.876C290.034 230.921 288.225 232.534 285.961 233.719C283.694 234.897 281.237 235.485 278.592 235.485ZM279.992 234.485C281.57 234.485 282.984 234.05 284.235 233.174C285.486 232.301 286.465 231.025 287.172 229.344C287.879 227.656 288.232 225.643 288.232 223.306C288.232 220.833 287.838 218.619 287.049 216.671C286.261 214.724 285.118 213.201 283.623 212.101C282.127 210.994 280.38 210.439 278.388 210.439C275.822 210.439 273.847 211.361 272.46 213.204C271.08 215.042 270.393 217.616 270.393 220.93C270.393 223.536 270.808 225.87 271.644 227.928C272.477 229.98 273.619 231.587 275.07 232.745C276.518 233.907 278.16 234.485 279.992 234.485Z" fill="#F4C87A"/>
<path d="M323.829 214.957C323.829 213.503 323.482 212.36 322.795 211.529C322.105 210.692 321.14 210.27 319.899 210.27C319.845 210.27 319.817 210.192 319.817 210.036C319.817 209.874 319.845 209.79 319.899 209.79L321.925 209.829C322.992 209.88 323.856 209.906 324.508 209.906C325.042 209.906 325.817 209.88 326.833 209.829L328.778 209.79C328.832 209.79 328.859 209.874 328.859 210.036C328.859 210.192 328.832 210.27 328.778 210.27C327.67 210.27 326.81 210.692 326.194 211.529C325.576 212.36 325.27 213.503 325.27 214.957V226.175C325.27 228.055 324.828 229.707 323.951 231.135C323.081 232.557 321.847 233.651 320.253 234.42C318.665 235.18 316.83 235.563 314.746 235.563C312.659 235.563 310.816 235.19 309.212 234.446C307.608 233.693 306.347 232.599 305.432 231.161C304.514 229.717 304.059 228.026 304.059 226.085V213.062C304.059 212.257 303.981 211.669 303.828 211.296C303.671 210.916 303.393 210.653 302.985 210.504C302.577 210.348 301.931 210.27 301.054 210.27C300.972 210.27 300.932 210.192 300.932 210.036C300.932 209.874 300.972 209.79 301.054 209.79L303.297 209.829C304.593 209.88 305.623 209.906 306.384 209.906C307.227 209.906 308.294 209.88 309.593 209.829L311.741 209.79C311.829 209.79 311.877 209.874 311.877 210.036C311.877 210.192 311.829 210.27 311.741 210.27C310.871 210.27 310.232 210.354 309.824 210.517C309.416 210.682 309.134 210.958 308.981 211.348C308.825 211.737 308.75 212.334 308.75 213.139V224.682C308.75 227.876 309.409 230.246 310.735 231.785C312.057 233.317 313.93 234.083 316.35 234.083C318.689 234.083 320.518 233.404 321.843 232.044C323.166 230.687 323.829 228.743 323.829 226.214V214.957Z" fill="#F4C87A"/>
<path d="M343.005 210.724C339.65 210.724 337.24 212.808 335.771 216.97C335.744 217.048 335.656 217.083 335.513 217.074C335.377 217.057 335.309 217.009 335.309 216.931C335.425 215.86 335.554 214.47 335.69 212.763C335.833 211.049 335.907 209.764 335.907 208.907C335.907 208.77 335.982 208.699 336.138 208.699C336.291 208.699 336.37 208.77 336.37 208.907C336.37 209.497 337.172 209.79 338.776 209.79C341.196 209.867 344.028 209.906 347.274 209.906C348.933 209.906 350.69 209.88 352.55 209.828L355.419 209.79C356.486 209.79 357.268 209.725 357.757 209.595C358.254 209.458 358.576 209.186 358.723 208.777C358.75 208.673 358.838 208.621 358.995 208.621C359.148 208.621 359.226 208.673 359.226 208.777C359.144 209.592 359.052 210.887 358.954 212.659C358.852 214.435 358.804 215.86 358.804 216.931C358.804 217.009 358.729 217.048 358.587 217.048C358.451 217.048 358.369 217.009 358.342 216.931C357.914 214.863 357.122 213.315 355.963 212.282C354.81 211.244 353.393 210.724 351.707 210.724C350.891 210.724 350.347 210.893 350.075 211.231C349.81 211.562 349.681 212.198 349.681 213.139V231.733C349.681 232.573 349.762 233.184 349.926 233.563C350.096 233.937 350.422 234.193 350.905 234.329C351.384 234.459 352.145 234.524 353.189 234.524C353.27 234.524 353.311 234.609 353.311 234.771C353.311 234.927 353.27 235.005 353.189 235.005C352.172 235.005 351.367 234.992 350.769 234.966L347.274 234.927L343.848 234.966C343.256 234.992 342.441 235.005 341.4 235.005C341.309 235.005 341.264 234.927 341.264 234.771C341.264 234.609 341.309 234.524 341.4 234.524C342.413 234.524 343.168 234.459 343.657 234.329C344.147 234.193 344.48 233.927 344.664 233.537C344.854 233.148 344.949 232.547 344.949 231.733V213.062C344.949 212.146 344.82 211.526 344.568 211.205C344.314 210.887 343.793 210.724 343.005 210.724Z" fill="#F4C87A"/>
<path d="M399.262 215.516C399.262 215.577 399.184 215.619 399.031 215.645C398.875 215.671 398.786 215.642 398.759 215.554C398.303 213.996 397.542 212.841 396.475 212.088C395.404 211.335 393.993 210.958 392.246 210.958H390.982C390.139 210.958 389.517 211.137 389.119 211.49C388.728 211.838 388.534 212.373 388.534 213.1V221.813H391.58C393.212 221.813 394.452 221.54 395.305 220.995C396.165 220.443 396.597 219.68 396.597 218.71C396.597 218.658 396.682 218.632 396.855 218.632C397.025 218.632 397.114 218.658 397.114 218.71L397.059 222.384C397.059 223.241 397.076 223.887 397.114 224.319L397.155 226.448C397.155 226.536 397.066 226.578 396.896 226.578C396.723 226.578 396.638 226.536 396.638 226.448C396.638 225.377 396.193 224.523 395.305 223.89C394.425 223.26 393.164 222.942 391.526 222.942H388.534V231.577C388.534 232.408 388.646 233.028 388.874 233.433C389.099 233.833 389.52 234.115 390.139 234.277C390.754 234.443 391.723 234.524 393.048 234.524C393.11 234.524 393.144 234.609 393.144 234.771C393.144 234.927 393.11 235.005 393.048 235.005C391.896 235.005 390.995 234.992 390.343 234.966L386.046 234.927L382.878 234.966C382.307 234.992 381.532 235.005 380.553 235.005C380.461 235.005 380.417 234.927 380.417 234.771C380.417 234.609 380.461 234.524 380.553 234.524C381.532 234.524 382.246 234.459 382.701 234.329C383.153 234.193 383.456 233.927 383.612 233.537C383.765 233.148 383.843 232.547 383.843 231.733V213.062C383.843 212.257 383.769 211.669 383.626 211.296C383.49 210.916 383.208 210.653 382.783 210.504C382.365 210.348 381.715 210.27 380.838 210.27C380.757 210.27 380.716 210.192 380.716 210.036C380.716 209.874 380.757 209.79 380.838 209.79H398.759C399.038 209.79 399.18 209.913 399.18 210.153L399.262 215.516Z" fill="#F4C87A"/>
<path d="M420.842 235.485C418.221 235.485 415.893 234.901 413.853 233.732C411.814 232.564 410.237 230.98 409.122 228.98C408.007 226.974 407.449 224.786 407.449 222.423C407.449 219.654 408.177 217.281 409.638 215.308C411.107 213.328 412.986 211.838 415.281 210.841C417.582 209.848 419.931 209.348 422.324 209.348C424.996 209.348 427.345 209.945 429.367 211.14C431.396 212.334 432.957 213.915 434.044 215.879C435.132 217.846 435.676 219.93 435.676 222.137C435.676 224.588 434.996 226.834 433.637 228.876C432.284 230.921 430.475 232.534 428.211 233.719C425.944 234.897 423.487 235.485 420.842 235.485ZM422.242 234.485C423.82 234.485 425.234 234.05 426.485 233.174C427.736 232.301 428.715 231.025 429.422 229.344C430.129 227.656 430.482 225.643 430.482 223.306C430.482 220.833 430.088 218.619 429.299 216.671C428.511 214.724 427.368 213.201 425.873 212.101C424.377 210.994 422.63 210.439 420.638 210.439C418.072 210.439 416.097 211.361 414.71 213.204C413.33 215.042 412.643 217.616 412.643 220.93C412.643 223.536 413.058 225.87 413.894 227.928C414.727 229.98 415.869 231.587 417.32 232.745C418.768 233.907 420.41 234.485 422.242 234.485Z" fill="#F4C87A"/>
<path d="M457.418 235.485C454.797 235.485 452.468 234.901 450.429 233.732C448.389 232.564 446.812 230.98 445.697 228.98C444.582 226.974 444.025 224.786 444.025 222.423C444.025 219.654 444.752 217.281 446.214 215.308C447.682 213.328 449.562 211.838 451.857 210.841C454.158 209.848 456.507 209.348 458.9 209.348C461.571 209.348 463.92 209.945 465.943 211.14C467.972 212.334 469.532 213.915 470.62 215.879C471.708 217.846 472.252 219.93 472.252 222.137C472.252 224.588 471.572 226.834 470.212 228.876C468.859 230.921 467.051 232.534 464.787 233.719C462.52 234.897 460.062 235.485 457.418 235.485ZM458.818 234.485C460.395 234.485 461.809 234.05 463.06 233.174C464.311 232.301 465.29 231.025 465.997 229.344C466.704 227.656 467.058 225.643 467.058 223.306C467.058 220.833 466.663 218.619 465.875 216.671C465.086 214.724 463.944 213.201 462.448 212.101C460.953 210.994 459.206 210.439 457.214 210.439C454.647 210.439 452.672 211.361 451.286 213.204C449.905 215.042 449.219 217.616 449.219 220.93C449.219 223.536 449.634 225.87 450.47 227.928C451.303 229.98 452.445 231.587 453.896 232.745C455.344 233.907 456.986 234.485 458.818 234.485Z" fill="#F4C87A"/>
<path d="M492.308 235.16C491.4 235.16 490.33 235.121 489.099 235.044C488.644 235.018 488.086 234.992 487.427 234.966C486.764 234.94 486.026 234.927 485.21 234.927L482.083 234.966C481.519 234.992 480.757 235.005 479.799 235.005C479.744 235.005 479.717 234.927 479.717 234.771C479.717 234.609 479.744 234.524 479.799 234.524C480.703 234.524 481.366 234.459 481.784 234.329C482.209 234.193 482.498 233.927 482.654 233.537C482.807 233.148 482.885 232.547 482.885 231.733V213.062C482.885 212.257 482.807 211.669 482.654 211.296C482.498 210.916 482.219 210.653 481.811 210.504C481.403 210.348 480.757 210.27 479.88 210.27C479.799 210.27 479.758 210.192 479.758 210.036C479.758 209.874 479.799 209.79 479.88 209.79L482.124 209.829C483.419 209.88 484.449 209.906 485.21 209.906C486.359 209.906 487.542 209.867 488.759 209.79C490.217 209.738 491.2 209.712 491.71 209.712C494.555 209.712 497.084 210.251 499.297 211.322C501.506 212.396 503.216 213.863 504.423 215.723C505.636 217.577 506.245 219.657 506.245 221.969C506.245 224.585 505.619 226.896 504.368 228.902C503.117 230.902 501.424 232.447 499.297 233.537C497.175 234.622 494.844 235.16 492.308 235.16ZM491.886 234.239C493.688 234.239 495.279 233.804 496.659 232.927C498.035 232.054 499.11 230.756 499.881 229.032C500.66 227.312 501.051 225.254 501.051 222.865C501.051 220.579 500.683 218.502 499.949 216.632C499.215 214.762 498.171 213.292 496.822 212.218C495.469 211.137 493.905 210.595 492.131 210.595C490.391 210.595 489.194 210.76 488.542 211.088C487.896 211.409 487.576 212.094 487.576 213.139V231.291C487.576 232.366 487.869 233.128 488.46 233.576C489.048 234.018 490.19 234.239 491.886 234.239Z" fill="#F4C87A"/>
<path d="M235.775 267.563C235.693 267.563 235.619 267.595 235.558 267.654C235.503 267.706 235.476 267.771 235.476 267.849V274.977C235.476 275.256 235.571 275.483 235.761 275.665C235.778 275.684 235.809 275.704 235.857 275.73C235.911 275.749 235.938 275.795 235.938 275.873C235.938 275.944 235.914 275.977 235.87 275.977H233.926C233.878 275.977 233.858 275.947 233.858 275.886C233.858 275.817 233.861 275.779 233.872 275.769C233.889 275.753 233.916 275.736 233.953 275.717C233.987 275.701 234.028 275.671 234.075 275.626C234.13 275.574 234.184 275.49 234.239 275.366C234.293 275.236 234.32 275.107 234.32 274.977V267.628C234.32 267.352 234.225 267.121 234.035 266.94C234.014 266.923 233.98 266.907 233.926 266.888C233.878 266.862 233.858 266.816 233.858 266.745C233.858 266.677 233.878 266.641 233.926 266.641H236.999C237.869 266.651 238.596 266.833 239.188 267.186C239.786 267.534 240.085 268.105 240.085 268.9C240.085 269.829 239.572 270.507 238.549 270.939C238.175 271.104 237.889 271.195 237.692 271.211C237.502 271.231 237.407 271.244 237.407 271.25L237.597 271.354C237.679 271.4 237.842 271.516 238.086 271.705C238.331 271.887 238.576 272.094 238.821 272.328C239.065 272.562 239.354 272.886 239.691 273.302C240.024 273.717 240.269 274.061 240.425 274.328L240.915 275.159C241.095 275.47 241.244 275.645 241.363 275.678C241.489 275.704 241.554 275.762 241.554 275.847C241.554 275.934 241.526 275.977 241.472 275.977H239.528C239.48 275.977 239.46 275.947 239.46 275.886C239.46 275.817 239.467 275.779 239.487 275.769C239.504 275.753 239.528 275.736 239.555 275.717C239.589 275.701 239.616 275.684 239.637 275.665C239.664 275.639 239.671 275.597 239.664 275.535C239.664 275.467 239.654 275.412 239.637 275.366C239.344 274.659 238.95 273.977 238.454 273.328C237.519 272.127 236.717 271.481 236.047 271.393C235.945 271.377 235.897 271.364 235.897 271.354C235.887 271.296 235.884 271.205 235.884 271.082V270.731C235.884 270.699 235.904 270.679 235.952 270.679C236.931 270.679 237.696 270.491 238.25 270.108C238.664 269.822 238.875 269.442 238.875 268.965C238.875 268.481 238.671 268.128 238.263 267.9C237.855 267.676 237.396 267.563 236.89 267.563H235.775Z" fill="#F4C87A"/>
<path d="M249.547 270.38C249.836 270.38 250.078 270.289 250.268 270.108C250.285 270.091 250.302 270.062 250.322 270.017C250.35 269.965 250.397 269.939 250.472 269.939C250.553 269.939 250.594 269.965 250.594 270.017V271.666C250.594 271.718 250.557 271.744 250.485 271.744C250.411 271.744 250.367 271.737 250.35 271.718C250.339 271.701 250.326 271.679 250.309 271.653C250.299 271.62 250.268 271.581 250.214 271.536C250.166 271.484 250.078 271.439 249.942 271.393C249.812 271.341 249.683 271.315 249.547 271.315H245.781V275.055H249.738C250.19 275.055 250.465 275.022 250.567 274.951C250.676 274.873 250.747 274.805 250.785 274.743C250.829 274.685 250.859 274.652 250.88 274.652C250.907 274.652 250.948 274.665 251.002 274.691C251.057 274.71 251.084 274.727 251.084 274.743C251.084 274.753 251.057 274.827 251.002 274.964L250.812 275.418C250.737 275.6 250.689 275.736 250.662 275.821C250.642 275.908 250.611 275.96 250.567 275.976H244.231C244.177 275.976 244.149 275.947 244.149 275.886C244.149 275.817 244.156 275.778 244.177 275.769C244.194 275.752 244.217 275.736 244.245 275.717C244.279 275.701 244.319 275.671 244.367 275.626C244.421 275.574 244.476 275.49 244.53 275.366C244.585 275.236 244.612 275.107 244.612 274.977V267.628C244.612 267.352 244.517 267.121 244.326 266.94C244.316 266.923 244.285 266.907 244.231 266.888C244.177 266.862 244.149 266.816 244.149 266.745C244.149 266.667 244.177 266.628 244.231 266.628H250.567C250.601 266.628 250.635 266.68 250.662 266.784C250.689 266.881 250.737 267.014 250.812 267.186L251.002 267.641C251.057 267.78 251.084 267.858 251.084 267.874C251.084 267.884 251.057 267.9 251.002 267.926C250.948 267.946 250.91 267.952 250.893 267.952C250.873 267.952 250.853 267.946 250.825 267.926C250.805 267.9 250.785 267.871 250.757 267.835C250.737 267.803 250.676 267.745 250.567 267.667C250.465 267.589 250.19 267.55 249.738 267.55H245.781V270.38H249.547Z" fill="#F4C87A"/>
<path d="M255.449 275.912C255.33 275.886 255.197 275.853 255.054 275.808C254.908 275.766 254.816 275.743 254.783 275.743H254.715C254.568 275.743 254.46 275.817 254.388 275.964C254.388 275.973 254.381 275.977 254.375 275.977H254.198C254.177 275.977 254.164 275.97 254.157 275.951L253.654 274.263C253.627 274.185 253.685 274.146 253.831 274.146C253.885 274.146 253.919 274.159 253.94 274.185C253.957 274.204 253.97 274.217 253.98 274.224C253.987 274.233 254.007 274.259 254.035 274.302C254.558 274.918 255.33 275.223 256.346 275.223C256.88 275.223 257.325 275.09 257.679 274.821C258.032 274.555 258.209 274.159 258.209 273.639C258.209 273.295 258.148 273.036 258.032 272.86C257.913 272.688 257.818 272.558 257.747 272.471C257.583 272.283 257.196 272.026 256.591 271.705C255.993 271.377 255.507 271.082 255.136 270.822C254.174 270.166 253.695 269.491 253.695 268.796C253.695 268.095 253.919 267.556 254.375 267.173C254.837 266.794 255.442 266.602 256.197 266.602C256.611 266.602 257.057 266.712 257.529 266.927C257.753 267.031 257.917 267.102 258.019 267.134C258.127 267.17 258.199 267.154 258.236 267.082C258.27 267.005 258.294 266.966 258.304 266.966C258.484 266.94 258.576 266.966 258.576 267.044L258.753 268.874C258.753 268.91 258.661 268.926 258.481 268.926C258.454 268.926 258.43 268.894 258.413 268.822C258.284 268.433 257.995 268.115 257.543 267.862C257.087 267.602 256.635 267.472 256.183 267.472C255.221 267.472 254.742 267.855 254.742 268.615C254.742 269.16 255.262 269.712 256.305 270.264L257.434 270.835C258.131 271.208 258.62 271.611 258.902 272.042C259.181 272.468 259.324 272.922 259.324 273.406V273.471C259.222 274.12 259.106 274.561 258.97 274.795C258.732 275.185 258.403 275.496 257.978 275.73C257.549 275.964 257.067 276.08 256.523 276.08C256.224 276.071 255.979 276.045 255.789 276.002L255.449 275.912Z" fill="#F4C87A"/>
<path d="M271.582 266.628C271.626 266.628 271.663 266.68 271.69 266.784C271.718 266.881 271.765 267.014 271.84 267.186C271.84 267.186 271.901 267.339 272.03 267.641C272.085 267.78 272.112 267.858 272.112 267.874C272.112 267.884 272.078 267.9 272.017 267.926C271.962 267.946 271.925 267.952 271.908 267.952C271.881 267.952 271.843 267.926 271.799 267.874C271.762 267.816 271.694 267.745 271.595 267.667C271.493 267.589 271.218 267.55 270.766 267.55H267.407V274.977C267.407 275.256 267.503 275.483 267.693 275.665C267.7 275.684 267.734 275.704 267.788 275.73C267.843 275.749 267.87 275.795 267.87 275.873C267.87 275.944 267.843 275.976 267.788 275.976H265.857C265.803 275.976 265.776 275.947 265.776 275.886C265.776 275.817 265.783 275.778 265.803 275.769C265.82 275.752 265.844 275.736 265.871 275.717C265.905 275.701 265.946 275.671 265.993 275.626C266.048 275.574 266.102 275.49 266.157 275.366C266.211 275.236 266.238 275.107 266.238 274.977V267.55H262.88C262.316 267.55 261.976 267.641 261.86 267.822C261.806 267.9 261.765 267.946 261.738 267.952C261.717 267.952 261.676 267.946 261.615 267.926C261.561 267.9 261.534 267.884 261.534 267.874C261.534 267.858 261.561 267.78 261.615 267.641L261.806 267.186C261.877 267.014 261.928 266.884 261.955 266.797C261.982 266.703 262.016 266.647 262.064 266.628H271.582Z" fill="#F4C87A"/>
<path d="M276.694 267.563C276.612 267.563 276.538 267.595 276.476 267.654C276.422 267.706 276.395 267.771 276.395 267.849V274.977C276.395 275.256 276.49 275.483 276.68 275.665C276.697 275.684 276.728 275.704 276.776 275.73C276.83 275.749 276.857 275.795 276.857 275.873C276.857 275.944 276.833 275.977 276.789 275.977H274.845C274.797 275.977 274.777 275.947 274.777 275.886C274.777 275.817 274.78 275.779 274.79 275.769C274.807 275.753 274.835 275.736 274.872 275.717C274.906 275.701 274.947 275.671 274.994 275.626C275.049 275.574 275.103 275.49 275.158 275.366C275.212 275.236 275.239 275.107 275.239 274.977V267.628C275.239 267.352 275.144 267.121 274.954 266.94C274.933 266.923 274.899 266.907 274.845 266.888C274.797 266.862 274.777 266.816 274.777 266.745C274.777 266.677 274.797 266.641 274.845 266.641H277.918C278.788 266.651 279.515 266.833 280.107 267.186C280.705 267.534 281.004 268.105 281.004 268.9C281.004 269.829 280.491 270.507 279.468 270.939C279.094 271.104 278.808 271.195 278.611 271.211C278.421 271.231 278.326 271.244 278.326 271.25L278.516 271.354C278.598 271.4 278.761 271.516 279.005 271.705C279.25 271.887 279.495 272.094 279.74 272.328C279.984 272.562 280.273 272.886 280.61 273.302C280.943 273.717 281.188 274.061 281.344 274.328L281.834 275.159C282.014 275.47 282.163 275.645 282.282 275.678C282.408 275.704 282.473 275.762 282.473 275.847C282.473 275.934 282.445 275.977 282.391 275.977H280.447C280.399 275.977 280.379 275.947 280.379 275.886C280.379 275.817 280.386 275.779 280.406 275.769C280.423 275.753 280.447 275.736 280.474 275.717C280.508 275.701 280.535 275.684 280.555 275.665C280.583 275.639 280.589 275.597 280.583 275.535C280.583 275.467 280.572 275.412 280.555 275.366C280.263 274.659 279.869 273.977 279.373 273.328C278.438 272.127 277.636 271.481 276.966 271.393C276.864 271.377 276.816 271.364 276.816 271.354C276.806 271.296 276.803 271.205 276.803 271.082V270.731C276.803 270.699 276.823 270.679 276.871 270.679C277.85 270.679 278.615 270.491 279.169 270.108C279.583 269.822 279.794 269.442 279.794 268.965C279.794 268.481 279.59 268.128 279.182 267.9C278.774 267.676 278.315 267.563 277.809 267.563H276.694Z" fill="#F4C87A"/>
<path d="M288.889 275.003C289.277 275.152 289.657 275.223 290.031 275.223C291.309 275.223 292.322 274.87 293.077 274.159C293.828 273.451 294.206 272.494 294.206 271.289C294.206 270.874 294.09 270.439 293.866 269.978C293.648 269.52 293.352 269.105 292.982 268.731C292.618 268.352 292.166 268.04 291.622 267.797C291.085 267.547 290.48 267.42 289.8 267.42C289.127 267.42 288.488 267.586 287.883 267.913C287.285 268.235 286.822 268.686 286.496 269.264C286.17 269.845 286.007 270.517 286.007 271.276C286.007 272.039 286.296 272.779 286.877 273.497C287.465 274.217 288.135 274.717 288.889 275.003ZM286.374 274.743C285.929 274.295 285.575 273.766 285.313 273.159C285.048 272.545 284.919 271.912 284.919 271.263C284.919 270.608 285.055 269.984 285.327 269.394C285.606 268.806 285.973 268.296 286.428 267.861C286.89 267.43 287.428 267.082 288.046 266.823C288.672 266.563 289.287 266.433 289.895 266.433C290.5 266.433 291.068 266.511 291.595 266.667C292.645 266.972 293.519 267.534 294.219 268.355C294.916 269.17 295.266 270.13 295.266 271.237C295.266 271.887 295.144 272.51 294.899 273.107C294.654 273.698 294.307 274.22 293.866 274.678C293.42 275.139 292.859 275.506 292.18 275.782C291.507 276.048 290.796 276.184 290.045 276.184C289.3 276.184 288.617 276.054 287.992 275.795C287.366 275.535 286.826 275.184 286.374 274.743Z" fill="#F4C87A"/>
<path d="M311.921 269.991C311.921 270.095 311.893 270.147 311.839 270.147H311.132C310.66 270.147 310.214 270.296 309.8 270.588C309.072 271.091 308.705 271.763 308.698 272.601C308.698 272.938 308.787 273.273 308.97 273.6C309.15 273.922 309.381 274.198 309.664 274.431C309.942 274.659 310.265 274.84 310.629 274.977C310.999 275.116 311.329 275.185 311.622 275.185C311.921 275.185 312.172 275.155 312.383 275.094C312.59 275.035 312.767 274.957 312.913 274.86C313.056 274.756 313.189 274.639 313.308 274.509C313.515 274.276 313.664 274.022 313.756 273.743C313.855 273.458 313.906 273.234 313.906 273.068C313.906 272.906 313.828 272.818 313.675 272.808H311.662C311.207 272.808 310.932 272.847 310.833 272.925C310.731 272.997 310.66 273.062 310.615 273.12C310.568 273.172 310.537 273.198 310.52 273.198C310.5 273.198 310.459 273.191 310.398 273.172C310.343 273.156 310.316 273.14 310.316 273.12C310.316 273.104 310.343 273.036 310.398 272.912L310.588 272.497C310.66 272.335 310.711 272.208 310.738 272.12C310.765 272.026 310.799 271.974 310.847 271.964H316.38C316.669 271.964 316.911 271.874 317.101 271.692C317.118 271.676 317.142 271.64 317.169 271.588C317.196 271.536 317.244 271.51 317.319 271.51C317.39 271.51 317.427 271.536 317.427 271.588C317.353 272.039 317.268 272.399 317.169 272.666C317.132 272.753 317.06 272.802 316.951 272.808C316.714 272.818 316.387 272.815 315.972 272.795C315.565 272.779 315.255 272.782 315.048 272.808C314.837 272.828 314.735 272.893 314.735 273.003C314.735 273.542 314.575 274.091 314.259 274.652C313.688 275.675 312.73 276.184 311.39 276.184C310.962 276.184 310.524 276.1 310.072 275.938C309.626 275.766 309.235 275.532 308.902 275.236C308.566 274.944 308.297 274.581 308.1 274.146C307.91 273.704 307.814 273.282 307.814 272.873C307.814 272.458 307.855 272.117 307.937 271.848C308.08 271.354 308.304 270.952 308.603 270.64C308.909 270.328 309.263 270.043 309.664 269.783V269.744C309.3 269.468 309.065 269.231 308.957 269.03C308.855 268.832 308.807 268.598 308.807 268.329C308.807 267.767 308.991 267.31 309.364 266.953C309.735 266.599 310.207 266.42 310.779 266.42C310.976 266.42 311.227 266.472 311.526 266.576C311.581 266.596 311.642 266.583 311.717 266.537C311.788 266.495 311.866 266.472 311.948 266.472C312.029 266.472 312.087 266.508 312.125 266.576C312.142 266.596 312.152 266.635 312.152 266.693C312.142 266.79 312.186 267.044 312.288 267.459L312.437 268.082C312.482 268.248 312.505 268.352 312.505 268.394C312.505 268.42 312.451 268.459 312.342 268.511C312.24 268.556 312.186 268.563 312.179 268.537L311.785 267.706C311.584 267.378 311.288 267.212 310.901 267.212C310.51 267.212 310.211 267.313 310.004 267.511C309.793 267.702 309.691 267.972 309.691 268.316C309.691 268.507 309.762 268.689 309.908 268.861C310.207 269.209 310.615 269.381 311.132 269.381H311.839C311.893 269.381 311.921 269.433 311.921 269.536V269.991Z" fill="#F4C87A"/>
<path d="M334.883 275.327C335.781 275.327 336.583 275.133 337.29 274.743C338.004 274.354 338.588 273.834 339.044 273.185C339.098 273.101 339.139 273.075 339.166 273.107C339.193 273.133 339.224 273.178 339.261 273.237L339.452 273.484C339.506 273.581 339.527 273.639 339.52 273.665C339.275 274.133 338.87 274.587 338.31 275.029C337.276 275.86 336.134 276.275 334.883 276.275C334.156 276.275 333.476 276.139 332.844 275.873C332.208 275.607 331.674 275.246 331.239 274.795C330.804 274.347 330.458 273.821 330.206 273.224C329.961 272.62 329.839 271.99 329.839 271.341C329.839 270.692 329.968 270.075 330.233 269.485C330.505 268.897 330.865 268.387 331.321 267.952C331.773 267.521 332.307 267.173 332.925 266.914C333.541 266.654 334.163 266.524 334.788 266.524C335.539 266.524 336.297 266.664 337.059 266.94L337.331 267.031C337.375 267.05 337.429 267.037 337.494 266.992C337.565 266.949 337.643 266.927 337.725 266.927C337.807 266.927 337.868 266.962 337.915 267.031C337.932 267.04 337.936 267.079 337.929 267.147C337.919 267.261 337.97 267.517 338.078 267.913L338.228 268.537C338.262 268.702 338.282 268.806 338.282 268.848C338.282 268.874 338.231 268.913 338.133 268.965C338.031 269.011 337.973 269.017 337.956 268.991C337.62 268.439 337.201 268.056 336.705 267.849C336.206 267.641 335.58 267.537 334.829 267.537C334.084 267.537 333.415 267.699 332.817 268.017C332.218 268.339 331.756 268.79 331.43 269.368C331.103 269.939 330.94 270.595 330.94 271.328C330.94 271.805 331.052 272.289 331.28 272.782C331.515 273.269 331.814 273.698 332.178 274.068C332.538 274.441 332.959 274.743 333.442 274.977C333.921 275.21 334.401 275.327 334.883 275.327Z" fill="#F4C87A"/>
<path d="M342.439 275.107C342.439 275.107 343.748 272.302 346.369 266.693C346.386 266.651 346.481 266.628 346.654 266.628C346.835 266.628 346.933 266.651 346.953 266.693L351.005 275.107C351.158 275.454 351.311 275.662 351.468 275.73C351.522 275.749 351.549 275.795 351.549 275.873C351.549 275.944 351.522 275.976 351.468 275.976H349.306C349.251 275.976 349.224 275.947 349.224 275.886C349.224 275.817 349.231 275.778 349.251 275.769C349.268 275.752 349.292 275.736 349.319 275.717C349.353 275.701 349.381 275.684 349.401 275.665C349.554 275.528 349.632 275.399 349.632 275.275C349.632 275.145 349.618 275.042 349.591 274.964L348.721 273.003H344.411L343.568 274.964C343.541 275.042 343.527 275.103 343.527 275.145V275.21C343.527 275.21 343.527 275.217 343.527 275.223C343.527 275.379 343.602 275.528 343.758 275.665C343.765 275.684 343.799 275.704 343.853 275.73C343.908 275.749 343.935 275.795 343.935 275.873C343.935 275.944 343.908 275.976 343.853 275.976H341.977C341.923 275.976 341.896 275.947 341.896 275.886C341.896 275.817 341.902 275.778 341.923 275.769C341.94 275.752 341.963 275.736 341.991 275.717C342.127 275.665 342.276 275.464 342.439 275.107ZM344.846 272.094C344.836 272.104 344.832 272.117 344.832 272.133C344.839 272.153 344.849 272.159 344.86 272.159H348.272C348.279 272.159 348.286 272.153 348.286 272.133C348.293 272.117 348.293 272.104 348.286 272.094L346.559 268.511H346.518L344.846 272.094Z" fill="#F4C87A"/>
<path d="M354.282 275.976C354.234 275.976 354.214 275.947 354.214 275.886C354.214 275.817 354.217 275.778 354.227 275.769C354.244 275.752 354.272 275.736 354.309 275.717C354.343 275.701 354.384 275.671 354.431 275.626C354.486 275.574 354.54 275.49 354.595 275.366C354.649 275.236 354.676 275.107 354.676 274.977V267.628C354.676 267.352 354.581 267.121 354.391 266.94C354.37 266.923 354.336 266.907 354.282 266.888C354.234 266.862 354.214 266.816 354.214 266.745C354.214 266.667 354.234 266.628 354.282 266.628H360.618C360.652 266.628 360.686 266.68 360.713 266.784C360.747 266.881 360.801 267.014 360.876 267.186L361.067 267.641C361.121 267.78 361.148 267.858 361.148 267.874C361.148 267.884 361.114 267.9 361.053 267.926C360.999 267.946 360.961 267.952 360.944 267.952C360.917 267.952 360.88 267.926 360.835 267.874C360.798 267.816 360.73 267.745 360.632 267.667C360.53 267.589 360.254 267.55 359.802 267.55H355.832V270.38H359.598C359.887 270.38 360.132 270.289 360.332 270.108C360.339 270.091 360.36 270.062 360.387 270.017C360.414 269.965 360.462 269.939 360.536 269.939C360.608 269.939 360.645 269.965 360.645 270.017V271.666C360.645 271.718 360.608 271.744 360.536 271.744C360.472 271.744 360.431 271.737 360.414 271.718C360.404 271.701 360.39 271.679 360.373 271.653C360.363 271.62 360.332 271.581 360.278 271.536C360.23 271.484 360.142 271.439 360.006 271.393C359.87 271.341 359.734 271.315 359.598 271.315H355.832V274.977C355.832 275.256 355.927 275.483 356.117 275.665C356.134 275.684 356.165 275.704 356.213 275.73C356.267 275.749 356.294 275.795 356.294 275.873C356.294 275.944 356.27 275.976 356.226 275.976H354.282Z" fill="#F4C87A"/>
<path d="M369.402 270.38C369.691 270.38 369.932 270.289 370.122 270.108C370.139 270.091 370.156 270.062 370.177 270.017C370.204 269.965 370.252 269.939 370.326 269.939C370.408 269.939 370.449 269.965 370.449 270.017V271.666C370.449 271.718 370.411 271.744 370.34 271.744C370.265 271.744 370.221 271.737 370.204 271.718C370.194 271.701 370.18 271.679 370.163 271.653C370.153 271.62 370.122 271.581 370.068 271.536C370.02 271.484 369.932 271.439 369.796 271.393C369.667 271.341 369.538 271.315 369.402 271.315H365.636V275.055H369.592C370.044 275.055 370.32 275.022 370.422 274.951C370.53 274.873 370.602 274.805 370.639 274.743C370.683 274.685 370.714 274.652 370.734 274.652C370.761 274.652 370.802 274.665 370.857 274.691C370.911 274.71 370.938 274.727 370.938 274.743C370.938 274.753 370.911 274.827 370.857 274.964L370.666 275.418C370.592 275.6 370.544 275.736 370.517 275.821C370.496 275.908 370.466 275.96 370.422 275.976H364.085C364.031 275.976 364.004 275.947 364.004 275.886C364.004 275.817 364.011 275.778 364.031 275.769C364.048 275.752 364.072 275.736 364.099 275.717C364.133 275.701 364.174 275.671 364.221 275.626C364.276 275.574 364.33 275.49 364.385 275.366C364.439 275.236 364.466 275.107 364.466 274.977V267.628C364.466 267.352 364.371 267.121 364.181 266.94C364.17 266.923 364.14 266.907 364.085 266.888C364.031 266.862 364.004 266.816 364.004 266.745C364.004 266.667 364.031 266.628 364.085 266.628H370.422C370.456 266.628 370.49 266.68 370.517 266.784C370.544 266.881 370.592 267.014 370.666 267.186L370.857 267.641C370.911 267.78 370.938 267.858 370.938 267.874C370.938 267.884 370.911 267.9 370.857 267.926C370.802 267.946 370.765 267.952 370.748 267.952C370.727 267.952 370.707 267.946 370.68 267.926C370.66 267.9 370.639 267.871 370.612 267.835C370.592 267.803 370.53 267.745 370.422 267.667C370.32 267.589 370.044 267.55 369.592 267.55H365.636V270.38H369.402Z" fill="#F4C87A"/>
</svg>
