<svg xmlns="http://www.w3.org/2000/svg" xmlns:xlink="http://www.w3.org/1999/xlink" width="500" zoomAndPan="magnify" viewBox="0 0 375 374.999991" height="500" preserveAspectRatio="xMidYMid meet" version="1.0"><defs><g/><clipPath id="ffb23301e7"><path d="M 46.417969 72.695312 L 328.417969 72.695312 L 328.417969 302.195312 L 46.417969 302.195312 Z M 46.417969 72.695312 " clip-rule="nonzero"/></clipPath><clipPath id="e763843888"><path d="M 145.898438 88.550781 L 229.148438 88.550781 L 229.148438 171.800781 L 145.898438 171.800781 Z M 145.898438 88.550781 " clip-rule="nonzero"/></clipPath></defs><g clip-path="url(#ffb23301e7)"><path fill="#f4c87a" d="M 318.851562 237.648438 C 317.144531 237.648438 315.367188 237.648438 313.660156 237.648438 C 297.882812 237.648438 282.039062 237.648438 266.261719 237.648438 C 248.234375 237.648438 230.203125 237.648438 212.105469 237.648438 C 193.394531 237.648438 174.679688 237.648438 155.898438 237.648438 C 138.074219 237.648438 120.179688 237.648438 102.355469 237.648438 C 86.851562 237.648438 71.417969 237.648438 55.914062 237.648438 C 54.480469 237.648438 54.480469 235.394531 55.914062 235.394531 C 57.621094 235.394531 59.398438 235.394531 61.105469 235.394531 C 76.882812 235.394531 92.726562 235.394531 108.5 235.394531 C 126.53125 235.394531 144.5625 235.394531 162.660156 235.394531 C 181.371094 235.394531 200.085938 235.394531 218.867188 235.394531 C 236.691406 235.394531 254.585938 235.394531 272.410156 235.394531 C 287.914062 235.394531 303.347656 235.394531 318.851562 235.394531 C 320.285156 235.394531 320.285156 237.648438 318.851562 237.648438 Z M 291.125 260.664062 C 274.730469 260.664062 258.339844 260.664062 242.019531 260.664062 C 229.792969 260.664062 217.636719 260.664062 205.414062 260.664062 C 194.691406 260.664062 184.035156 260.664062 173.3125 260.664062 C 161.429688 260.664062 149.546875 260.664062 137.730469 260.664062 C 122.023438 260.664062 106.246094 260.664062 90.539062 260.664062 C 88.21875 260.664062 85.964844 260.664062 83.640625 260.664062 C 82.207031 260.664062 82.207031 262.917969 83.640625 262.917969 C 100.03125 262.917969 116.425781 262.917969 132.746094 262.917969 C 144.972656 262.917969 157.128906 262.917969 169.351562 262.917969 C 180.074219 262.917969 190.730469 262.917969 201.453125 262.917969 C 213.335938 262.917969 225.21875 262.917969 237.035156 262.917969 C 252.742188 262.917969 268.515625 262.917969 284.226562 262.917969 C 286.546875 262.917969 288.800781 262.917969 291.125 262.917969 C 292.558594 262.917969 292.558594 260.664062 291.125 260.664062 Z M 187.382812 299.941406 C 157.195312 299.941406 128.511719 286.621094 108.910156 263.945312 L 105.976562 263.945312 C 125.984375 288.054688 155.898438 302.195312 187.382812 302.195312 C 218.867188 302.195312 248.78125 288.054688 268.789062 263.945312 L 265.855469 263.945312 C 246.253906 286.621094 217.570312 299.941406 187.382812 299.941406 Z M 162.453125 287.578125 C 164.84375 288.328125 167.234375 289.011719 169.695312 289.488281 C 169.761719 289.488281 169.832031 289.421875 169.898438 289.421875 C 172.835938 288.875 175.566406 287.851562 178.164062 286.414062 C 178.777344 286.074219 179.460938 285.730469 180.210938 286.210938 C 180.828125 286.621094 181.304688 287.234375 181.851562 287.714844 C 182.945312 288.738281 184.035156 289.761719 185.128906 290.785156 C 186.085938 291.128906 185.949219 292.902344 184.652344 292.972656 C 180.144531 293.246094 175.703125 292.902344 171.265625 292.085938 C 163.480469 290.648438 155.96875 287.851562 148.933594 284.296875 C 142.035156 280.882812 135.546875 276.648438 129.535156 271.867188 C 128.511719 271.046875 129.808594 269.613281 130.902344 270.089844 L 186.015625 270.089844 C 186.5625 270.089844 186.90625 270.433594 187.042969 270.84375 C 187.246094 271.253906 187.246094 271.730469 186.90625 272.140625 C 180.074219 279.175781 172.015625 285.390625 162.453125 287.578125 Z M 175.019531 290.378906 C 177.273438 290.648438 179.527344 290.785156 181.851562 290.785156 C 181.644531 290.582031 181.441406 290.445312 181.234375 290.242188 C 180.828125 289.832031 180.347656 289.421875 179.9375 289.011719 C 179.734375 288.804688 179.527344 288.53125 179.253906 288.328125 C 179.050781 288.464844 178.777344 288.667969 178.640625 288.738281 C 178.300781 288.941406 177.890625 289.148438 177.546875 289.351562 C 176.796875 289.695312 176.046875 290.035156 175.292969 290.308594 C 175.15625 290.308594 175.089844 290.378906 175.019531 290.378906 Z M 137.253906 272.414062 L 133.839844 272.414062 C 134.933594 273.234375 136.09375 274.050781 137.253906 274.871094 Z M 143.539062 272.414062 L 139.4375 272.414062 L 139.4375 276.375 C 140.121094 276.851562 140.804688 277.261719 141.554688 277.742188 C 142.238281 278.152344 142.855469 278.558594 143.539062 278.96875 Z M 151.050781 272.414062 L 145.789062 272.414062 L 145.789062 279.789062 C 145.789062 279.925781 145.789062 279.996094 145.722656 280.132812 C 147.429688 281.085938 149.207031 282.042969 151.050781 282.933594 Z M 158.085938 272.414062 L 153.304688 272.414062 L 153.304688 284.023438 C 154.875 284.777344 156.445312 285.390625 158.085938 286.074219 Z M 165.527344 284.367188 C 165.460938 284.230469 165.460938 284.09375 165.460938 283.957031 L 165.460938 272.414062 L 160.40625 272.414062 L 160.40625 285.730469 C 162.113281 285.390625 163.820312 284.980469 165.527344 284.367188 Z M 172.496094 281.019531 C 172.496094 280.882812 172.425781 280.816406 172.425781 280.679688 L 172.425781 272.34375 L 167.644531 272.34375 L 167.644531 283.476562 C 169.351562 282.796875 170.921875 281.976562 172.496094 281.019531 Z M 179.9375 275.625 C 179.9375 275.554688 179.9375 275.554688 179.9375 275.625 L 179.9375 272.414062 L 174.679688 272.414062 L 174.679688 279.652344 C 176.523438 278.425781 178.300781 277.058594 179.9375 275.625 Z M 183.421875 272.414062 L 182.191406 272.414062 L 182.191406 273.574219 C 182.601562 273.164062 183.011719 272.824219 183.421875 272.414062 Z M 205.070312 289.488281 C 207.53125 289.011719 209.921875 288.328125 212.308594 287.578125 C 202.75 285.390625 194.691406 279.175781 187.929688 272.207031 C 187.519531 271.796875 187.519531 271.320312 187.792969 270.910156 C 187.929688 270.5 188.269531 270.160156 188.816406 270.160156 L 243.929688 270.160156 C 245.023438 269.679688 246.320312 271.046875 245.296875 271.933594 C 239.285156 276.785156 232.800781 280.949219 225.902344 284.367188 C 218.867188 287.851562 211.355469 290.71875 203.570312 292.152344 C 199.128906 292.972656 194.691406 293.3125 190.183594 293.039062 C 188.886719 292.972656 188.75 291.195312 189.703125 290.855469 C 190.796875 289.832031 191.890625 288.804688 192.984375 287.78125 C 193.527344 287.304688 194.007812 286.6875 194.621094 286.277344 C 195.304688 285.867188 195.988281 286.140625 196.671875 286.484375 C 199.199219 287.988281 201.996094 289.011719 204.933594 289.488281 C 204.933594 289.488281 205.003906 289.488281 205.070312 289.488281 Z M 199.8125 290.378906 C 199.742188 290.378906 199.675781 290.308594 199.539062 290.308594 C 198.789062 290.035156 198.035156 289.695312 197.285156 289.351562 C 196.945312 289.148438 196.535156 288.941406 196.191406 288.738281 C 196.054688 288.667969 195.78125 288.464844 195.578125 288.328125 C 195.375 288.53125 195.101562 288.804688 194.894531 289.011719 C 194.484375 289.421875 194.007812 289.832031 193.597656 290.242188 C 193.394531 290.445312 193.1875 290.582031 192.984375 290.785156 C 195.238281 290.785156 197.558594 290.648438 199.8125 290.378906 Z M 237.578125 274.804688 C 238.742188 273.984375 239.832031 273.234375 240.996094 272.34375 L 237.578125 272.34375 Z M 231.226562 278.902344 C 231.910156 278.492188 232.59375 278.082031 233.207031 277.671875 C 233.890625 277.261719 234.574219 276.785156 235.324219 276.304688 L 235.324219 272.34375 L 231.226562 272.34375 Z M 223.714844 282.933594 C 225.492188 282.042969 227.265625 281.085938 229.042969 280.132812 C 229.042969 280.0625 228.972656 279.925781 228.972656 279.789062 L 228.972656 272.414062 L 223.714844 272.414062 Z M 216.679688 286.003906 C 218.320312 285.390625 219.890625 284.707031 221.460938 283.957031 L 221.460938 272.34375 L 216.679688 272.34375 Z M 192.574219 272.414062 L 191.34375 272.414062 C 191.753906 272.824219 192.164062 273.234375 192.574219 273.574219 Z M 200.085938 272.414062 L 194.828125 272.414062 L 194.828125 275.554688 C 194.828125 275.554688 194.828125 275.554688 194.828125 275.625 C 196.535156 277.058594 198.242188 278.425781 200.085938 279.722656 Z M 207.121094 272.414062 L 202.339844 272.414062 L 202.339844 280.746094 C 202.339844 280.882812 202.339844 281.019531 202.269531 281.085938 C 203.84375 282.042969 205.414062 282.863281 207.121094 283.546875 Z M 214.425781 285.730469 L 214.425781 272.414062 L 209.375 272.414062 L 209.375 283.957031 C 209.375 284.09375 209.375 284.230469 209.304688 284.367188 C 210.945312 284.980469 212.71875 285.390625 214.425781 285.730469 Z M 151.050781 130.820312 C 151.050781 110.738281 167.371094 94.414062 187.449219 94.414062 C 207.53125 94.414062 223.851562 110.738281 223.851562 130.820312 C 223.851562 150.902344 207.53125 167.226562 187.449219 167.226562 C 167.371094 167.226562 151.050781 150.902344 151.050781 130.820312 Z M 151.800781 130.820312 C 151.800781 150.492188 167.78125 166.472656 187.449219 166.472656 C 207.121094 166.472656 223.101562 150.492188 223.101562 130.820312 C 223.101562 111.148438 207.121094 95.164062 187.449219 95.164062 C 167.78125 95.164062 151.800781 111.148438 151.800781 130.820312 Z M 328.414062 177.402344 L 328.414062 179.65625 L 46.421875 179.65625 L 46.421875 177.402344 L 57.621094 177.402344 C 60.488281 172.894531 63.5625 168.523438 66.839844 164.289062 C 66.839844 164.21875 66.910156 164.21875 66.910156 164.152344 C 67.046875 163.945312 67.25 163.808594 67.457031 163.742188 C 67.59375 163.675781 67.796875 163.675781 68.003906 163.675781 L 99.898438 163.675781 C 95.933594 158.960938 93 153.429688 91.429688 147.484375 C 91.222656 146.804688 91.632812 146.324219 92.109375 146.1875 C 92.246094 146.121094 92.453125 146.050781 92.589844 146.050781 L 94.226562 146.050781 C 93.953125 145.847656 93.679688 145.640625 93.476562 145.4375 C 92.316406 144.207031 91.90625 142.5 91.972656 140.859375 C 92.179688 137.921875 93.816406 135.191406 96.277344 133.621094 C 98.394531 132.253906 100.921875 131.914062 103.3125 132.390625 C 103.105469 131.09375 103.039062 129.726562 103.175781 128.359375 C 103.652344 124.671875 105.632812 121.324219 108.84375 119.414062 C 111.917969 117.636719 115.808594 117.160156 119.085938 118.660156 C 122.707031 120.300781 124.210938 124.945312 123.117188 128.632812 C 122.640625 130.339844 121.476562 131.914062 119.90625 132.730469 C 118.335938 133.550781 116.152344 133.621094 114.785156 132.324219 C 113.625 131.160156 113.417969 129.113281 114.648438 127.949219 C 115.742188 126.996094 117.585938 126.996094 118.542969 128.15625 C 119.222656 128.976562 119.15625 130.136719 118.542969 130.886719 C 119.085938 130.613281 119.566406 130.273438 119.90625 129.863281 C 121.886719 127.679688 121.476562 123.441406 119.292969 121.460938 C 117.449219 119.824219 114.511719 119.753906 112.257812 120.371094 C 109.867188 121.050781 107.820312 122.554688 106.65625 124.742188 C 103.996094 129.386719 105.566406 135.121094 108.910156 139.015625 C 110.6875 141.066406 112.871094 142.910156 115.398438 143.867188 C 117.996094 144.890625 120.863281 144.890625 123.59375 144.34375 C 129.195312 143.113281 133.703125 139.289062 138.003906 135.738281 C 137.324219 128.496094 137.800781 120.847656 140.464844 114.085938 C 139.507812 113.335938 138.894531 112.171875 138.894531 110.875 C 138.894531 108.621094 140.738281 106.777344 142.992188 106.777344 C 145.246094 106.777344 147.089844 108.621094 147.089844 110.875 C 147.089844 113.128906 145.246094 114.972656 142.992188 114.972656 C 142.855469 114.972656 142.71875 114.972656 142.511719 114.972656 C 142.101562 115.996094 141.761719 117.023438 141.488281 118.046875 C 138.960938 127.132812 139.710938 137.035156 142.035156 146.050781 L 148.25 146.050781 C 146.40625 141.269531 145.382812 136.148438 145.382812 130.683594 C 145.382812 107.527344 164.230469 88.675781 187.382812 88.675781 C 210.535156 88.675781 229.382812 107.527344 229.382812 130.683594 C 229.382812 136.078125 228.359375 141.269531 226.515625 146.050781 L 232.730469 146.050781 C 235.054688 137.035156 235.804688 127.0625 233.277344 118.046875 C 233.003906 117.023438 232.59375 115.996094 232.253906 114.972656 C 232.117188 114.972656 231.980469 114.972656 231.773438 114.972656 C 229.519531 114.972656 227.675781 113.128906 227.675781 110.875 C 227.675781 108.621094 229.519531 106.777344 231.773438 106.777344 C 234.027344 106.777344 235.871094 108.621094 235.871094 110.875 C 235.871094 112.171875 235.257812 113.335938 234.300781 114.085938 C 236.964844 120.847656 237.441406 128.496094 236.761719 135.738281 C 241.0625 139.359375 245.570312 143.113281 251.171875 144.34375 C 253.832031 144.957031 256.769531 144.957031 259.367188 143.867188 C 261.894531 142.839844 264.078125 140.996094 265.855469 139.015625 C 269.199219 135.191406 270.703125 129.386719 268.109375 124.742188 C 266.878906 122.625 264.828125 121.050781 262.507812 120.371094 C 260.253906 119.753906 257.316406 119.824219 255.472656 121.460938 C 253.289062 123.375 252.878906 127.609375 254.859375 129.863281 C 255.199219 130.207031 255.679688 130.613281 256.222656 130.886719 C 255.679688 130.136719 255.609375 128.976562 256.222656 128.15625 C 257.179688 126.996094 259.023438 126.996094 260.117188 127.949219 C 261.347656 129.113281 261.140625 131.160156 259.980469 132.324219 C 258.613281 133.6875 256.496094 133.621094 254.859375 132.730469 C 253.289062 131.914062 252.125 130.339844 251.648438 128.632812 C 250.625 124.945312 252.125 120.371094 255.679688 118.660156 C 258.957031 117.160156 262.847656 117.636719 265.921875 119.414062 C 269.132812 121.324219 271.113281 124.671875 271.589844 128.359375 C 271.726562 129.726562 271.726562 131.023438 271.453125 132.390625 C 273.84375 131.914062 276.371094 132.253906 278.488281 133.621094 C 280.945312 135.191406 282.585938 137.921875 282.792969 140.859375 C 282.925781 142.5 282.449219 144.207031 281.289062 145.4375 C 281.082031 145.710938 280.808594 145.914062 280.539062 146.050781 L 282.175781 146.050781 C 282.382812 146.050781 282.519531 146.121094 282.65625 146.1875 C 283.132812 146.394531 283.542969 146.871094 283.335938 147.484375 C 281.765625 153.429688 278.898438 158.960938 274.867188 163.675781 L 306.761719 163.675781 C 306.96875 163.675781 307.105469 163.675781 307.308594 163.742188 C 307.582031 163.808594 307.71875 163.945312 307.855469 164.152344 C 307.855469 164.21875 307.921875 164.21875 307.921875 164.289062 C 311.132812 168.523438 314.207031 172.894531 317.144531 177.402344 Z M 280.742188 148.375 L 274.867188 148.375 C 273.230469 154.042969 270.429688 159.234375 266.671875 163.742188 L 271.933594 163.742188 C 276.03125 159.371094 279.035156 154.113281 280.742188 148.375 Z M 226.175781 163.742188 L 229.929688 163.742188 C 234.027344 159.371094 237.035156 154.113281 238.808594 148.375 L 234.4375 148.375 C 232.800781 154.042969 230 159.300781 226.175781 163.742188 Z M 232.9375 163.742188 L 236.691406 163.742188 C 240.789062 159.371094 243.792969 154.113281 245.570312 148.375 L 241.199219 148.375 C 239.492188 154.042969 236.691406 159.300781 232.9375 163.742188 Z M 239.695312 163.742188 L 243.453125 163.742188 C 247.550781 159.371094 250.554688 154.113281 252.332031 148.375 L 247.890625 148.375 C 246.253906 154.042969 243.453125 159.300781 239.695312 163.742188 Z M 246.457031 163.742188 L 250.214844 163.742188 C 254.3125 159.371094 257.316406 154.113281 259.09375 148.375 L 254.722656 148.375 C 253.015625 154.042969 250.214844 159.300781 246.457031 163.742188 Z M 253.152344 163.742188 L 256.90625 163.742188 C 261.003906 159.371094 264.011719 154.113281 265.785156 148.375 L 261.414062 148.375 C 259.777344 154.042969 256.976562 159.300781 253.152344 163.742188 Z M 259.914062 163.742188 L 263.667969 163.742188 C 267.765625 159.371094 270.769531 154.113281 272.546875 148.375 L 268.175781 148.375 C 266.535156 154.042969 263.738281 159.300781 259.914062 163.742188 Z M 260.046875 146.1875 L 274.253906 146.1875 C 273.777344 145.847656 273.367188 145.367188 273.09375 144.753906 C 272.34375 143.386719 272.070312 141.542969 273.296875 140.3125 C 274.527344 139.085938 276.847656 139.496094 277.257812 141.339844 C 277.601562 142.703125 276.234375 143.867188 275.003906 143.730469 C 275.003906 143.796875 275.074219 143.796875 275.074219 143.867188 C 275.550781 144.683594 276.234375 144.820312 277.121094 144.820312 C 278.011719 144.820312 278.828125 144.753906 279.511719 144.140625 C 280.878906 142.839844 280.605469 140.65625 279.992188 139.085938 C 279.375 137.511719 278.148438 136.148438 276.644531 135.394531 C 274.867188 134.441406 272.613281 134.371094 270.769531 135.121094 C 269.132812 139.972656 264.898438 144.277344 260.046875 146.1875 Z M 235.054688 146.1875 L 248.847656 146.1875 C 244.339844 144.617188 240.175781 141.542969 236.488281 138.539062 C 236.417969 138.8125 236.417969 139.085938 236.351562 139.425781 C 236.078125 141.679688 235.597656 143.933594 235.054688 146.1875 Z M 225.558594 148.375 C 222.757812 154.382812 218.59375 159.644531 213.472656 163.742188 L 223.238281 163.742188 C 227.335938 159.371094 230.339844 154.113281 232.117188 148.375 L 225.832031 148.375 C 225.695312 148.375 225.628906 148.375 225.558594 148.375 Z M 187.382812 170.574219 C 209.304688 170.574219 227.128906 152.746094 227.128906 130.820312 C 227.128906 108.894531 209.304688 91.066406 187.382812 91.066406 C 165.460938 91.066406 147.636719 108.894531 147.636719 130.820312 C 147.636719 152.746094 165.460938 170.574219 187.382812 170.574219 Z M 142.785156 148.375 C 144.492188 154.113281 147.566406 159.371094 151.664062 163.742188 L 161.429688 163.742188 C 156.238281 159.644531 152.074219 154.382812 149.34375 148.375 C 149.273438 148.375 149.207031 148.375 149.136719 148.375 Z M 117.925781 163.742188 L 121.683594 163.742188 C 117.925781 159.300781 115.125 154.042969 113.488281 148.375 L 109.117188 148.375 C 110.753906 154.113281 113.828125 159.371094 117.925781 163.742188 Z M 106.65625 148.375 L 102.285156 148.375 C 103.996094 154.113281 107.066406 159.371094 111.164062 163.742188 L 114.921875 163.742188 C 111.097656 159.300781 108.296875 154.042969 106.65625 148.375 Z M 124.621094 163.742188 L 128.375 163.742188 C 124.621094 159.300781 121.820312 154.042969 120.179688 148.375 L 115.808594 148.375 C 117.515625 154.113281 120.523438 159.371094 124.621094 163.742188 Z M 131.378906 163.742188 L 135.136719 163.742188 C 131.378906 159.300781 128.582031 154.042969 126.941406 148.375 L 122.570312 148.375 C 124.277344 154.113281 127.28125 159.371094 131.378906 163.742188 Z M 138.140625 163.742188 L 141.898438 163.742188 C 138.140625 159.300781 135.339844 154.042969 133.703125 148.375 L 129.332031 148.375 C 131.039062 154.113281 134.042969 159.371094 138.140625 163.742188 Z M 144.902344 163.742188 L 148.660156 163.742188 C 144.902344 159.300781 142.101562 154.042969 140.464844 148.375 L 136.09375 148.375 C 137.800781 154.113281 140.804688 159.371094 144.902344 163.742188 Z M 125.917969 146.1875 L 139.710938 146.1875 C 139.167969 143.933594 138.6875 141.679688 138.414062 139.359375 C 138.347656 139.085938 138.347656 138.8125 138.277344 138.46875 C 134.660156 141.476562 130.492188 144.617188 125.917969 146.1875 Z M 101.742188 144.753906 C 101.398438 145.367188 100.988281 145.777344 100.578125 146.1875 L 114.785156 146.1875 C 109.9375 144.277344 105.703125 140.039062 103.996094 134.988281 C 102.148438 134.234375 99.898438 134.371094 98.121094 135.257812 C 96.617188 136.078125 95.390625 137.378906 94.773438 138.949219 C 94.160156 140.519531 93.886719 142.773438 95.253906 144.003906 C 95.933594 144.617188 96.753906 144.683594 97.644531 144.683594 C 98.53125 144.683594 99.214844 144.550781 99.691406 143.730469 C 99.691406 143.730469 99.761719 143.660156 99.761719 143.59375 C 98.53125 143.730469 97.234375 142.636719 97.507812 141.203125 C 97.914062 139.359375 100.238281 138.949219 101.46875 140.175781 C 102.765625 141.542969 102.492188 143.320312 101.742188 144.753906 Z M 102.902344 163.742188 L 108.160156 163.742188 C 104.402344 159.300781 101.605469 154.042969 99.964844 148.375 L 94.089844 148.375 C 95.796875 154.113281 98.804688 159.371094 102.902344 163.742188 Z M 314.480469 177.402344 C 313.386719 175.695312 312.226562 174.054688 311.066406 172.347656 C 310.929688 172.417969 310.722656 172.484375 310.519531 172.484375 L 219.003906 172.484375 C 218.796875 174.535156 217.023438 176.105469 214.90625 176.105469 C 212.652344 176.105469 210.808594 174.261719 210.808594 172.007812 C 210.808594 169.753906 212.652344 167.910156 214.90625 167.910156 C 216.542969 167.910156 217.980469 168.863281 218.59375 170.230469 L 309.5625 170.230469 C 308.539062 168.796875 307.515625 167.363281 306.421875 165.929688 L 210.464844 165.929688 C 210.398438 165.929688 210.398438 165.929688 210.328125 165.929688 C 203.707031 170.230469 195.851562 172.757812 187.382812 172.757812 C 178.914062 172.757812 171.058594 170.230469 164.433594 165.929688 C 164.367188 165.929688 164.367188 165.929688 164.300781 165.929688 L 68.34375 165.929688 C 67.320312 167.363281 66.226562 168.796875 65.203125 170.230469 L 156.171875 170.230469 C 156.855469 168.863281 158.21875 167.910156 159.859375 167.910156 C 162.113281 167.910156 163.957031 169.753906 163.957031 172.007812 C 163.957031 174.261719 162.113281 176.105469 159.859375 176.105469 C 157.742188 176.105469 155.96875 174.535156 155.761719 172.484375 L 64.246094 172.484375 C 64.042969 172.484375 63.835938 172.417969 63.699219 172.347656 C 62.539062 173.988281 61.378906 175.695312 60.285156 177.402344 Z M 187.382812 74.949219 C 238.058594 74.949219 280.605469 110.808594 289.277344 160.464844 L 291.53125 160.464844 C 287.433594 136.421875 274.9375 114.425781 256.359375 98.375 C 237.304688 81.777344 212.789062 72.695312 187.382812 72.695312 C 162.183594 72.695312 137.800781 81.710938 118.675781 98.101562 C 99.898438 114.152344 87.332031 136.285156 83.164062 160.464844 L 85.417969 160.464844 C 94.160156 110.875 136.84375 74.949219 187.382812 74.949219 Z M 187.382812 74.949219 " fill-opacity="1" fill-rule="nonzero"/></g><g clip-path="url(#e763843888)"><path fill="#f4c87a" d="M 187.523438 88.550781 C 164.570312 88.550781 145.898438 107.222656 145.898438 130.175781 C 145.898438 153.128906 164.570312 171.800781 187.523438 171.800781 C 210.480469 171.800781 229.148438 153.128906 229.148438 130.175781 C 229.148438 107.222656 210.480469 88.550781 187.523438 88.550781 Z M 187.523438 170.597656 C 165.238281 170.597656 147.105469 152.464844 147.105469 130.175781 C 147.105469 107.886719 165.238281 89.753906 187.523438 89.753906 C 209.8125 89.753906 227.945312 107.886719 227.945312 130.175781 C 227.945312 152.464844 209.8125 170.597656 187.523438 170.597656 Z M 187.523438 170.597656 " fill-opacity="1" fill-rule="nonzero"/></g><path fill="#f4c87a" d="M 214.027344 103.675781 C 213.519531 103.167969 213 102.679688 212.464844 102.203125 C 211.933594 101.726562 211.382812 101.265625 210.824219 100.820312 C 210.261719 100.375 209.691406 99.945312 209.105469 99.535156 C 208.519531 99.121094 207.925781 98.726562 207.316406 98.351562 C 206.707031 97.972656 206.089844 97.613281 205.460938 97.269531 C 204.835938 96.925781 204.195312 96.601562 203.550781 96.296875 C 202.902344 95.992188 202.246094 95.703125 201.585938 95.433594 C 200.921875 95.167969 200.25 94.917969 199.574219 94.6875 C 198.894531 94.457031 198.210938 94.246094 197.523438 94.054688 C 196.832031 93.867188 196.136719 93.695312 195.4375 93.542969 C 194.738281 93.390625 194.035156 93.261719 193.328125 93.152344 C 192.621094 93.039062 191.910156 92.949219 191.199219 92.878906 C 190.488281 92.808594 189.773438 92.757812 189.058594 92.730469 C 188.34375 92.699219 187.628906 92.691406 186.914062 92.703125 C 186.199219 92.714844 185.484375 92.746094 184.769531 92.800781 C 184.054688 92.851562 183.34375 92.925781 182.632812 93.019531 C 181.925781 93.113281 181.21875 93.226562 180.515625 93.359375 C 179.8125 93.496094 179.113281 93.648438 178.417969 93.824219 C 177.726562 93.996094 177.039062 94.191406 176.355469 94.402344 C 175.671875 94.617188 174.996094 94.847656 174.324219 95.101562 C 173.65625 95.351562 172.992188 95.625 172.339844 95.914062 C 171.683594 96.203125 171.039062 96.511719 170.402344 96.839844 C 169.765625 97.167969 169.140625 97.511719 168.523438 97.875 C 167.90625 98.238281 167.300781 98.617188 166.707031 99.015625 C 166.109375 99.414062 165.527344 99.828125 164.957031 100.257812 C 164.382812 100.6875 163.824219 101.136719 163.28125 101.597656 C 162.734375 102.0625 162.203125 102.539062 161.683594 103.035156 C 161.167969 103.527344 160.664062 104.035156 160.171875 104.558594 C 159.683594 105.078125 159.210938 105.617188 158.75 106.164062 C 158.292969 106.714844 157.851562 107.277344 157.425781 107.851562 C 157 108.425781 156.589844 109.011719 156.195312 109.609375 C 155.804688 110.210938 155.429688 110.820312 155.070312 111.4375 C 154.710938 112.058594 154.371094 112.6875 154.050781 113.328125 C 153.730469 113.964844 153.425781 114.613281 153.140625 115.269531 C 152.855469 115.925781 152.589844 116.589844 152.34375 117.261719 C 152.097656 117.933594 151.871094 118.613281 151.664062 119.296875 C 151.457031 119.984375 151.269531 120.671875 151.101562 121.367188 C 150.929688 122.0625 150.785156 122.765625 150.65625 123.46875 C 150.527344 124.171875 150.417969 124.878906 150.332031 125.589844 C 150.246094 126.300781 150.175781 127.011719 150.128906 127.726562 C 150.082031 128.441406 150.058594 129.15625 150.050781 129.871094 C 150.046875 130.585938 150.058594 131.300781 150.09375 132.015625 C 150.128906 132.730469 150.1875 133.445312 150.261719 134.15625 C 150.335938 134.867188 150.433594 135.574219 150.550781 136.28125 C 150.667969 136.988281 150.804688 137.691406 150.960938 138.386719 C 151.117188 139.085938 151.292969 139.78125 151.492188 140.46875 C 151.6875 141.15625 151.902344 141.835938 152.140625 142.511719 C 152.375 143.1875 152.628906 143.855469 152.902344 144.519531 C 153.175781 145.179688 153.46875 145.832031 153.78125 146.476562 C 154.09375 147.121094 154.421875 147.757812 154.769531 148.382812 C 155.117188 149.007812 155.480469 149.621094 155.863281 150.226562 C 156.246094 150.832031 156.648438 151.425781 157.0625 152.007812 C 157.480469 152.585938 157.914062 153.15625 158.363281 153.714844 C 158.8125 154.269531 159.277344 154.8125 159.757812 155.34375 C 160.238281 155.875 160.734375 156.390625 161.246094 156.894531 C 161.753906 157.394531 162.277344 157.882812 162.816406 158.351562 C 163.355469 158.824219 163.90625 159.28125 164.46875 159.722656 C 165.035156 160.160156 165.609375 160.585938 166.199219 160.992188 C 166.789062 161.398438 167.386719 161.789062 168 162.164062 C 168.609375 162.535156 169.230469 162.890625 169.859375 163.226562 C 170.492188 163.566406 171.132812 163.882812 171.78125 164.183594 C 172.429688 164.484375 173.089844 164.765625 173.753906 165.03125 C 174.417969 165.292969 175.09375 165.539062 175.773438 165.761719 C 176.453125 165.984375 177.136719 166.191406 177.828125 166.375 C 178.519531 166.5625 179.214844 166.726562 179.914062 166.871094 C 180.617188 167.015625 181.320312 167.140625 182.027344 167.246094 C 182.738281 167.351562 183.445312 167.4375 184.160156 167.5 C 184.871094 167.566406 185.585938 167.609375 186.300781 167.632812 C 187.015625 167.65625 187.730469 167.660156 188.445312 167.640625 C 189.164062 167.625 189.875 167.585938 190.589844 167.527344 C 191.304688 167.46875 192.015625 167.390625 192.722656 167.292969 C 193.433594 167.191406 194.136719 167.074219 194.839844 166.933594 C 195.539062 166.792969 196.238281 166.632812 196.929688 166.453125 C 197.625 166.273438 198.308594 166.074219 198.992188 165.855469 C 199.671875 165.636719 200.347656 165.398438 201.015625 165.140625 C 201.683594 164.882812 202.34375 164.609375 202.996094 164.3125 C 203.644531 164.015625 204.289062 163.703125 204.921875 163.371094 C 205.558594 163.039062 206.179688 162.6875 206.792969 162.320312 C 207.40625 161.953125 208.011719 161.566406 208.601562 161.164062 C 209.195312 160.761719 209.773438 160.34375 210.339844 159.910156 C 210.910156 159.472656 211.464844 159.019531 212.007812 158.554688 C 212.546875 158.085938 213.074219 157.605469 213.589844 157.105469 C 214.105469 156.609375 214.605469 156.097656 215.089844 155.570312 C 215.574219 155.042969 216.042969 154.503906 216.496094 153.949219 C 216.953125 153.398438 217.390625 152.832031 217.8125 152.253906 C 218.230469 151.675781 218.636719 151.085938 219.023438 150.484375 C 219.414062 149.882812 219.78125 149.269531 220.136719 148.648438 C 220.488281 148.027344 220.824219 147.394531 221.140625 146.75 C 221.457031 146.109375 221.753906 145.460938 222.03125 144.800781 C 222.3125 144.140625 222.570312 143.476562 222.8125 142.800781 C 223.054688 142.128906 223.277344 141.449219 223.476562 140.761719 C 223.679688 140.074219 223.863281 139.382812 224.023438 138.6875 C 224.1875 137.988281 224.328125 137.289062 224.453125 136.582031 C 224.574219 135.878906 224.675781 135.167969 224.757812 134.457031 C 224.839844 133.746094 224.902344 133.035156 224.941406 132.320312 C 224.984375 131.605469 225.003906 130.890625 225.003906 130.175781 C 225.007812 127.714844 224.769531 125.277344 224.289062 122.863281 C 223.8125 120.449219 223.101562 118.105469 222.160156 115.828125 C 221.21875 113.554688 220.0625 111.394531 218.695312 109.351562 C 217.324219 107.304688 215.769531 105.414062 214.027344 103.675781 Z M 212.027344 154.675781 C 210.171875 156.535156 208.128906 158.160156 205.902344 159.554688 L 205.339844 137.199219 C 205.308594 136.402344 205.492188 135.660156 205.886719 134.96875 C 206.28125 134.277344 206.832031 133.746094 207.53125 133.367188 C 208.691406 132.722656 209.46875 131.714844 209.363281 130.34375 L 208.054688 112.03125 C 208.03125 111.703125 207.375 111.722656 207.371094 112.050781 L 207.332031 128.578125 C 207.332031 129.28125 206.054688 129.289062 206.039062 128.585938 L 205.472656 112.046875 C 205.460938 111.710938 204.789062 111.710938 204.777344 112.046875 L 204.566406 128.585938 C 204.558594 128.9375 204.238281 129.109375 203.921875 129.109375 C 203.757812 129.128906 203.613281 129.085938 203.488281 128.984375 C 203.363281 128.882812 203.289062 128.75 203.277344 128.585938 L 203.0625 112.046875 C 203.050781 111.710938 202.378906 111.710938 202.371094 112.046875 L 201.800781 128.585938 C 201.789062 129.289062 200.511719 129.28125 200.507812 128.578125 L 200.46875 112.050781 C 200.46875 111.722656 199.8125 111.703125 199.785156 112.03125 L 198.476562 130.34375 C 198.371094 131.714844 199.148438 132.722656 200.308594 133.367188 C 201.007812 133.742188 201.558594 134.277344 201.953125 134.96875 C 202.347656 135.660156 202.53125 136.402344 202.5 137.199219 L 201.882812 161.722656 C 198.046875 163.46875 194.027344 164.476562 189.824219 164.75 L 189.851562 141.03125 C 189.847656 140.871094 189.789062 140.734375 189.671875 140.625 C 189.558594 140.511719 189.421875 140.457031 189.261719 140.460938 L 188.230469 140.460938 C 187.972656 140.457031 187.757812 140.363281 187.578125 140.179688 C 187.398438 140 187.308594 139.777344 187.308594 139.523438 C 187.308594 139.265625 187.398438 139.046875 187.578125 138.867188 C 187.757812 138.683594 187.972656 138.589844 188.230469 138.585938 L 188.664062 138.585938 C 188.875 138.589844 189.066406 138.527344 189.234375 138.398438 C 189.402344 138.273438 189.515625 138.109375 189.574219 137.90625 C 192 129.65625 191.480469 108.140625 187.859375 104.269531 C 186.589844 102.910156 185.113281 103.949219 185.113281 105.710938 L 185.113281 164.742188 C 180.949219 164.460938 176.96875 163.453125 173.167969 161.722656 L 172.542969 136.878906 C 172.515625 136.132812 172.671875 135.433594 173.019531 134.773438 C 173.371094 134.113281 173.859375 133.585938 174.492188 133.191406 C 174.921875 132.910156 175.324219 132.589844 175.691406 132.226562 C 177.453125 130.515625 178.585938 127.832031 178.585938 124.8125 C 178.585938 119.628906 175.25 111.515625 171.132812 111.515625 C 167.015625 111.515625 163.675781 119.628906 163.675781 124.8125 C 163.675781 127.808594 164.789062 130.46875 166.523438 132.183594 C 166.90625 132.5625 167.320312 132.898438 167.773438 133.191406 C 168.402344 133.585938 168.894531 134.113281 169.242188 134.773438 C 169.589844 135.433594 169.75 136.132812 169.71875 136.878906 L 169.148438 159.558594 C 168.140625 158.925781 167.164062 158.246094 166.226562 157.515625 C 165.289062 156.785156 164.390625 156.007812 163.53125 155.183594 C 162.671875 154.359375 161.859375 153.492188 161.089844 152.585938 C 160.320312 151.679688 159.601562 150.734375 158.929688 149.753906 C 158.257812 148.769531 157.636719 147.757812 157.070312 146.710938 C 156.5 145.667969 155.988281 144.59375 155.53125 143.496094 C 155.074219 142.398438 154.675781 141.28125 154.332031 140.140625 C 153.988281 139 153.707031 137.847656 153.484375 136.679688 C 153.261719 135.511719 153.097656 134.332031 152.996094 133.148438 C 152.894531 131.964844 152.851562 130.777344 152.875 129.585938 C 152.894531 128.398438 152.976562 127.210938 153.117188 126.03125 C 153.257812 124.851562 153.460938 123.679688 153.726562 122.519531 C 153.988281 121.359375 154.308594 120.214844 154.691406 119.089844 C 155.070312 117.960938 155.507812 116.855469 156.003906 115.773438 C 156.496094 114.691406 157.046875 113.640625 157.648438 112.613281 C 158.25 111.589844 158.90625 110.597656 159.609375 109.636719 C 160.316406 108.679688 161.066406 107.761719 161.867188 106.878906 C 162.667969 106 163.511719 105.160156 164.394531 104.367188 C 165.28125 103.574219 166.207031 102.828125 167.167969 102.128906 C 168.132812 101.429688 169.128906 100.78125 170.15625 100.1875 C 171.1875 99.589844 172.242188 99.050781 173.328125 98.5625 C 174.414062 98.074219 175.523438 97.644531 176.652344 97.269531 C 177.78125 96.898438 178.925781 96.582031 180.089844 96.328125 C 181.25 96.074219 182.421875 95.878906 183.605469 95.746094 C 184.785156 95.609375 185.972656 95.535156 187.160156 95.523438 C 188.351562 95.511719 189.539062 95.558594 190.722656 95.671875 C 191.90625 95.78125 193.082031 95.949219 194.25 96.179688 C 195.417969 96.414062 196.570312 96.703125 197.707031 97.050781 C 198.84375 97.402344 199.960938 97.808594 201.054688 98.273438 C 202.148438 98.738281 203.21875 99.257812 204.257812 99.832031 C 205.300781 100.40625 206.308594 101.03125 207.289062 101.710938 C 208.265625 102.390625 209.203125 103.117188 210.105469 103.890625 C 211.007812 104.667969 211.867188 105.488281 212.6875 106.351562 C 213.503906 107.214844 214.277344 108.117188 215 109.0625 C 215.726562 110.003906 216.398438 110.984375 217.023438 111.996094 C 217.648438 113.007812 218.21875 114.050781 218.734375 115.121094 C 219.253906 116.195312 219.710938 117.289062 220.117188 118.40625 C 220.519531 119.527344 220.867188 120.664062 221.152344 121.816406 C 221.441406 122.972656 221.667969 124.136719 221.832031 125.316406 C 222 126.492188 222.105469 127.675781 222.152344 128.867188 C 222.195312 130.054688 222.179688 131.242188 222.101562 132.429688 C 222.027344 133.617188 221.886719 134.796875 221.6875 135.96875 C 221.488281 137.140625 221.230469 138.300781 220.914062 139.449219 C 220.59375 140.59375 220.21875 141.722656 219.785156 142.828125 C 219.347656 143.9375 218.859375 145.019531 218.3125 146.074219 C 217.769531 147.132812 217.167969 148.160156 216.519531 149.152344 C 215.867188 150.148438 215.164062 151.109375 214.414062 152.03125 C 213.664062 152.953125 212.867188 153.835938 212.027344 154.679688 Z M 171.132812 118.363281 C 170.101562 118.363281 169.113281 119.289062 168.519531 119.976562 C 167.414062 121.265625 166.585938 122.949219 166.027344 124.503906 C 165.847656 125 165.683594 125.519531 165.542969 126.054688 C 165.472656 125.578125 165.4375 125.101562 165.4375 124.621094 C 165.480469 122.84375 165.792969 121.117188 166.378906 119.4375 C 166.898438 117.882812 167.667969 116.199219 168.699219 114.914062 C 169.25 114.222656 170.171875 113.300781 171.132812 113.300781 C 172.089844 113.300781 173.011719 114.222656 173.5625 114.914062 C 174.59375 116.199219 175.363281 117.882812 175.882812 119.4375 C 176.46875 121.117188 176.78125 122.84375 176.824219 124.621094 C 176.824219 125.101562 176.789062 125.578125 176.71875 126.054688 C 176.578125 125.519531 176.414062 125 176.234375 124.503906 C 175.675781 122.949219 174.847656 121.265625 173.742188 119.976562 C 173.148438 119.289062 172.160156 118.363281 171.132812 118.363281 Z M 171.132812 118.363281 " fill-opacity="1" fill-rule="evenodd"/><g fill="#f4c87a" fill-opacity="1"><g transform="translate(110.908275, 218.589917)"><g><path d="M 24.140625 -0.40625 C 24.179688 -0.40625 24.203125 -0.335938 24.203125 -0.203125 C 24.203125 -0.0664062 24.179688 0 24.140625 0 L 18.0625 0 C 17.5625 0 16.628906 -0.898438 15.265625 -2.703125 C 13.910156 -4.515625 12.265625 -7.046875 10.328125 -10.296875 C 10.148438 -10.273438 9.890625 -10.265625 9.546875 -10.265625 C 8.660156 -10.265625 8.035156 -10.273438 7.671875 -10.296875 L 7.671875 -2.765625 C 7.671875 -2.054688 7.726562 -1.539062 7.84375 -1.21875 C 7.957031 -0.90625 8.175781 -0.691406 8.5 -0.578125 C 8.832031 -0.460938 9.363281 -0.40625 10.09375 -0.40625 C 10.132812 -0.40625 10.15625 -0.335938 10.15625 -0.203125 C 10.15625 -0.0664062 10.132812 0 10.09375 0 C 9.34375 0 8.75 -0.0078125 8.3125 -0.03125 L 5.734375 -0.0625 L 3.234375 -0.03125 C 2.785156 -0.0078125 2.171875 0 1.390625 0 C 1.328125 0 1.296875 -0.0664062 1.296875 -0.203125 C 1.296875 -0.335938 1.328125 -0.40625 1.390625 -0.40625 C 2.117188 -0.40625 2.648438 -0.460938 2.984375 -0.578125 C 3.316406 -0.691406 3.546875 -0.910156 3.671875 -1.234375 C 3.796875 -1.566406 3.859375 -2.078125 3.859375 -2.765625 L 3.859375 -18.546875 C 3.859375 -19.222656 3.800781 -19.722656 3.6875 -20.046875 C 3.570312 -20.367188 3.34375 -20.59375 3 -20.71875 C 2.65625 -20.84375 2.132812 -20.90625 1.4375 -20.90625 C 1.382812 -20.90625 1.359375 -20.972656 1.359375 -21.109375 C 1.359375 -21.242188 1.382812 -21.3125 1.4375 -21.3125 L 3.234375 -21.28125 C 4.285156 -21.226562 5.117188 -21.203125 5.734375 -21.203125 C 6.503906 -21.203125 7.304688 -21.238281 8.140625 -21.3125 C 8.441406 -21.332031 8.8125 -21.351562 9.25 -21.375 C 9.695312 -21.394531 10.191406 -21.40625 10.734375 -21.40625 C 12.804688 -21.40625 14.410156 -21.023438 15.546875 -20.265625 C 16.679688 -19.503906 17.25 -18.441406 17.25 -17.078125 C 17.25 -15.828125 16.90625 -14.695312 16.21875 -13.6875 C 15.539062 -12.675781 14.632812 -11.863281 13.5 -11.25 C 15.320312 -8.519531 16.84375 -6.378906 18.0625 -4.828125 C 19.289062 -3.285156 20.382812 -2.160156 21.34375 -1.453125 C 22.300781 -0.753906 23.234375 -0.40625 24.140625 -0.40625 Z M 7.671875 -11.25 C 8.210938 -11.15625 8.875 -11.109375 9.65625 -11.109375 C 10.96875 -11.109375 11.910156 -11.476562 12.484375 -12.21875 C 13.066406 -12.957031 13.359375 -14.144531 13.359375 -15.78125 C 13.359375 -17.644531 13.085938 -18.925781 12.546875 -19.625 C 12.003906 -20.332031 11.21875 -20.6875 10.1875 -20.6875 C 9.28125 -20.6875 8.632812 -20.515625 8.25 -20.171875 C 7.863281 -19.835938 7.671875 -19.273438 7.671875 -18.484375 Z M 7.671875 -11.25 "/></g></g></g><g fill="#f4c87a" fill-opacity="1"><g transform="translate(138.113017, 218.589917)"><g><path d="M 16.90625 -5.421875 C 16.90625 -5.460938 16.953125 -5.484375 17.046875 -5.484375 C 17.117188 -5.484375 17.179688 -5.46875 17.234375 -5.4375 C 17.285156 -5.40625 17.3125 -5.378906 17.3125 -5.359375 C 17.09375 -3.578125 16.984375 -1.960938 16.984375 -0.515625 C 16.984375 -0.328125 16.945312 -0.191406 16.875 -0.109375 C 16.8125 -0.0351562 16.675781 0 16.46875 0 L 1.390625 0 C 1.328125 0 1.296875 -0.0664062 1.296875 -0.203125 C 1.296875 -0.335938 1.328125 -0.40625 1.390625 -0.40625 C 2.117188 -0.40625 2.648438 -0.460938 2.984375 -0.578125 C 3.316406 -0.691406 3.535156 -0.910156 3.640625 -1.234375 C 3.753906 -1.566406 3.8125 -2.078125 3.8125 -2.765625 L 3.8125 -18.546875 C 3.8125 -19.222656 3.753906 -19.722656 3.640625 -20.046875 C 3.535156 -20.367188 3.3125 -20.59375 2.96875 -20.71875 C 2.625 -20.84375 2.097656 -20.90625 1.390625 -20.90625 C 1.328125 -20.90625 1.296875 -20.972656 1.296875 -21.109375 C 1.296875 -21.242188 1.328125 -21.3125 1.390625 -21.3125 L 15.859375 -21.3125 C 16.078125 -21.3125 16.1875 -21.207031 16.1875 -21 L 16.265625 -16.46875 C 16.265625 -16.425781 16.203125 -16.390625 16.078125 -16.359375 C 15.953125 -16.335938 15.878906 -16.363281 15.859375 -16.4375 C 15.492188 -17.75 14.878906 -18.722656 14.015625 -19.359375 C 13.148438 -19.992188 12.015625 -20.3125 10.609375 -20.3125 L 9.578125 -20.3125 C 8.898438 -20.3125 8.398438 -20.164062 8.078125 -19.875 C 7.765625 -19.582031 7.609375 -19.128906 7.609375 -18.515625 L 7.609375 -11.5625 L 10.4375 -11.5625 C 11.75 -11.5625 12.757812 -11.785156 13.46875 -12.234375 C 14.175781 -12.691406 14.53125 -13.332031 14.53125 -14.15625 C 14.53125 -14.21875 14.59375 -14.25 14.71875 -14.25 C 14.84375 -14.25 14.90625 -14.21875 14.90625 -14.15625 L 14.859375 -11.078125 L 14.90625 -9.4375 C 14.945312 -8.664062 14.96875 -8.054688 14.96875 -7.609375 C 14.96875 -7.554688 14.898438 -7.53125 14.765625 -7.53125 C 14.628906 -7.53125 14.5625 -7.554688 14.5625 -7.609375 C 14.5625 -8.535156 14.203125 -9.265625 13.484375 -9.796875 C 12.765625 -10.335938 11.738281 -10.609375 10.40625 -10.609375 L 7.609375 -10.609375 L 7.609375 -2.890625 C 7.609375 -2.234375 7.734375 -1.742188 7.984375 -1.421875 C 8.234375 -1.109375 8.628906 -0.953125 9.171875 -0.953125 L 10.296875 -0.953125 C 12.066406 -0.953125 13.484375 -1.316406 14.546875 -2.046875 C 15.617188 -2.773438 16.40625 -3.898438 16.90625 -5.421875 Z M 16.90625 -5.421875 "/></g></g></g><g fill="#f4c87a" fill-opacity="1"><g transform="translate(160.340654, 218.589917)"><g><path d="M 14.5625 -21.6875 C 15.625 -21.6875 16.707031 -21.597656 17.8125 -21.421875 C 18.914062 -21.253906 19.796875 -21.035156 20.453125 -20.765625 C 20.660156 -20.691406 20.789062 -20.601562 20.84375 -20.5 C 20.90625 -20.40625 20.945312 -20.234375 20.96875 -19.984375 L 21.40625 -15.234375 C 21.40625 -15.171875 21.347656 -15.125 21.234375 -15.09375 C 21.117188 -15.070312 21.039062 -15.109375 21 -15.203125 C 20.363281 -17.066406 19.453125 -18.492188 18.265625 -19.484375 C 17.085938 -20.472656 15.671875 -20.96875 14.015625 -20.96875 C 12.460938 -20.96875 11.078125 -20.550781 9.859375 -19.71875 C 8.648438 -18.894531 7.695312 -17.707031 7 -16.15625 C 6.3125 -14.613281 5.96875 -12.804688 5.96875 -10.734375 C 5.96875 -8.648438 6.320312 -6.816406 7.03125 -5.234375 C 7.75 -3.648438 8.738281 -2.429688 10 -1.578125 C 11.269531 -0.734375 12.722656 -0.3125 14.359375 -0.3125 C 15.921875 -0.3125 17.234375 -0.734375 18.296875 -1.578125 C 19.367188 -2.429688 20.382812 -3.835938 21.34375 -5.796875 C 21.363281 -5.859375 21.429688 -5.878906 21.546875 -5.859375 C 21.660156 -5.835938 21.71875 -5.796875 21.71875 -5.734375 L 21.203125 -1.5 C 21.160156 -1.226562 21.113281 -1.050781 21.0625 -0.96875 C 21.019531 -0.894531 20.894531 -0.8125 20.6875 -0.71875 C 18.601562 0.03125 16.492188 0.40625 14.359375 0.40625 C 11.921875 0.40625 9.738281 -0.0507812 7.8125 -0.96875 C 5.894531 -1.894531 4.390625 -3.1875 3.296875 -4.84375 C 2.210938 -6.5 1.671875 -8.382812 1.671875 -10.5 C 1.671875 -12.65625 2.234375 -14.578125 3.359375 -16.265625 C 4.484375 -17.960938 6.023438 -19.289062 7.984375 -20.25 C 9.953125 -21.207031 12.144531 -21.6875 14.5625 -21.6875 Z M 14.5625 -21.6875 "/></g></g></g><g fill="#f4c87a" fill-opacity="1"><g transform="translate(186.965864, 218.589917)"><g><path d="M 7.734375 -2.765625 C 7.734375 -2.054688 7.789062 -1.539062 7.90625 -1.21875 C 8.019531 -0.90625 8.238281 -0.691406 8.5625 -0.578125 C 8.894531 -0.460938 9.425781 -0.40625 10.15625 -0.40625 C 10.226562 -0.40625 10.265625 -0.335938 10.265625 -0.203125 C 10.265625 -0.0664062 10.226562 0 10.15625 0 C 9.40625 0 8.816406 -0.0078125 8.390625 -0.03125 L 5.796875 -0.0625 L 3.265625 -0.03125 C 2.816406 -0.0078125 2.207031 0 1.4375 0 C 1.382812 0 1.359375 -0.0664062 1.359375 -0.203125 C 1.359375 -0.335938 1.382812 -0.40625 1.4375 -0.40625 C 2.15625 -0.40625 2.6875 -0.460938 3.03125 -0.578125 C 3.375 -0.691406 3.609375 -0.910156 3.734375 -1.234375 C 3.859375 -1.566406 3.921875 -2.078125 3.921875 -2.765625 L 3.921875 -18.546875 C 3.921875 -19.222656 3.859375 -19.722656 3.734375 -20.046875 C 3.609375 -20.367188 3.375 -20.59375 3.03125 -20.71875 C 2.6875 -20.84375 2.15625 -20.90625 1.4375 -20.90625 C 1.382812 -20.90625 1.359375 -20.972656 1.359375 -21.109375 C 1.359375 -21.242188 1.382812 -21.3125 1.4375 -21.3125 L 3.265625 -21.28125 C 4.316406 -21.226562 5.160156 -21.203125 5.796875 -21.203125 C 6.503906 -21.203125 7.378906 -21.226562 8.421875 -21.28125 L 10.15625 -21.3125 C 10.226562 -21.3125 10.265625 -21.242188 10.265625 -21.109375 C 10.265625 -20.972656 10.226562 -20.90625 10.15625 -20.90625 C 9.457031 -20.90625 8.9375 -20.832031 8.59375 -20.6875 C 8.25 -20.550781 8.019531 -20.316406 7.90625 -19.984375 C 7.789062 -19.660156 7.734375 -19.160156 7.734375 -18.484375 Z M 7.734375 -2.765625 "/></g></g></g><g fill="#f4c87a" fill-opacity="1"><g transform="translate(202.034642, 218.589917)"><g><path d="M 7.359375 -2.890625 C 7.359375 -2.171875 7.4375 -1.644531 7.59375 -1.3125 C 7.757812 -0.976562 8.0625 -0.742188 8.5 -0.609375 C 8.945312 -0.472656 9.660156 -0.40625 10.640625 -0.40625 C 10.703125 -0.40625 10.734375 -0.335938 10.734375 -0.203125 C 10.734375 -0.0664062 10.703125 0 10.640625 0 C 9.703125 0 8.972656 -0.0078125 8.453125 -0.03125 L 5.484375 -0.0625 L 3 -0.03125 C 2.539062 -0.0078125 1.925781 0 1.15625 0 C 1.09375 0 1.0625 -0.0664062 1.0625 -0.203125 C 1.0625 -0.335938 1.09375 -0.40625 1.15625 -0.40625 C 1.882812 -0.40625 2.410156 -0.460938 2.734375 -0.578125 C 3.066406 -0.691406 3.289062 -0.910156 3.40625 -1.234375 C 3.519531 -1.566406 3.578125 -2.078125 3.578125 -2.765625 L 3.578125 -18.546875 C 3.578125 -19.222656 3.519531 -19.722656 3.40625 -20.046875 C 3.289062 -20.367188 3.0625 -20.59375 2.71875 -20.71875 C 2.382812 -20.84375 1.863281 -20.90625 1.15625 -20.90625 C 1.09375 -20.90625 1.0625 -20.972656 1.0625 -21.109375 C 1.0625 -21.242188 1.09375 -21.3125 1.15625 -21.3125 L 2.96875 -21.28125 C 4.007812 -21.226562 4.835938 -21.203125 5.453125 -21.203125 C 5.992188 -21.203125 6.640625 -21.238281 7.390625 -21.3125 C 7.691406 -21.332031 8.066406 -21.351562 8.515625 -21.375 C 8.972656 -21.394531 9.5 -21.40625 10.09375 -21.40625 C 12.40625 -21.40625 14.234375 -20.921875 15.578125 -19.953125 C 16.921875 -18.992188 17.59375 -17.503906 17.59375 -15.484375 C 17.59375 -14.066406 17.226562 -12.867188 16.5 -11.890625 C 15.769531 -10.921875 14.832031 -10.1875 13.6875 -9.6875 C 12.539062 -9.1875 11.363281 -8.9375 10.15625 -8.9375 C 9.539062 -8.9375 9.007812 -8.992188 8.5625 -9.109375 C 8.507812 -9.109375 8.484375 -9.164062 8.484375 -9.28125 C 8.484375 -9.34375 8.5 -9.40625 8.53125 -9.46875 C 8.570312 -9.539062 8.613281 -9.566406 8.65625 -9.546875 C 9 -9.453125 9.382812 -9.40625 9.8125 -9.40625 C 10.863281 -9.40625 11.734375 -9.894531 12.421875 -10.875 C 13.117188 -11.851562 13.46875 -13.238281 13.46875 -15.03125 C 13.46875 -16.832031 13.085938 -18.21875 12.328125 -19.1875 C 11.566406 -20.164062 10.457031 -20.65625 9 -20.65625 C 8.363281 -20.65625 7.929688 -20.507812 7.703125 -20.21875 C 7.472656 -19.925781 7.359375 -19.347656 7.359375 -18.484375 Z M 7.359375 -2.890625 "/></g></g></g><g fill="#f4c87a" fill-opacity="1"><g transform="translate(224.296363, 218.589917)"><g><path d="M 16.90625 -5.421875 C 16.90625 -5.460938 16.953125 -5.484375 17.046875 -5.484375 C 17.117188 -5.484375 17.179688 -5.46875 17.234375 -5.4375 C 17.285156 -5.40625 17.3125 -5.378906 17.3125 -5.359375 C 17.09375 -3.578125 16.984375 -1.960938 16.984375 -0.515625 C 16.984375 -0.328125 16.945312 -0.191406 16.875 -0.109375 C 16.8125 -0.0351562 16.675781 0 16.46875 0 L 1.390625 0 C 1.328125 0 1.296875 -0.0664062 1.296875 -0.203125 C 1.296875 -0.335938 1.328125 -0.40625 1.390625 -0.40625 C 2.117188 -0.40625 2.648438 -0.460938 2.984375 -0.578125 C 3.316406 -0.691406 3.535156 -0.910156 3.640625 -1.234375 C 3.753906 -1.566406 3.8125 -2.078125 3.8125 -2.765625 L 3.8125 -18.546875 C 3.8125 -19.222656 3.753906 -19.722656 3.640625 -20.046875 C 3.535156 -20.367188 3.3125 -20.59375 2.96875 -20.71875 C 2.625 -20.84375 2.097656 -20.90625 1.390625 -20.90625 C 1.328125 -20.90625 1.296875 -20.972656 1.296875 -21.109375 C 1.296875 -21.242188 1.328125 -21.3125 1.390625 -21.3125 L 15.859375 -21.3125 C 16.078125 -21.3125 16.1875 -21.207031 16.1875 -21 L 16.265625 -16.46875 C 16.265625 -16.425781 16.203125 -16.390625 16.078125 -16.359375 C 15.953125 -16.335938 15.878906 -16.363281 15.859375 -16.4375 C 15.492188 -17.75 14.878906 -18.722656 14.015625 -19.359375 C 13.148438 -19.992188 12.015625 -20.3125 10.609375 -20.3125 L 9.578125 -20.3125 C 8.898438 -20.3125 8.398438 -20.164062 8.078125 -19.875 C 7.765625 -19.582031 7.609375 -19.128906 7.609375 -18.515625 L 7.609375 -11.5625 L 10.4375 -11.5625 C 11.75 -11.5625 12.757812 -11.785156 13.46875 -12.234375 C 14.175781 -12.691406 14.53125 -13.332031 14.53125 -14.15625 C 14.53125 -14.21875 14.59375 -14.25 14.71875 -14.25 C 14.84375 -14.25 14.90625 -14.21875 14.90625 -14.15625 L 14.859375 -11.078125 L 14.90625 -9.4375 C 14.945312 -8.664062 14.96875 -8.054688 14.96875 -7.609375 C 14.96875 -7.554688 14.898438 -7.53125 14.765625 -7.53125 C 14.628906 -7.53125 14.5625 -7.554688 14.5625 -7.609375 C 14.5625 -8.535156 14.203125 -9.265625 13.484375 -9.796875 C 12.765625 -10.335938 11.738281 -10.609375 10.40625 -10.609375 L 7.609375 -10.609375 L 7.609375 -2.890625 C 7.609375 -2.234375 7.734375 -1.742188 7.984375 -1.421875 C 8.234375 -1.109375 8.628906 -0.953125 9.171875 -0.953125 L 10.296875 -0.953125 C 12.066406 -0.953125 13.484375 -1.316406 14.546875 -2.046875 C 15.617188 -2.773438 16.40625 -3.898438 16.90625 -5.421875 Z M 16.90625 -5.421875 "/></g></g></g><g fill="#f4c87a" fill-opacity="1"><g transform="translate(246.524004, 218.589917)"><g><path d="M 5.9375 -17.859375 C 5.9375 -17.046875 6.144531 -16.320312 6.5625 -15.6875 C 6.976562 -15.050781 7.492188 -14.492188 8.109375 -14.015625 C 8.722656 -13.535156 9.554688 -12.957031 10.609375 -12.28125 C 11.742188 -11.550781 12.648438 -10.910156 13.328125 -10.359375 C 14.015625 -9.816406 14.59375 -9.148438 15.0625 -8.359375 C 15.539062 -7.578125 15.78125 -6.675781 15.78125 -5.65625 C 15.78125 -4.476562 15.460938 -3.425781 14.828125 -2.5 C 14.191406 -1.582031 13.3125 -0.867188 12.1875 -0.359375 C 11.0625 0.148438 9.804688 0.40625 8.421875 0.40625 C 7.398438 0.40625 6.332031 0.265625 5.21875 -0.015625 C 4.101562 -0.296875 3.351562 -0.609375 2.96875 -0.953125 C 2.851562 -1.046875 2.765625 -1.128906 2.703125 -1.203125 C 2.648438 -1.285156 2.625 -1.421875 2.625 -1.609375 L 2.515625 -7.015625 L 2.515625 -7.0625 C 2.515625 -7.144531 2.570312 -7.191406 2.6875 -7.203125 C 2.800781 -7.222656 2.867188 -7.1875 2.890625 -7.09375 C 3.578125 -5.707031 4.175781 -4.582031 4.6875 -3.71875 C 5.195312 -2.851562 5.84375 -2.085938 6.625 -1.421875 C 7.414062 -0.765625 8.3125 -0.4375 9.3125 -0.4375 C 10.21875 -0.4375 10.960938 -0.679688 11.546875 -1.171875 C 12.140625 -1.660156 12.4375 -2.5 12.4375 -3.6875 C 12.4375 -4.6875 12.210938 -5.5625 11.765625 -6.3125 C 11.328125 -7.0625 10.789062 -7.695312 10.15625 -8.21875 C 9.519531 -8.738281 8.644531 -9.363281 7.53125 -10.09375 C 6.4375 -10.800781 5.585938 -11.40625 4.984375 -11.90625 C 4.390625 -12.40625 3.875 -13.003906 3.4375 -13.703125 C 3.007812 -14.410156 2.796875 -15.238281 2.796875 -16.1875 C 2.796875 -17.394531 3.140625 -18.410156 3.828125 -19.234375 C 4.523438 -20.066406 5.414062 -20.679688 6.5 -21.078125 C 7.59375 -21.484375 8.742188 -21.6875 9.953125 -21.6875 C 10.753906 -21.6875 11.5625 -21.609375 12.375 -21.453125 C 13.195312 -21.304688 13.859375 -21.132812 14.359375 -20.9375 C 14.554688 -20.84375 14.6875 -20.742188 14.75 -20.640625 C 14.820312 -20.535156 14.859375 -20.40625 14.859375 -20.25 L 14.859375 -15.234375 C 14.859375 -15.171875 14.800781 -15.117188 14.6875 -15.078125 C 14.582031 -15.046875 14.515625 -15.066406 14.484375 -15.140625 L 14.21875 -15.78125 C 13.644531 -17.21875 12.976562 -18.4375 12.21875 -19.4375 C 11.457031 -20.4375 10.394531 -20.9375 9.03125 -20.9375 C 8.125 -20.9375 7.378906 -20.671875 6.796875 -20.140625 C 6.222656 -19.617188 5.9375 -18.859375 5.9375 -17.859375 Z M 5.9375 -17.859375 "/></g></g></g><g fill="#f4c87a" fill-opacity="1"><g transform="translate(131.707492, 253.221691)"><g><path d="M 2.109375 -7.109375 C 2.046875 -7.109375 1.988281 -7.082031 1.9375 -7.03125 C 1.882812 -6.988281 1.859375 -6.929688 1.859375 -6.859375 L 1.859375 -0.84375 C 1.859375 -0.601562 1.9375 -0.410156 2.09375 -0.265625 C 2.101562 -0.242188 2.128906 -0.222656 2.171875 -0.203125 C 2.210938 -0.191406 2.234375 -0.15625 2.234375 -0.09375 C 2.234375 -0.03125 2.210938 0 2.171875 0 L 0.625 0 C 0.570312 0 0.546875 -0.0234375 0.546875 -0.078125 C 0.546875 -0.140625 0.550781 -0.175781 0.5625 -0.1875 C 0.582031 -0.195312 0.601562 -0.207031 0.625 -0.21875 C 0.65625 -0.226562 0.691406 -0.253906 0.734375 -0.296875 C 0.773438 -0.335938 0.816406 -0.410156 0.859375 -0.515625 C 0.910156 -0.628906 0.9375 -0.738281 0.9375 -0.84375 L 0.9375 -7.046875 C 0.9375 -7.285156 0.859375 -7.484375 0.703125 -7.640625 C 0.691406 -7.648438 0.660156 -7.664062 0.609375 -7.6875 C 0.566406 -7.707031 0.546875 -7.742188 0.546875 -7.796875 C 0.546875 -7.859375 0.570312 -7.890625 0.625 -7.890625 L 3.09375 -7.890625 C 3.800781 -7.878906 4.390625 -7.722656 4.859375 -7.421875 C 5.335938 -7.128906 5.578125 -6.648438 5.578125 -5.984375 C 5.578125 -5.191406 5.164062 -4.613281 4.34375 -4.25 C 4.039062 -4.113281 3.8125 -4.035156 3.65625 -4.015625 C 3.5 -4.003906 3.421875 -4 3.421875 -4 L 3.578125 -3.90625 C 3.640625 -3.863281 3.769531 -3.765625 3.96875 -3.609375 C 4.164062 -3.453125 4.363281 -3.273438 4.5625 -3.078125 C 4.757812 -2.878906 4.992188 -2.601562 5.265625 -2.25 C 5.535156 -1.90625 5.734375 -1.617188 5.859375 -1.390625 L 6.265625 -0.6875 C 6.398438 -0.425781 6.515625 -0.28125 6.609375 -0.25 C 6.710938 -0.226562 6.765625 -0.179688 6.765625 -0.109375 C 6.765625 -0.0351562 6.742188 0 6.703125 0 L 5.140625 0 C 5.097656 0 5.078125 -0.0234375 5.078125 -0.078125 C 5.078125 -0.140625 5.082031 -0.175781 5.09375 -0.1875 C 5.113281 -0.195312 5.132812 -0.207031 5.15625 -0.21875 C 5.1875 -0.226562 5.207031 -0.242188 5.21875 -0.265625 C 5.238281 -0.285156 5.25 -0.320312 5.25 -0.375 C 5.25 -0.4375 5.242188 -0.484375 5.234375 -0.515625 C 4.992188 -1.117188 4.671875 -1.691406 4.265625 -2.234375 C 3.515625 -3.253906 2.867188 -3.800781 2.328125 -3.875 C 2.242188 -3.882812 2.203125 -3.894531 2.203125 -3.90625 C 2.203125 -3.957031 2.203125 -4.035156 2.203125 -4.140625 L 2.203125 -4.4375 C 2.203125 -4.46875 2.21875 -4.484375 2.25 -4.484375 C 3.039062 -4.484375 3.65625 -4.640625 4.09375 -4.953125 C 4.4375 -5.191406 4.609375 -5.515625 4.609375 -5.921875 C 4.609375 -6.335938 4.441406 -6.640625 4.109375 -6.828125 C 3.785156 -7.015625 3.414062 -7.109375 3 -7.109375 Z M 2.109375 -7.109375 "/></g></g></g><g fill="#f4c87a" fill-opacity="1"><g transform="translate(140.069391, 253.221691)"><g><path d="M 4.859375 -4.71875 C 5.097656 -4.71875 5.289062 -4.796875 5.4375 -4.953125 C 5.457031 -4.960938 5.472656 -4.988281 5.484375 -5.03125 C 5.503906 -5.070312 5.546875 -5.09375 5.609375 -5.09375 C 5.671875 -5.09375 5.703125 -5.070312 5.703125 -5.03125 L 5.703125 -3.640625 C 5.703125 -3.597656 5.671875 -3.578125 5.609375 -3.578125 C 5.554688 -3.578125 5.523438 -3.582031 5.515625 -3.59375 C 5.503906 -3.613281 5.492188 -3.632812 5.484375 -3.65625 C 5.472656 -3.6875 5.445312 -3.71875 5.40625 -3.75 C 5.363281 -3.789062 5.289062 -3.832031 5.1875 -3.875 C 5.082031 -3.914062 4.972656 -3.9375 4.859375 -3.9375 L 1.8125 -3.9375 L 1.8125 -0.78125 L 5.015625 -0.78125 C 5.378906 -0.78125 5.601562 -0.8125 5.6875 -0.875 C 5.769531 -0.9375 5.828125 -0.988281 5.859375 -1.03125 C 5.890625 -1.082031 5.914062 -1.109375 5.9375 -1.109375 C 5.957031 -1.109375 5.988281 -1.097656 6.03125 -1.078125 C 6.082031 -1.066406 6.109375 -1.054688 6.109375 -1.046875 C 6.109375 -1.035156 6.082031 -0.972656 6.03125 -0.859375 L 5.875 -0.46875 C 5.820312 -0.320312 5.785156 -0.207031 5.765625 -0.125 C 5.742188 -0.0507812 5.71875 -0.0078125 5.6875 0 L 0.5625 0 C 0.519531 0 0.5 -0.0234375 0.5 -0.078125 C 0.5 -0.140625 0.503906 -0.175781 0.515625 -0.1875 C 0.535156 -0.195312 0.554688 -0.207031 0.578125 -0.21875 C 0.609375 -0.226562 0.644531 -0.253906 0.6875 -0.296875 C 0.726562 -0.335938 0.769531 -0.410156 0.8125 -0.515625 C 0.851562 -0.628906 0.875 -0.738281 0.875 -0.84375 L 0.875 -7.046875 C 0.875 -7.285156 0.800781 -7.484375 0.65625 -7.640625 C 0.632812 -7.648438 0.601562 -7.664062 0.5625 -7.6875 C 0.519531 -7.707031 0.5 -7.742188 0.5 -7.796875 C 0.5 -7.859375 0.519531 -7.890625 0.5625 -7.890625 L 5.6875 -7.890625 C 5.71875 -7.890625 5.742188 -7.847656 5.765625 -7.765625 C 5.785156 -7.691406 5.820312 -7.582031 5.875 -7.4375 L 6.03125 -7.046875 C 6.082031 -6.929688 6.109375 -6.863281 6.109375 -6.84375 C 6.109375 -6.832031 6.082031 -6.816406 6.03125 -6.796875 C 5.988281 -6.785156 5.957031 -6.78125 5.9375 -6.78125 C 5.925781 -6.78125 5.910156 -6.789062 5.890625 -6.8125 C 5.878906 -6.832031 5.863281 -6.851562 5.84375 -6.875 C 5.820312 -6.90625 5.769531 -6.953125 5.6875 -7.015625 C 5.601562 -7.078125 5.378906 -7.109375 5.015625 -7.109375 L 1.8125 -7.109375 L 1.8125 -4.71875 Z M 4.859375 -4.71875 "/></g></g></g><g fill="#f4c87a" fill-opacity="1"><g transform="translate(148.026582, 253.221691)"><g><path d="M 1.6875 -0.0625 C 1.582031 -0.0820312 1.472656 -0.109375 1.359375 -0.140625 C 1.242188 -0.179688 1.171875 -0.203125 1.140625 -0.203125 L 1.078125 -0.203125 C 0.960938 -0.203125 0.878906 -0.140625 0.828125 -0.015625 C 0.816406 -0.00390625 0.8125 0 0.8125 0 L 0.671875 0 C 0.648438 0 0.640625 -0.0078125 0.640625 -0.03125 L 0.21875 -1.453125 C 0.207031 -1.515625 0.257812 -1.546875 0.375 -1.546875 C 0.414062 -1.546875 0.441406 -1.535156 0.453125 -1.515625 C 0.472656 -1.503906 0.484375 -1.492188 0.484375 -1.484375 C 0.492188 -1.472656 0.507812 -1.453125 0.53125 -1.421875 C 0.957031 -0.890625 1.582031 -0.625 2.40625 -0.625 C 2.832031 -0.625 3.1875 -0.738281 3.46875 -0.96875 C 3.757812 -1.195312 3.90625 -1.53125 3.90625 -1.96875 C 3.90625 -2.269531 3.859375 -2.492188 3.765625 -2.640625 C 3.671875 -2.785156 3.59375 -2.894531 3.53125 -2.96875 C 3.394531 -3.125 3.082031 -3.335938 2.59375 -3.609375 C 2.113281 -3.890625 1.722656 -4.140625 1.421875 -4.359375 C 0.648438 -4.910156 0.265625 -5.476562 0.265625 -6.0625 C 0.265625 -6.65625 0.445312 -7.113281 0.8125 -7.4375 C 1.175781 -7.757812 1.664062 -7.921875 2.28125 -7.921875 C 2.625 -7.921875 2.984375 -7.828125 3.359375 -7.640625 C 3.535156 -7.554688 3.664062 -7.5 3.75 -7.46875 C 3.832031 -7.445312 3.890625 -7.46875 3.921875 -7.53125 C 3.953125 -7.59375 3.972656 -7.625 3.984375 -7.625 C 4.128906 -7.632812 4.203125 -7.609375 4.203125 -7.546875 L 4.34375 -6 C 4.34375 -5.96875 4.269531 -5.953125 4.125 -5.953125 C 4.101562 -5.953125 4.082031 -5.984375 4.0625 -6.046875 C 3.96875 -6.367188 3.734375 -6.640625 3.359375 -6.859375 C 2.992188 -7.078125 2.628906 -7.1875 2.265625 -7.1875 C 1.492188 -7.1875 1.109375 -6.863281 1.109375 -6.21875 C 1.109375 -5.757812 1.523438 -5.296875 2.359375 -4.828125 L 3.28125 -4.34375 C 3.84375 -4.03125 4.238281 -3.691406 4.46875 -3.328125 C 4.695312 -2.960938 4.8125 -2.578125 4.8125 -2.171875 L 4.8125 -2.125 C 4.726562 -1.570312 4.628906 -1.195312 4.515625 -1 C 4.328125 -0.664062 4.0625 -0.398438 3.71875 -0.203125 C 3.375 -0.00390625 2.984375 0.09375 2.546875 0.09375 C 2.304688 0.0820312 2.109375 0.0546875 1.953125 0.015625 Z M 1.6875 -0.0625 "/></g></g></g><g fill="#f4c87a" fill-opacity="1"><g transform="translate(154.485387, 253.221691)"><g><path d="M 8.234375 -7.890625 C 8.265625 -7.890625 8.289062 -7.847656 8.3125 -7.765625 C 8.332031 -7.691406 8.375 -7.582031 8.4375 -7.4375 C 8.4375 -7.4375 8.488281 -7.304688 8.59375 -7.046875 C 8.632812 -6.929688 8.65625 -6.863281 8.65625 -6.84375 C 8.65625 -6.832031 8.628906 -6.816406 8.578125 -6.796875 C 8.535156 -6.785156 8.507812 -6.78125 8.5 -6.78125 C 8.476562 -6.78125 8.445312 -6.800781 8.40625 -6.84375 C 8.375 -6.894531 8.316406 -6.953125 8.234375 -7.015625 C 8.148438 -7.078125 7.925781 -7.109375 7.5625 -7.109375 L 4.859375 -7.109375 L 4.859375 -0.84375 C 4.859375 -0.601562 4.9375 -0.410156 5.09375 -0.265625 C 5.101562 -0.242188 5.128906 -0.222656 5.171875 -0.203125 C 5.210938 -0.191406 5.234375 -0.15625 5.234375 -0.09375 C 5.234375 -0.03125 5.210938 0 5.171875 0 L 3.609375 0 C 3.566406 0 3.546875 -0.0234375 3.546875 -0.078125 C 3.546875 -0.140625 3.550781 -0.175781 3.5625 -0.1875 C 3.582031 -0.195312 3.601562 -0.207031 3.625 -0.21875 C 3.65625 -0.226562 3.6875 -0.253906 3.71875 -0.296875 C 3.757812 -0.335938 3.800781 -0.410156 3.84375 -0.515625 C 3.894531 -0.628906 3.921875 -0.738281 3.921875 -0.84375 L 3.921875 -7.109375 L 1.203125 -7.109375 C 0.753906 -7.109375 0.484375 -7.035156 0.390625 -6.890625 C 0.335938 -6.828125 0.300781 -6.789062 0.28125 -6.78125 C 0.269531 -6.78125 0.238281 -6.785156 0.1875 -6.796875 C 0.144531 -6.816406 0.125 -6.832031 0.125 -6.84375 C 0.125 -6.863281 0.144531 -6.929688 0.1875 -7.046875 L 0.34375 -7.4375 C 0.394531 -7.570312 0.429688 -7.675781 0.453125 -7.75 C 0.472656 -7.832031 0.503906 -7.878906 0.546875 -7.890625 Z M 8.234375 -7.890625 "/></g></g></g><g fill="#f4c87a" fill-opacity="1"><g transform="translate(164.735928, 253.221691)"><g><path d="M 2.109375 -7.109375 C 2.046875 -7.109375 1.988281 -7.082031 1.9375 -7.03125 C 1.882812 -6.988281 1.859375 -6.929688 1.859375 -6.859375 L 1.859375 -0.84375 C 1.859375 -0.601562 1.9375 -0.410156 2.09375 -0.265625 C 2.101562 -0.242188 2.128906 -0.222656 2.171875 -0.203125 C 2.210938 -0.191406 2.234375 -0.15625 2.234375 -0.09375 C 2.234375 -0.03125 2.210938 0 2.171875 0 L 0.625 0 C 0.570312 0 0.546875 -0.0234375 0.546875 -0.078125 C 0.546875 -0.140625 0.550781 -0.175781 0.5625 -0.1875 C 0.582031 -0.195312 0.601562 -0.207031 0.625 -0.21875 C 0.65625 -0.226562 0.691406 -0.253906 0.734375 -0.296875 C 0.773438 -0.335938 0.816406 -0.410156 0.859375 -0.515625 C 0.910156 -0.628906 0.9375 -0.738281 0.9375 -0.84375 L 0.9375 -7.046875 C 0.9375 -7.285156 0.859375 -7.484375 0.703125 -7.640625 C 0.691406 -7.648438 0.660156 -7.664062 0.609375 -7.6875 C 0.566406 -7.707031 0.546875 -7.742188 0.546875 -7.796875 C 0.546875 -7.859375 0.570312 -7.890625 0.625 -7.890625 L 3.09375 -7.890625 C 3.800781 -7.878906 4.390625 -7.722656 4.859375 -7.421875 C 5.335938 -7.128906 5.578125 -6.648438 5.578125 -5.984375 C 5.578125 -5.191406 5.164062 -4.613281 4.34375 -4.25 C 4.039062 -4.113281 3.8125 -4.035156 3.65625 -4.015625 C 3.5 -4.003906 3.421875 -4 3.421875 -4 L 3.578125 -3.90625 C 3.640625 -3.863281 3.769531 -3.765625 3.96875 -3.609375 C 4.164062 -3.453125 4.363281 -3.273438 4.5625 -3.078125 C 4.757812 -2.878906 4.992188 -2.601562 5.265625 -2.25 C 5.535156 -1.90625 5.734375 -1.617188 5.859375 -1.390625 L 6.265625 -0.6875 C 6.398438 -0.425781 6.515625 -0.28125 6.609375 -0.25 C 6.710938 -0.226562 6.765625 -0.179688 6.765625 -0.109375 C 6.765625 -0.0351562 6.742188 0 6.703125 0 L 5.140625 0 C 5.097656 0 5.078125 -0.0234375 5.078125 -0.078125 C 5.078125 -0.140625 5.082031 -0.175781 5.09375 -0.1875 C 5.113281 -0.195312 5.132812 -0.207031 5.15625 -0.21875 C 5.1875 -0.226562 5.207031 -0.242188 5.21875 -0.265625 C 5.238281 -0.285156 5.25 -0.320312 5.25 -0.375 C 5.25 -0.4375 5.242188 -0.484375 5.234375 -0.515625 C 4.992188 -1.117188 4.671875 -1.691406 4.265625 -2.234375 C 3.515625 -3.253906 2.867188 -3.800781 2.328125 -3.875 C 2.242188 -3.882812 2.203125 -3.894531 2.203125 -3.90625 C 2.203125 -3.957031 2.203125 -4.035156 2.203125 -4.140625 L 2.203125 -4.4375 C 2.203125 -4.46875 2.21875 -4.484375 2.25 -4.484375 C 3.039062 -4.484375 3.65625 -4.640625 4.09375 -4.953125 C 4.4375 -5.191406 4.609375 -5.515625 4.609375 -5.921875 C 4.609375 -6.335938 4.441406 -6.640625 4.109375 -6.828125 C 3.785156 -7.015625 3.414062 -7.109375 3 -7.109375 Z M 2.109375 -7.109375 "/></g></g></g><g fill="#f4c87a" fill-opacity="1"><g transform="translate(173.097828, 253.221691)"><g><path d="M 3.578125 -0.8125 C 3.898438 -0.6875 4.210938 -0.625 4.515625 -0.625 C 5.535156 -0.625 6.347656 -0.925781 6.953125 -1.53125 C 7.566406 -2.132812 7.875 -2.945312 7.875 -3.96875 C 7.875 -4.3125 7.785156 -4.675781 7.609375 -5.0625 C 7.429688 -5.445312 7.191406 -5.800781 6.890625 -6.125 C 6.597656 -6.445312 6.234375 -6.710938 5.796875 -6.921875 C 5.367188 -7.128906 4.878906 -7.234375 4.328125 -7.234375 C 3.785156 -7.234375 3.269531 -7.09375 2.78125 -6.8125 C 2.289062 -6.539062 1.914062 -6.160156 1.65625 -5.671875 C 1.394531 -5.179688 1.265625 -4.613281 1.265625 -3.96875 C 1.265625 -3.320312 1.5 -2.695312 1.96875 -2.09375 C 2.4375 -1.488281 2.972656 -1.0625 3.578125 -0.8125 Z M 1.5625 -1.046875 C 1.195312 -1.421875 0.910156 -1.863281 0.703125 -2.375 C 0.492188 -2.894531 0.390625 -3.429688 0.390625 -3.984375 C 0.390625 -4.535156 0.5 -5.0625 0.71875 -5.5625 C 0.945312 -6.0625 1.242188 -6.492188 1.609375 -6.859375 C 1.972656 -7.222656 2.40625 -7.515625 2.90625 -7.734375 C 3.40625 -7.953125 3.898438 -8.0625 4.390625 -8.0625 C 4.890625 -8.0625 5.351562 -8 5.78125 -7.875 C 6.625 -7.613281 7.328125 -7.132812 7.890625 -6.4375 C 8.453125 -5.75 8.734375 -4.9375 8.734375 -4 C 8.734375 -3.457031 8.632812 -2.929688 8.4375 -2.421875 C 8.238281 -1.921875 7.957031 -1.476562 7.59375 -1.09375 C 7.238281 -0.707031 6.785156 -0.398438 6.234375 -0.171875 C 5.691406 0.0546875 5.117188 0.171875 4.515625 0.171875 C 3.910156 0.171875 3.359375 0.0625 2.859375 -0.15625 C 2.359375 -0.375 1.925781 -0.671875 1.5625 -1.046875 Z M 1.5625 -1.046875 "/></g></g></g><g fill="#f4c87a" fill-opacity="1"><g transform="translate(183.691863, 253.221691)"><g/></g></g><g fill="#f4c87a" fill-opacity="1"><g transform="translate(187.64051, 253.221691)"><g/></g></g><g fill="#f4c87a" fill-opacity="1"><g transform="translate(191.578585, 253.221691)"><g><path d="M 3.703125 -5.0625 C 3.703125 -4.96875 3.679688 -4.921875 3.640625 -4.921875 L 3.0625 -4.921875 C 2.6875 -4.921875 2.328125 -4.800781 1.984375 -4.5625 C 1.398438 -4.132812 1.101562 -3.566406 1.09375 -2.859375 C 1.09375 -2.566406 1.164062 -2.285156 1.3125 -2.015625 C 1.457031 -1.742188 1.644531 -1.507812 1.875 -1.3125 C 2.101562 -1.113281 2.363281 -0.957031 2.65625 -0.84375 C 2.945312 -0.726562 3.210938 -0.671875 3.453125 -0.671875 C 3.703125 -0.671875 3.910156 -0.695312 4.078125 -0.75 C 4.242188 -0.800781 4.382812 -0.867188 4.5 -0.953125 C 4.613281 -1.035156 4.722656 -1.132812 4.828125 -1.25 C 4.984375 -1.4375 5.097656 -1.648438 5.171875 -1.890625 C 5.253906 -2.128906 5.296875 -2.316406 5.296875 -2.453125 C 5.296875 -2.585938 5.234375 -2.664062 5.109375 -2.6875 L 3.484375 -2.6875 C 3.117188 -2.6875 2.894531 -2.65625 2.8125 -2.59375 C 2.738281 -2.53125 2.679688 -2.472656 2.640625 -2.421875 C 2.609375 -2.367188 2.582031 -2.34375 2.5625 -2.34375 C 2.550781 -2.34375 2.519531 -2.347656 2.46875 -2.359375 C 2.425781 -2.378906 2.40625 -2.394531 2.40625 -2.40625 C 2.40625 -2.425781 2.425781 -2.484375 2.46875 -2.578125 L 2.625 -2.9375 C 2.675781 -3.070312 2.710938 -3.175781 2.734375 -3.25 C 2.765625 -3.332031 2.796875 -3.378906 2.828125 -3.390625 L 7.296875 -3.390625 C 7.523438 -3.390625 7.71875 -3.46875 7.875 -3.625 C 7.882812 -3.632812 7.898438 -3.660156 7.921875 -3.703125 C 7.941406 -3.742188 7.984375 -3.765625 8.046875 -3.765625 C 8.109375 -3.765625 8.140625 -3.742188 8.140625 -3.703125 C 8.085938 -3.328125 8.019531 -3.023438 7.9375 -2.796875 C 7.90625 -2.722656 7.847656 -2.6875 7.765625 -2.6875 C 7.566406 -2.664062 7.300781 -2.664062 6.96875 -2.6875 C 6.632812 -2.707031 6.382812 -2.707031 6.21875 -2.6875 C 6.050781 -2.664062 5.96875 -2.601562 5.96875 -2.5 C 5.96875 -2.0625 5.835938 -1.601562 5.578125 -1.125 C 5.128906 -0.257812 4.359375 0.171875 3.265625 0.171875 C 2.921875 0.171875 2.566406 0.101562 2.203125 -0.03125 C 1.835938 -0.175781 1.519531 -0.375 1.25 -0.625 C 0.988281 -0.875 0.78125 -1.179688 0.625 -1.546875 C 0.46875 -1.921875 0.390625 -2.28125 0.390625 -2.625 C 0.390625 -2.96875 0.421875 -3.253906 0.484375 -3.484375 C 0.597656 -3.910156 0.773438 -4.253906 1.015625 -4.515625 C 1.265625 -4.773438 1.550781 -5.015625 1.875 -5.234375 L 1.875 -5.265625 C 1.582031 -5.492188 1.394531 -5.691406 1.3125 -5.859375 C 1.226562 -6.035156 1.1875 -6.238281 1.1875 -6.46875 C 1.1875 -6.9375 1.335938 -7.320312 1.640625 -7.625 C 1.941406 -7.925781 2.316406 -8.078125 2.765625 -8.078125 C 2.929688 -8.078125 3.132812 -8.035156 3.375 -7.953125 C 3.425781 -7.929688 3.476562 -7.9375 3.53125 -7.96875 C 3.59375 -8.007812 3.65625 -8.03125 3.71875 -8.03125 C 3.78125 -8.03125 3.828125 -8 3.859375 -7.9375 C 3.878906 -7.925781 3.882812 -7.894531 3.875 -7.84375 C 3.875 -7.769531 3.914062 -7.554688 4 -7.203125 L 4.125 -6.671875 C 4.15625 -6.535156 4.171875 -6.445312 4.171875 -6.40625 C 4.171875 -6.382812 4.128906 -6.351562 4.046875 -6.3125 C 3.960938 -6.269531 3.914062 -6.257812 3.90625 -6.28125 L 3.578125 -6.984375 C 3.421875 -7.265625 3.1875 -7.40625 2.875 -7.40625 C 2.5625 -7.40625 2.320312 -7.320312 2.15625 -7.15625 C 1.988281 -7 1.90625 -6.769531 1.90625 -6.46875 C 1.90625 -6.3125 1.960938 -6.160156 2.078125 -6.015625 C 2.316406 -5.722656 2.644531 -5.578125 3.0625 -5.578125 L 3.640625 -5.578125 C 3.679688 -5.578125 3.703125 -5.53125 3.703125 -5.4375 Z M 3.703125 -5.0625 "/></g></g></g><g fill="#f4c87a" fill-opacity="1"><g transform="translate(201.46921, 253.221691)"><g/></g></g><g fill="#f4c87a" fill-opacity="1"><g transform="translate(205.417856, 253.221691)"><g/></g></g><g fill="#f4c87a" fill-opacity="1"><g transform="translate(209.355924, 253.221691)"><g><path d="M 4.453125 -0.546875 C 5.179688 -0.546875 5.832031 -0.707031 6.40625 -1.03125 C 6.976562 -1.363281 7.445312 -1.804688 7.8125 -2.359375 C 7.851562 -2.429688 7.882812 -2.453125 7.90625 -2.421875 C 7.925781 -2.398438 7.953125 -2.363281 7.984375 -2.3125 L 8.140625 -2.109375 C 8.191406 -2.023438 8.207031 -1.972656 8.1875 -1.953125 C 8 -1.554688 7.675781 -1.171875 7.21875 -0.796875 C 6.382812 -0.0976562 5.460938 0.25 4.453125 0.25 C 3.867188 0.25 3.320312 0.140625 2.8125 -0.078125 C 2.300781 -0.304688 1.867188 -0.609375 1.515625 -0.984375 C 1.160156 -1.367188 0.882812 -1.816406 0.6875 -2.328125 C 0.488281 -2.835938 0.390625 -3.363281 0.390625 -3.90625 C 0.390625 -4.457031 0.492188 -4.984375 0.703125 -5.484375 C 0.921875 -5.984375 1.210938 -6.414062 1.578125 -6.78125 C 1.941406 -7.144531 2.375 -7.4375 2.875 -7.65625 C 3.375 -7.875 3.878906 -7.984375 4.390625 -7.984375 C 4.992188 -7.984375 5.597656 -7.867188 6.203125 -7.640625 L 6.4375 -7.5625 C 6.46875 -7.539062 6.507812 -7.550781 6.5625 -7.59375 C 6.625 -7.632812 6.6875 -7.65625 6.75 -7.65625 C 6.8125 -7.65625 6.863281 -7.625 6.90625 -7.5625 C 6.914062 -7.550781 6.921875 -7.515625 6.921875 -7.453125 C 6.910156 -7.359375 6.945312 -7.144531 7.03125 -6.8125 L 7.15625 -6.28125 C 7.1875 -6.144531 7.203125 -6.054688 7.203125 -6.015625 C 7.203125 -6.003906 7.160156 -5.976562 7.078125 -5.9375 C 6.992188 -5.894531 6.945312 -5.882812 6.9375 -5.90625 C 6.664062 -6.375 6.328125 -6.695312 5.921875 -6.875 C 5.523438 -7.050781 5.023438 -7.140625 4.421875 -7.140625 C 3.816406 -7.140625 3.269531 -7 2.78125 -6.71875 C 2.300781 -6.445312 1.925781 -6.066406 1.65625 -5.578125 C 1.394531 -5.097656 1.265625 -4.550781 1.265625 -3.9375 C 1.265625 -3.53125 1.359375 -3.117188 1.546875 -2.703125 C 1.734375 -2.285156 1.972656 -1.921875 2.265625 -1.609375 C 2.554688 -1.296875 2.894531 -1.039062 3.28125 -0.84375 C 3.675781 -0.644531 4.066406 -0.546875 4.453125 -0.546875 Z M 4.453125 -0.546875 "/></g></g></g><g fill="#f4c87a" fill-opacity="1"><g transform="translate(219.351113, 253.221691)"><g><path d="M 0.546875 -0.734375 C 0.546875 -0.734375 1.609375 -3.101562 3.734375 -7.84375 C 3.742188 -7.875 3.816406 -7.890625 3.953125 -7.890625 C 4.097656 -7.890625 4.179688 -7.875 4.203125 -7.84375 L 7.46875 -0.734375 C 7.59375 -0.441406 7.71875 -0.269531 7.84375 -0.21875 C 7.882812 -0.195312 7.90625 -0.15625 7.90625 -0.09375 C 7.90625 -0.03125 7.882812 0 7.84375 0 L 6.09375 0 C 6.050781 0 6.03125 -0.0234375 6.03125 -0.078125 C 6.03125 -0.140625 6.035156 -0.175781 6.046875 -0.1875 C 6.066406 -0.195312 6.085938 -0.207031 6.109375 -0.21875 C 6.140625 -0.226562 6.164062 -0.242188 6.1875 -0.265625 C 6.300781 -0.378906 6.359375 -0.488281 6.359375 -0.59375 C 6.359375 -0.695312 6.347656 -0.785156 6.328125 -0.859375 L 5.625 -2.515625 L 2.15625 -2.515625 L 1.46875 -0.859375 C 1.445312 -0.785156 1.4375 -0.734375 1.4375 -0.703125 L 1.4375 -0.65625 C 1.4375 -0.644531 1.4375 -0.640625 1.4375 -0.640625 C 1.4375 -0.503906 1.5 -0.378906 1.625 -0.265625 C 1.632812 -0.242188 1.660156 -0.222656 1.703125 -0.203125 C 1.742188 -0.191406 1.765625 -0.15625 1.765625 -0.09375 C 1.765625 -0.03125 1.742188 0 1.703125 0 L 0.1875 0 C 0.144531 0 0.125 -0.0234375 0.125 -0.078125 C 0.125 -0.140625 0.128906 -0.175781 0.140625 -0.1875 C 0.148438 -0.195312 0.171875 -0.207031 0.203125 -0.21875 C 0.304688 -0.269531 0.421875 -0.441406 0.546875 -0.734375 Z M 2.5 -3.28125 C 2.488281 -3.269531 2.484375 -3.253906 2.484375 -3.234375 C 2.492188 -3.222656 2.503906 -3.21875 2.515625 -3.21875 L 5.265625 -3.21875 C 5.273438 -3.21875 5.28125 -3.222656 5.28125 -3.234375 C 5.289062 -3.253906 5.289062 -3.269531 5.28125 -3.28125 L 3.890625 -6.3125 L 3.859375 -6.3125 Z M 2.5 -3.28125 "/></g></g></g><g fill="#f4c87a" fill-opacity="1"><g transform="translate(228.85487, 253.221691)"><g><path d="M 0.625 0 C 0.570312 0 0.546875 -0.0234375 0.546875 -0.078125 C 0.546875 -0.140625 0.550781 -0.175781 0.5625 -0.1875 C 0.582031 -0.195312 0.601562 -0.207031 0.625 -0.21875 C 0.65625 -0.226562 0.691406 -0.253906 0.734375 -0.296875 C 0.773438 -0.335938 0.816406 -0.410156 0.859375 -0.515625 C 0.910156 -0.628906 0.9375 -0.738281 0.9375 -0.84375 L 0.9375 -7.046875 C 0.9375 -7.285156 0.859375 -7.484375 0.703125 -7.640625 C 0.691406 -7.648438 0.660156 -7.664062 0.609375 -7.6875 C 0.566406 -7.707031 0.546875 -7.742188 0.546875 -7.796875 C 0.546875 -7.859375 0.570312 -7.890625 0.625 -7.890625 L 5.734375 -7.890625 C 5.765625 -7.890625 5.789062 -7.847656 5.8125 -7.765625 C 5.832031 -7.691406 5.875 -7.582031 5.9375 -7.4375 L 6.078125 -7.046875 C 6.128906 -6.929688 6.15625 -6.863281 6.15625 -6.84375 C 6.15625 -6.832031 6.128906 -6.816406 6.078125 -6.796875 C 6.035156 -6.785156 6.003906 -6.78125 5.984375 -6.78125 C 5.960938 -6.78125 5.9375 -6.800781 5.90625 -6.84375 C 5.875 -6.894531 5.816406 -6.953125 5.734375 -7.015625 C 5.660156 -7.078125 5.4375 -7.109375 5.0625 -7.109375 L 1.859375 -7.109375 L 1.859375 -4.71875 L 4.90625 -4.71875 C 5.144531 -4.71875 5.335938 -4.796875 5.484375 -4.953125 C 5.503906 -4.960938 5.519531 -4.988281 5.53125 -5.03125 C 5.550781 -5.070312 5.59375 -5.09375 5.65625 -5.09375 C 5.71875 -5.09375 5.75 -5.070312 5.75 -5.03125 L 5.75 -3.640625 C 5.75 -3.597656 5.71875 -3.578125 5.65625 -3.578125 C 5.601562 -3.578125 5.570312 -3.582031 5.5625 -3.59375 C 5.550781 -3.613281 5.539062 -3.632812 5.53125 -3.65625 C 5.519531 -3.6875 5.492188 -3.71875 5.453125 -3.75 C 5.410156 -3.789062 5.335938 -3.832031 5.234375 -3.875 C 5.128906 -3.914062 5.019531 -3.9375 4.90625 -3.9375 L 1.859375 -3.9375 L 1.859375 -0.84375 C 1.859375 -0.601562 1.9375 -0.410156 2.09375 -0.265625 C 2.101562 -0.242188 2.128906 -0.222656 2.171875 -0.203125 C 2.210938 -0.191406 2.234375 -0.15625 2.234375 -0.09375 C 2.234375 -0.03125 2.210938 0 2.171875 0 Z M 0.625 0 "/></g></g></g><g fill="#f4c87a" fill-opacity="1"><g transform="translate(236.812061, 253.221691)"><g><path d="M 4.859375 -4.71875 C 5.097656 -4.71875 5.289062 -4.796875 5.4375 -4.953125 C 5.457031 -4.960938 5.472656 -4.988281 5.484375 -5.03125 C 5.503906 -5.070312 5.546875 -5.09375 5.609375 -5.09375 C 5.671875 -5.09375 5.703125 -5.070312 5.703125 -5.03125 L 5.703125 -3.640625 C 5.703125 -3.597656 5.671875 -3.578125 5.609375 -3.578125 C 5.554688 -3.578125 5.523438 -3.582031 5.515625 -3.59375 C 5.503906 -3.613281 5.492188 -3.632812 5.484375 -3.65625 C 5.472656 -3.6875 5.445312 -3.71875 5.40625 -3.75 C 5.363281 -3.789062 5.289062 -3.832031 5.1875 -3.875 C 5.082031 -3.914062 4.972656 -3.9375 4.859375 -3.9375 L 1.8125 -3.9375 L 1.8125 -0.78125 L 5.015625 -0.78125 C 5.378906 -0.78125 5.601562 -0.8125 5.6875 -0.875 C 5.769531 -0.9375 5.828125 -0.988281 5.859375 -1.03125 C 5.890625 -1.082031 5.914062 -1.109375 5.9375 -1.109375 C 5.957031 -1.109375 5.988281 -1.097656 6.03125 -1.078125 C 6.082031 -1.066406 6.109375 -1.054688 6.109375 -1.046875 C 6.109375 -1.035156 6.082031 -0.972656 6.03125 -0.859375 L 5.875 -0.46875 C 5.820312 -0.320312 5.785156 -0.207031 5.765625 -0.125 C 5.742188 -0.0507812 5.71875 -0.0078125 5.6875 0 L 0.5625 0 C 0.519531 0 0.5 -0.0234375 0.5 -0.078125 C 0.5 -0.140625 0.503906 -0.175781 0.515625 -0.1875 C 0.535156 -0.195312 0.554688 -0.207031 0.578125 -0.21875 C 0.609375 -0.226562 0.644531 -0.253906 0.6875 -0.296875 C 0.726562 -0.335938 0.769531 -0.410156 0.8125 -0.515625 C 0.851562 -0.628906 0.875 -0.738281 0.875 -0.84375 L 0.875 -7.046875 C 0.875 -7.285156 0.800781 -7.484375 0.65625 -7.640625 C 0.632812 -7.648438 0.601562 -7.664062 0.5625 -7.6875 C 0.519531 -7.707031 0.5 -7.742188 0.5 -7.796875 C 0.5 -7.859375 0.519531 -7.890625 0.5625 -7.890625 L 5.6875 -7.890625 C 5.71875 -7.890625 5.742188 -7.847656 5.765625 -7.765625 C 5.785156 -7.691406 5.820312 -7.582031 5.875 -7.4375 L 6.03125 -7.046875 C 6.082031 -6.929688 6.109375 -6.863281 6.109375 -6.84375 C 6.109375 -6.832031 6.082031 -6.816406 6.03125 -6.796875 C 5.988281 -6.785156 5.957031 -6.78125 5.9375 -6.78125 C 5.925781 -6.78125 5.910156 -6.789062 5.890625 -6.8125 C 5.878906 -6.832031 5.863281 -6.851562 5.84375 -6.875 C 5.820312 -6.90625 5.769531 -6.953125 5.6875 -7.015625 C 5.601562 -7.078125 5.378906 -7.109375 5.015625 -7.109375 L 1.8125 -7.109375 L 1.8125 -4.71875 Z M 4.859375 -4.71875 "/></g></g></g></svg>